<svg width="216" height="248" viewBox="0 0 216 248" fill="none" xmlns="http://www.w3.org/2000/svg">
<g filter="url(#filter0_d)">
<path d="M191 76H25C23.6744 75.9985 22.4035 75.4712 21.4662 74.5338C20.5288 73.5965 20.0015 72.3256 20 71V15C20.0015 13.6744 20.5288 12.4035 21.4662 11.4662C22.4035 10.5288 23.6744 10.0015 25 10H191C192.326 10.0015 193.597 10.5288 194.534 11.4662C195.471 12.4035 195.998 13.6744 196 15V71C195.998 72.3256 195.471 73.5965 194.534 74.5339C193.597 75.4712 192.326 75.9985 191 76V76Z" fill="#011B32"/>
<path d="M90 25H46V30H90V25Z" fill="white"/>
<path d="M148 31C149.657 31 151 29.6569 151 28C151 26.3431 149.657 25 148 25C146.343 25 145 26.3431 145 28C145 29.6569 146.343 31 148 31Z" fill="#17688D"/>
<path d="M158 31C159.657 31 161 29.6569 161 28C161 26.3431 159.657 25 158 25C156.343 25 155 26.3431 155 28C155 29.6569 156.343 31 158 31Z" fill="#17688D"/>
<path d="M168 31C169.657 31 171 29.6569 171 28C171 26.3431 169.657 25 168 25C166.343 25 165 26.3431 165 28C165 29.6569 166.343 31 168 31Z" fill="#17688D"/>
<path d="M191 147H25C23.6744 146.998 22.4035 146.471 21.4662 145.534C20.5288 144.596 20.0015 143.326 20 142V86C20.0015 84.6744 20.5288 83.4035 21.4662 82.4662C22.4035 81.5288 23.6744 81.0015 25 81H191C192.326 81.0015 193.597 81.5288 194.534 82.4662C195.471 83.4035 195.998 84.6744 196 86V142C195.998 143.326 195.471 144.597 194.534 145.534C193.597 146.471 192.326 146.998 191 147V147Z" fill="#011B32"/>
<path d="M90 96H46V101H90V96Z" fill="white"/>
<path d="M148 102C149.657 102 151 100.657 151 99C151 97.3431 149.657 96 148 96C146.343 96 145 97.3431 145 99C145 100.657 146.343 102 148 102Z" fill="#17688D"/>
<path d="M158 102C159.657 102 161 100.657 161 99C161 97.3431 159.657 96 158 96C156.343 96 155 97.3431 155 99C155 100.657 156.343 102 158 102Z" fill="#17688D"/>
<path d="M168 102C169.657 102 171 100.657 171 99C171 97.3431 169.657 96 168 96C166.343 96 165 97.3431 165 99C165 100.657 166.343 102 168 102Z" fill="#17688D"/>
<path d="M191 218H25C23.6744 217.998 22.4035 217.471 21.4662 216.534C20.5288 215.596 20.0015 214.326 20 213V157C20.0015 155.674 20.5288 154.404 21.4662 153.466C22.4035 152.529 23.6744 152.002 25 152H191C192.326 152.002 193.597 152.529 194.534 153.466C195.471 154.404 195.998 155.674 196 157V213C195.998 214.326 195.471 215.597 194.534 216.534C193.597 217.471 192.326 217.998 191 218V218Z" fill="#011B32"/>
<path d="M90 167H46V172H90V167Z" fill="white"/>
<path d="M148 173C149.657 173 151 171.657 151 170C151 168.343 149.657 167 148 167C146.343 167 145 168.343 145 170C145 171.657 146.343 173 148 173Z" fill="#17688D"/>
<path d="M158 173C159.657 173 161 171.657 161 170C161 168.343 159.657 167 158 167C156.343 167 155 168.343 155 170C155 171.657 156.343 173 158 173Z" fill="#17688D"/>
<path d="M168 173C169.657 173 171 171.657 171 170C171 168.343 169.657 167 168 167C166.343 167 165 168.343 165 170C165 171.657 166.343 173 168 173Z" fill="#17688D"/>
</g>
<defs>
<filter id="filter0_d" x="0" y="0" width="216" height="248" filterUnits="userSpaceOnUse" color-interpolation-filters="sRGB">
<feFlood flood-opacity="0" result="BackgroundImageFix"/>
<feColorMatrix in="SourceAlpha" type="matrix" values="0 0 0 0 0 0 0 0 0 0 0 0 0 0 0 0 0 0 127 0" result="hardAlpha"/>
<feOffset dy="10"/>
<feGaussianBlur stdDeviation="10"/>
<feComposite in2="hardAlpha" operator="out"/>
<feColorMatrix type="matrix" values="0 0 0 0 0 0 0 0 0 0 0 0 0 0 0 0 0 0 0.25 0"/>
<feBlend mode="normal" in2="BackgroundImageFix" result="effect1_dropShadow"/>
<feBlend mode="normal" in="SourceGraphic" in2="effect1_dropShadow" result="shape"/>
</filter>
</defs>
</svg>
