<svg width="797" height="631" viewBox="0 0 797 631" fill="none" xmlns="http://www.w3.org/2000/svg">
<g filter="url(#filter0_d)">
<path d="M11.4623 98.4514C11.4623 96.3297 12.2415 94.213 13.6286 92.5669C15.0156 90.9208 16.8969 89.8802 18.8585 89.674L758.481 11.9366C760.442 11.7304 762.324 12.3755 763.711 13.7301C765.098 15.0846 765.877 17.0375 765.877 19.1592V513.159C765.877 515.281 765.098 517.398 763.711 519.044C762.324 520.69 760.442 521.73 758.481 521.937L18.8585 599.674C16.8969 599.88 15.0156 599.235 13.6286 597.881C12.2415 596.526 11.4623 594.573 11.4623 592.451V98.4514Z" fill="#F7F8FA"/>
<path d="M18.8585 89.174C16.7743 89.3931 14.7755 90.4987 13.3017 92.2477C11.8279 93.9966 11 96.2457 11 98.5V592.5C11 597.2 14.5132 600.631 18.8585 600.174L758.481 522.437C762.826 521.98 766.339 517.811 766.339 513.111V19.1106C766.339 14.4106 762.826 10.9799 758.481 11.4366L18.8585 89.174Z" stroke="#1E2025" stroke-opacity="0.06"/>
<path d="M11.4973 129.642L766.339 50.3053V89.4999L11.4973 168.837V129.642Z" fill="#17688D"/>
<path opacity="0.4" d="M96.602 137.355L60.525 141.147C59.5032 141.254 58.6749 142.219 58.6749 143.301V145.261C58.6749 146.343 59.5032 147.134 60.525 147.026L96.602 143.234C97.6238 143.127 98.4521 142.163 98.4521 141.08V139.121C98.4521 138.038 97.6238 137.248 96.602 137.355Z" fill="white"/>
<path opacity="0.4" d="M113.253 137.565C113.253 136.487 114.085 135.518 115.103 135.411L165.981 130.063C166.472 130.012 166.942 130.169 167.289 130.5C167.636 130.831 167.831 131.309 167.831 131.829V133.788C167.831 134.308 167.636 134.827 167.289 135.231C166.942 135.635 166.472 135.891 165.981 135.942L115.103 141.29C114.612 141.341 114.142 141.184 113.795 140.853C113.448 140.522 113.253 140.044 113.253 139.525V137.565ZM182.632 130.273C182.632 129.195 183.464 128.226 184.482 128.119L213.159 125.105C213.649 125.053 214.12 125.21 214.467 125.541C214.814 125.872 215.009 126.35 215.009 126.87V128.83C215.009 129.349 214.814 129.868 214.467 130.272C214.12 130.676 213.649 130.932 213.159 130.984L184.482 133.998C183.991 134.049 183.521 133.892 183.174 133.561C182.827 133.23 182.632 132.752 182.632 132.233V130.273ZM229.809 125.314C229.809 124.236 230.642 123.267 231.66 123.16L289.938 117.035C290.428 116.983 290.899 117.14 291.246 117.471C291.593 117.802 291.788 118.28 291.788 118.8V120.76C291.788 121.28 291.593 121.799 291.246 122.203C290.899 122.607 290.428 122.862 289.938 122.914L231.66 129.039C231.169 129.091 230.698 128.934 230.351 128.603C230.004 128.272 229.809 127.794 229.809 127.274V125.314Z" fill="white"/>
<path d="M82.3164 83.0044L766.339 11.1107L762.153 50.5507L78.1303 122.444L82.3164 83.0044Z" fill="white"/>
<path fill-rule="evenodd" clip-rule="evenodd" d="M35.5486 107.517C35.5486 108.817 35.0613 110.114 34.1939 111.124C33.3265 112.134 32.15 112.774 30.9234 112.903C29.6967 113.032 28.5202 112.639 27.6528 111.811C26.7854 110.984 26.2981 109.789 26.2981 108.489C26.2981 107.19 26.7854 105.893 27.6528 104.883C28.5202 103.873 29.6967 103.233 30.9234 103.104C32.15 102.975 33.3265 103.368 34.1939 104.195C35.0613 105.023 35.5486 106.218 35.5486 107.517ZM52.1995 105.767C52.1995 107.066 51.7122 108.364 50.8448 109.374C49.9774 110.384 48.801 111.024 47.5743 111.153C46.3476 111.281 45.1711 110.889 44.3037 110.061C43.4363 109.234 42.949 108.039 42.949 106.739C42.949 105.44 43.4363 104.143 44.3037 103.133C45.1711 102.123 46.3476 101.483 47.5743 101.354C48.801 101.225 49.9774 101.617 50.8448 102.445C51.7122 103.273 52.1995 104.468 52.1995 105.767ZM64.2252 109.402C64.8326 109.339 65.4341 109.149 65.9952 108.843C66.5564 108.538 67.0663 108.124 67.4958 107.624C67.9253 107.124 68.266 106.548 68.4984 105.929C68.7308 105.31 68.8505 104.66 68.8505 104.017C68.8505 103.374 68.7308 102.749 68.4984 102.179C68.266 101.609 67.9253 101.105 67.4958 100.695C67.0663 100.285 66.5564 99.9779 65.9952 99.7907C65.4341 99.6035 64.8326 99.5399 64.2252 99.6038C62.9985 99.7327 61.8221 100.373 60.9547 101.383C60.0873 102.392 59.6 103.69 59.6 104.989C59.6 106.289 60.0873 107.484 60.9547 108.311C61.8221 109.139 62.9985 109.531 64.2252 109.402Z" fill="#9398AC" fill-opacity="0.3"/>
<path d="M166.906 85.872C166.906 84.8325 167.296 83.7946 167.99 82.9867C168.684 82.1787 169.625 81.6668 170.606 81.5637L607.231 35.6726C608.212 35.5695 609.153 35.8835 609.847 36.5456C610.541 37.2077 610.931 38.1636 610.931 39.2032V54.881C610.931 55.9205 610.541 56.9584 609.847 57.7664C609.153 58.5744 608.212 59.0862 607.231 59.1894L170.606 105.08C169.625 105.184 168.684 104.87 167.99 104.207C167.296 103.545 166.906 102.589 166.906 101.55V85.872Z" fill="#ECEDF0" fill-opacity="0.5"/>
<path d="M630.357 72.4365L532.301 82.7426C526.171 83.3869 521.201 89.1737 521.201 95.6677C521.201 102.162 526.171 106.904 532.301 106.259L630.357 95.9533C636.488 95.3089 641.458 89.5222 641.458 83.0282C641.458 76.5342 636.488 71.7922 630.357 72.4365Z" fill="white"/>
<path fill-rule="evenodd" clip-rule="evenodd" d="M534.179 96.7042C533.404 97.271 532.488 97.5362 531.603 97.45C530.718 97.3637 529.925 96.9321 529.373 96.2359C528.821 95.5398 528.548 94.627 528.605 93.6687C528.662 92.7104 529.044 91.7724 529.681 91.0307C530.318 90.289 531.166 89.7945 532.065 89.64C532.964 89.4854 533.853 89.6814 534.565 90.1912C535.277 90.701 535.763 91.4896 535.932 92.4091C536.101 93.3286 535.942 94.3158 535.484 95.1855L537.584 97.1695C537.67 97.2518 537.738 97.3531 537.785 97.4676C537.832 97.582 537.856 97.7074 537.856 97.8366C537.856 97.9659 537.832 98.0963 537.785 98.2206C537.738 98.3449 537.67 98.4605 537.584 98.5609C537.497 98.6614 537.395 98.7446 537.282 98.8059C537.17 98.8672 537.049 98.9053 536.927 98.9181C536.805 98.931 536.684 98.9182 536.571 98.8806C536.459 98.843 536.356 98.7813 536.27 98.699L534.179 96.7042ZM534.152 93.3266C534.152 93.8464 533.957 94.3653 533.61 94.7693C533.263 95.1733 532.792 95.4292 532.302 95.4808C531.811 95.5324 531.34 95.3754 530.993 95.0443C530.646 94.7133 530.451 94.2353 530.451 93.7155C530.451 93.1958 530.646 92.6768 530.993 92.2728C531.34 91.8688 531.811 91.6129 532.302 91.5613C532.792 91.5098 533.263 91.6668 533.61 91.9978C533.957 92.3289 534.152 92.8069 534.152 93.3266Z" fill="#A4AAB6"/>
<path opacity="0.4" d="M683.085 77.6731C683.085 76.5953 683.917 75.6259 684.935 75.5189L749.689 68.713C750.179 68.6615 750.65 68.8185 750.997 69.1495C751.344 69.4806 751.539 69.9586 751.539 70.4783V72.4381C751.539 72.9578 751.344 73.4768 750.997 73.8808C750.65 74.2847 750.179 74.5407 749.689 74.5922L684.935 81.3981C684.444 81.4497 683.974 81.2927 683.627 80.9616C683.28 80.6306 683.085 80.1526 683.085 79.6328V77.6731Z" fill="white"/>
<path d="M33.6985 213.537C33.6985 212.459 34.531 211.49 35.5486 211.383L104.927 204.091C105.418 204.039 105.889 204.196 106.236 204.527C106.583 204.858 106.778 205.336 106.778 205.856V207.816C106.778 208.336 106.583 208.855 106.236 209.259C105.889 209.663 105.418 209.919 104.927 209.97L35.5486 217.262C35.0579 217.314 34.5873 217.157 34.2404 216.826C33.8934 216.495 33.6985 216.017 33.6985 215.497V213.537Z" fill="#656C7A" fill-opacity="0.7"/>
<path d="M33.6985 235.094C33.6985 234.016 34.531 233.047 35.5486 232.94L82.7262 227.981C83.2169 227.93 83.6875 228.087 84.0344 228.418C84.3814 228.749 84.5763 229.227 84.5763 229.747V231.706C84.5763 232.226 84.3814 232.745 84.0344 233.149C83.6875 233.553 83.2169 233.809 82.7262 233.861L35.5486 238.819C35.0579 238.871 34.5873 238.714 34.2404 238.383C33.8934 238.052 33.6985 237.574 33.6985 237.054V235.094ZM33.6985 256.651C33.6985 255.573 34.531 254.604 35.5486 254.497L67.9254 251.094C68.4161 251.043 68.8867 251.2 69.2336 251.531C69.5806 251.862 69.7755 252.34 69.7755 252.859V254.819C69.7755 255.339 69.5806 255.858 69.2336 256.262C68.8867 256.666 68.4161 256.922 67.9254 256.973L35.5486 260.376C35.0579 260.428 34.5873 260.271 34.2404 259.94C33.8934 259.609 33.6985 259.131 33.6985 258.611V256.651ZM33.6985 278.208C33.6985 277.13 34.531 276.161 35.5486 276.054L90.1266 270.318C90.6173 270.266 91.0879 270.423 91.4349 270.754C91.7818 271.085 91.9767 271.563 91.9767 272.083V274.043C91.9767 274.562 91.7818 275.081 91.4349 275.485C91.0879 275.889 90.6173 276.145 90.1266 276.197L35.5486 281.933C35.0579 281.985 34.5873 281.828 34.2404 281.497C33.8934 281.166 33.6985 280.688 33.6985 280.168V278.208ZM33.6985 299.765C33.6985 298.687 34.531 297.718 35.5486 297.611L60.525 294.986C61.0157 294.934 61.4862 295.091 61.8332 295.423C62.1802 295.754 62.3751 296.232 62.3751 296.751V298.711C62.3751 299.231 62.1802 299.75 61.8332 300.154C61.4862 300.558 61.0157 300.814 60.525 300.865L35.5486 303.49C35.0579 303.542 34.5873 303.385 34.2404 303.054C33.8934 302.723 33.6985 302.245 33.6985 301.725V299.765Z" fill="#656C7A" fill-opacity="0.3"/>
<path d="M141.93 204.12C141.93 203.081 142.319 202.043 143.013 201.235C143.707 200.427 144.648 199.915 145.63 199.812L740.438 137.295C741.419 137.192 742.36 137.506 743.054 138.168C743.748 138.83 744.138 139.786 744.138 140.826V520.034C744.138 521.073 743.748 522.111 743.054 522.919C742.36 523.727 741.419 524.239 740.438 524.342L145.63 586.859C144.648 586.962 143.707 586.648 143.013 585.986C142.319 585.324 141.93 584.368 141.93 583.328V204.12Z" fill="white"/>
<path d="M145.63 199.323C144.526 199.439 143.467 200.015 142.686 200.924C141.906 201.833 141.467 203.001 141.467 204.17V583.378C141.467 584.547 141.906 585.623 142.686 586.368C143.467 587.113 144.526 587.466 145.63 587.35L740.438 524.833C741.542 524.717 742.601 524.141 743.381 523.232C744.162 522.323 744.601 521.156 744.601 519.986V140.778C744.601 139.609 744.162 138.533 743.381 137.788C742.601 137.043 741.542 136.69 740.438 136.806L145.63 199.323Z" stroke="black" stroke-opacity="0.11"/>
<path d="M153.03 213.733C153.03 212.655 153.863 211.686 154.88 211.579L191.882 207.69C192.373 207.638 192.844 207.795 193.191 208.126C193.538 208.457 193.732 208.935 193.732 209.455V211.415C193.732 211.935 193.538 212.454 193.191 212.858C192.844 213.262 192.373 213.517 191.882 213.569L154.88 217.458C154.39 217.51 153.919 217.353 153.572 217.022C153.225 216.691 153.03 216.213 153.03 215.693V213.733ZM342.666 193.802C342.666 192.724 343.498 191.754 344.516 191.647L403.719 185.425C404.21 185.373 404.68 185.53 405.027 185.861C405.374 186.192 405.569 186.67 405.569 187.19V189.15C405.569 189.67 405.374 190.189 405.027 190.593C404.68 190.997 404.21 191.253 403.719 191.304L344.516 197.527C344.025 197.578 343.555 197.421 343.208 197.09C342.861 196.759 342.666 196.281 342.666 195.761V193.802ZM448.122 182.718C448.122 181.64 448.954 180.671 449.972 180.564L486.974 176.674C487.465 176.623 487.935 176.78 488.282 177.111C488.629 177.442 488.824 177.92 488.824 178.44V180.399C488.824 180.919 488.629 181.438 488.282 181.842C487.935 182.246 487.465 182.502 486.974 182.554L449.972 186.443C449.481 186.494 449.011 186.337 448.664 186.006C448.317 185.675 448.122 185.197 448.122 184.677V182.718ZM545.252 172.509C545.252 171.431 546.085 170.462 547.102 170.355L591.505 165.688C591.995 165.636 592.466 165.793 592.813 166.124C593.16 166.455 593.355 166.933 593.355 167.453V169.413C593.355 169.933 593.16 170.452 592.813 170.856C592.466 171.26 591.995 171.515 591.505 171.567L547.102 176.234C546.612 176.286 546.141 176.128 545.794 175.797C545.447 175.466 545.252 174.988 545.252 174.469V172.509ZM629.432 163.661C629.432 162.583 630.264 161.614 631.282 161.507L675.684 156.84C676.175 156.789 676.646 156.946 676.993 157.277C677.34 157.608 677.534 158.086 677.534 158.605V160.565C677.534 161.085 677.34 161.604 676.993 162.008C676.646 162.412 676.175 162.668 675.684 162.719L631.282 167.386C630.791 167.438 630.321 167.281 629.974 166.95C629.627 166.619 629.432 166.141 629.432 165.621V163.661Z" fill="#656C7A" fill-opacity="0.3"/>
<path opacity="0.1" d="M142.855 231.46L744.138 168.263V169.243L142.855 232.44V231.46ZM142.855 271.635L744.138 208.437V209.417L142.855 272.615V271.635Z" fill="#343A45"/>
<path d="M582.254 194.096L556.353 196.819C550.222 197.463 545.252 203.25 545.252 209.744C545.252 216.238 550.222 220.98 556.353 220.336L582.254 217.613C588.385 216.969 593.355 211.182 593.355 204.688C593.355 198.194 588.385 193.452 582.254 194.096Z" fill="#27AE60"/>
<path d="M552.653 207.986C552.653 206.908 553.485 205.939 554.503 205.832L584.104 202.721C584.595 202.669 585.066 202.826 585.413 203.157C585.76 203.488 585.955 203.966 585.955 204.486V206.446C585.955 206.965 585.76 207.484 585.413 207.888C585.066 208.292 584.595 208.548 584.104 208.6L554.503 211.711C554.012 211.763 553.542 211.606 553.195 211.275C552.848 210.944 552.653 210.466 552.653 209.946V207.986Z" fill="#6FCF97"/>
<g opacity="0.3">
<path opacity="0.3" d="M632.207 203.544C633.74 203.383 634.982 201.936 634.982 200.313C634.982 198.689 633.74 197.504 632.207 197.665C630.674 197.826 629.432 199.273 629.432 200.896C629.432 202.52 630.674 203.705 632.207 203.544Z" fill="#27AE60"/>
<path opacity="0.3" d="M642.383 198.555C642.383 197.477 643.215 196.508 644.233 196.401L692.335 191.345C692.826 191.294 693.297 191.451 693.644 191.782C693.991 192.113 694.185 192.591 694.185 193.11V195.07C694.185 195.59 693.991 196.109 693.644 196.513C693.297 196.917 692.826 197.173 692.335 197.224L644.233 202.28C643.742 202.332 643.271 202.175 642.924 201.844C642.578 201.513 642.383 201.035 642.383 200.515V198.555Z" fill="#27AE60"/>
</g>
<path d="M153.03 249.988C153.03 248.91 153.863 247.941 154.88 247.834L236.285 239.278C236.776 239.226 237.246 239.383 237.593 239.715C237.94 240.046 238.135 240.524 238.135 241.043V243.003C238.135 243.523 237.94 244.042 237.593 244.446C237.246 244.85 236.776 245.106 236.285 245.157L154.88 253.713C154.39 253.765 153.919 253.608 153.572 253.277C153.225 252.946 153.03 252.468 153.03 251.948V249.988Z" fill="#17688D"/>
<path opacity="0.1" d="M341.741 230.154C341.741 229.076 342.573 228.107 343.591 228L402.794 221.777C403.285 221.726 403.755 221.883 404.102 222.214C404.449 222.545 404.644 223.023 404.644 223.542V225.502C404.644 226.022 404.449 226.541 404.102 226.945C403.755 227.349 403.285 227.605 402.794 227.656L343.591 233.879C343.1 233.93 342.63 233.773 342.283 233.442C341.936 233.111 341.741 232.633 341.741 232.114V230.154ZM447.197 219.07C447.197 217.992 448.029 217.023 449.047 216.916L508.25 210.693C508.741 210.642 509.211 210.799 509.558 211.13C509.905 211.461 510.1 211.939 510.1 212.459V214.418C510.1 214.938 509.905 215.457 509.558 215.861C509.211 216.265 508.741 216.521 508.25 216.573L449.047 222.795C448.556 222.847 448.085 222.69 447.738 222.359C447.391 222.027 447.197 221.55 447.197 221.03V219.07Z" fill="#656C7A"/>
<path opacity="0.1" d="M142.855 311.809L744.138 248.612V249.592L142.855 312.789V311.809Z" fill="#343A45"/>
<path d="M582.254 234.271L556.353 236.993C550.222 237.638 545.252 243.424 545.252 249.918C545.252 256.412 550.222 261.154 556.353 260.51L582.254 257.788C588.385 257.143 593.355 251.357 593.355 244.863C593.355 238.369 588.385 233.627 582.254 234.271Z" fill="#27AE60"/>
<path d="M552.653 248.161C552.653 247.083 553.485 246.113 554.503 246.006L584.104 242.895C584.595 242.844 585.066 243.001 585.413 243.332C585.76 243.663 585.955 244.141 585.955 244.66V246.62C585.955 247.14 585.76 247.659 585.413 248.063C585.066 248.467 584.595 248.723 584.104 248.774L554.503 251.886C554.012 251.937 553.542 251.78 553.195 251.449C552.848 251.118 552.653 250.64 552.653 250.12V248.161Z" fill="#6FCF97"/>
<g opacity="0.3">
<path opacity="0.3" d="M632.207 243.719C633.74 243.558 634.982 242.111 634.982 240.487C634.982 238.864 633.74 237.678 632.207 237.839C630.674 238.001 629.432 239.447 629.432 241.071C629.432 242.694 630.674 243.88 632.207 243.719Z" fill="#27AE60"/>
<path opacity="0.3" d="M642.383 238.73C642.383 237.652 643.215 236.682 644.233 236.576L692.335 231.52C692.826 231.468 693.297 231.625 693.644 231.956C693.991 232.287 694.185 232.765 694.185 233.285V235.245C694.185 235.764 693.991 236.283 693.644 236.687C693.297 237.091 692.826 237.347 692.335 237.399L644.233 242.455C643.742 242.506 643.271 242.349 642.924 242.018C642.578 241.687 642.383 241.209 642.383 240.689V238.73Z" fill="#27AE60"/>
</g>
<path d="M153.03 290.163C153.03 289.085 153.863 288.115 154.88 288.008L236.285 279.453C236.776 279.401 237.246 279.558 237.593 279.889C237.94 280.22 238.135 280.698 238.135 281.218V283.178C238.135 283.697 237.94 284.216 237.593 284.62C237.246 285.024 236.776 285.28 236.285 285.332L154.88 293.888C154.39 293.939 153.919 293.782 153.572 293.451C153.225 293.12 153.03 292.642 153.03 292.122V290.163Z" fill="#17688D"/>
<path opacity="0.1" d="M341.741 270.328C341.741 269.251 342.573 268.281 343.591 268.174L402.794 261.952C403.285 261.9 403.755 262.057 404.102 262.388C404.449 262.719 404.644 263.197 404.644 263.717V265.677C404.644 266.196 404.449 266.715 404.102 267.119C403.755 267.523 403.285 267.779 402.794 267.831L343.591 274.053C343.1 274.105 342.63 273.948 342.283 273.617C341.936 273.286 341.741 272.808 341.741 272.288V270.328ZM447.197 259.245C447.197 258.167 448.029 257.197 449.047 257.09L508.25 250.868C508.741 250.816 509.211 250.973 509.558 251.304C509.905 251.635 510.1 252.113 510.1 252.633V254.593C510.1 255.113 509.905 255.632 509.558 256.036C509.211 256.44 508.741 256.695 508.25 256.747L449.047 262.97C448.556 263.021 448.085 262.864 447.738 262.533C447.391 262.202 447.197 261.724 447.197 261.204V259.245Z" fill="#656C7A"/>
<path opacity="0.1" d="M142.855 351.984L744.138 288.786V289.766L142.855 352.964V351.984Z" fill="#343A45"/>
<path d="M582.254 274.445L556.353 277.168C550.222 277.812 545.252 283.599 545.252 290.093C545.252 296.587 550.222 301.329 556.353 300.684L582.254 297.962C588.385 297.318 593.355 291.531 593.355 285.037C593.355 278.543 588.385 273.801 582.254 274.445Z" fill="#27AE60"/>
<path d="M552.653 288.335C552.653 287.257 553.485 286.288 554.503 286.181L584.104 283.07C584.595 283.018 585.066 283.175 585.413 283.506C585.76 283.837 585.955 284.315 585.955 284.835V286.795C585.955 287.314 585.76 287.833 585.413 288.237C585.066 288.641 584.595 288.897 584.104 288.949L554.503 292.06C554.012 292.112 553.542 291.955 553.195 291.624C552.848 291.293 552.653 290.815 552.653 290.295V288.335Z" fill="#6FCF97"/>
<g opacity="0.3">
<path opacity="0.3" d="M632.207 283.893C633.74 283.732 634.982 282.285 634.982 280.662C634.982 279.038 633.74 277.853 632.207 278.014C630.674 278.175 629.432 279.622 629.432 281.245C629.432 282.869 630.674 284.054 632.207 283.893Z" fill="#27AE60"/>
<path opacity="0.3" d="M642.383 278.904C642.383 277.826 643.215 276.857 644.233 276.75L692.335 271.694C692.826 271.643 693.297 271.8 693.644 272.131C693.991 272.462 694.185 272.94 694.185 273.459V275.419C694.185 275.939 693.991 276.458 693.644 276.862C693.297 277.266 692.826 277.522 692.335 277.573L644.233 282.629C643.742 282.681 643.271 282.524 642.924 282.193C642.578 281.862 642.383 281.384 642.383 280.864V278.904Z" fill="#27AE60"/>
</g>
<path d="M153.03 330.337C153.03 329.259 153.863 328.29 154.88 328.183L236.285 319.627C236.776 319.575 237.246 319.732 237.593 320.064C237.94 320.395 238.135 320.873 238.135 321.392V323.352C238.135 323.872 237.94 324.391 237.593 324.795C237.246 325.199 236.776 325.455 236.285 325.506L154.88 334.062C154.39 334.114 153.919 333.957 153.572 333.626C153.225 333.295 153.03 332.817 153.03 332.297V330.337Z" fill="#17688D"/>
<path opacity="0.1" d="M341.741 310.503C341.741 309.425 342.573 308.456 343.591 308.349L402.794 302.126C403.285 302.075 403.755 302.232 404.102 302.563C404.449 302.894 404.644 303.372 404.644 303.891V305.851C404.644 306.371 404.449 306.89 404.102 307.294C403.755 307.698 403.285 307.954 402.794 308.005L343.591 314.228C343.1 314.279 342.63 314.122 342.283 313.791C341.936 313.46 341.741 312.982 341.741 312.463V310.503ZM447.197 299.419C447.197 298.341 448.029 297.372 449.047 297.265L508.25 291.042C508.741 290.991 509.211 291.148 509.558 291.479C509.905 291.81 510.1 292.288 510.1 292.808V294.767C510.1 295.287 509.905 295.806 509.558 296.21C509.211 296.614 508.741 296.87 508.25 296.922L449.047 303.144C448.556 303.196 448.085 303.039 447.738 302.708C447.391 302.376 447.197 301.899 447.197 301.379V299.419Z" fill="#656C7A"/>
<path opacity="0.1" d="M142.855 392.158L744.138 328.961V329.941L142.855 393.138V392.158Z" fill="#343A45"/>
<path d="M582.254 314.62L556.353 317.342C550.222 317.987 545.252 323.773 545.252 330.267C545.252 336.761 550.222 341.503 556.353 340.859L582.254 338.137C588.385 337.492 593.355 331.705 593.355 325.212C593.355 318.718 588.385 313.975 582.254 314.62Z" fill="#27AE60"/>
<path d="M552.653 328.51C552.653 327.432 553.485 326.462 554.503 326.355L584.104 323.244C584.595 323.193 585.066 323.35 585.413 323.681C585.76 324.012 585.955 324.49 585.955 325.009V326.969C585.955 327.489 585.76 328.008 585.413 328.412C585.066 328.816 584.595 329.072 584.104 329.123L554.503 332.235C554.012 332.286 553.542 332.129 553.195 331.798C552.848 331.467 552.653 330.989 552.653 330.469V328.51Z" fill="#6FCF97"/>
<g opacity="0.3">
<path opacity="0.3" d="M632.207 324.068C633.74 323.906 634.982 322.46 634.982 320.836C634.982 319.213 633.74 318.027 632.207 318.188C630.674 318.349 629.432 319.796 629.432 321.42C629.432 323.043 630.674 324.229 632.207 324.068Z" fill="#27AE60"/>
<path opacity="0.3" d="M642.383 319.079C642.383 318.001 643.215 317.031 644.233 316.924L692.335 311.869C692.826 311.817 693.297 311.974 693.644 312.305C693.991 312.636 694.185 313.114 694.185 313.634V315.594C694.185 316.113 693.991 316.632 693.644 317.036C693.297 317.44 692.826 317.696 692.335 317.748L644.233 322.804C643.742 322.855 643.271 322.698 642.924 322.367C642.578 322.036 642.383 321.558 642.383 321.038V319.079Z" fill="#27AE60"/>
</g>
<path d="M153.03 370.512C153.03 369.434 153.863 368.464 154.88 368.357L236.285 359.801C236.776 359.75 237.246 359.907 237.593 360.238C237.94 360.569 238.135 361.047 238.135 361.567V363.527C238.135 364.046 237.94 364.565 237.593 364.969C237.246 365.373 236.776 365.629 236.285 365.681L154.88 374.237C154.39 374.288 153.919 374.131 153.572 373.8C153.225 373.469 153.03 372.991 153.03 372.471V370.512Z" fill="#17688D"/>
<path opacity="0.1" d="M341.741 350.677C341.741 349.6 342.573 348.63 343.591 348.523L402.794 342.301C403.285 342.249 403.755 342.406 404.102 342.737C404.449 343.068 404.644 343.546 404.644 344.066V346.026C404.644 346.545 404.449 347.064 404.102 347.468C403.755 347.872 403.285 348.128 402.794 348.18L343.591 354.402C343.1 354.454 342.63 354.297 342.283 353.966C341.936 353.635 341.741 353.157 341.741 352.637V350.677ZM447.197 339.594C447.197 338.516 448.029 337.546 449.047 337.439L508.25 331.217C508.741 331.165 509.211 331.322 509.558 331.653C509.905 331.984 510.1 332.462 510.1 332.982V334.942C510.1 335.462 509.905 335.981 509.558 336.385C509.211 336.789 508.741 337.044 508.25 337.096L449.047 343.319C448.556 343.37 448.085 343.213 447.738 342.882C447.391 342.551 447.197 342.073 447.197 341.553V339.594Z" fill="#656C7A"/>
<path opacity="0.1" d="M142.855 432.333L744.138 369.135V370.115L142.855 433.313V432.333Z" fill="#343A45"/>
<path d="M582.254 354.794L556.353 357.517C550.222 358.161 545.252 363.948 545.252 370.442C545.252 376.936 550.222 381.678 556.353 381.033L582.254 378.311C588.385 377.667 593.355 371.88 593.355 365.386C593.355 358.892 588.385 354.15 582.254 354.794Z" fill="#27AE60"/>
<path d="M552.653 368.684C552.653 367.606 553.485 366.637 554.503 366.53L584.104 363.419C584.595 363.367 585.066 363.524 585.413 363.855C585.76 364.186 585.955 364.664 585.955 365.184V367.144C585.955 367.663 585.76 368.182 585.413 368.586C585.066 368.99 584.595 369.246 584.104 369.298L554.503 372.409C554.012 372.461 553.542 372.304 553.195 371.973C552.848 371.642 552.653 371.164 552.653 370.644V368.684Z" fill="#6FCF97"/>
<g opacity="0.3">
<path opacity="0.3" d="M632.207 364.242C633.74 364.081 634.982 362.634 634.982 361.011C634.982 359.387 633.74 358.202 632.207 358.363C630.674 358.524 629.432 359.971 629.432 361.594C629.432 363.218 630.674 364.403 632.207 364.242Z" fill="#27AE60"/>
<path opacity="0.3" d="M642.383 359.253C642.383 358.175 643.215 357.206 644.233 357.099L692.335 352.043C692.826 351.992 693.297 352.149 693.644 352.48C693.991 352.811 694.185 353.289 694.185 353.808V355.768C694.185 356.288 693.991 356.807 693.644 357.211C693.297 357.615 692.826 357.871 692.335 357.922L644.233 362.978C643.742 363.03 643.271 362.873 642.924 362.542C642.578 362.211 642.383 361.733 642.383 361.213V359.253Z" fill="#27AE60"/>
</g>
<path d="M153.03 410.686C153.03 409.608 153.863 408.639 154.88 408.532L236.285 399.976C236.776 399.924 237.246 400.081 237.593 400.412C237.94 400.744 238.135 401.222 238.135 401.741V403.701C238.135 404.221 237.94 404.74 237.593 405.144C237.246 405.548 236.776 405.804 236.285 405.855L154.88 414.411C154.39 414.463 153.919 414.306 153.572 413.975C153.225 413.644 153.03 413.166 153.03 412.646V410.686Z" fill="#17688D"/>
<path opacity="0.1" d="M341.741 390.852C341.741 389.774 342.573 388.805 343.591 388.698L402.794 382.475C403.285 382.424 403.755 382.581 404.102 382.912C404.449 383.243 404.644 383.721 404.644 384.24V386.2C404.644 386.72 404.449 387.239 404.102 387.643C403.755 388.047 403.285 388.303 402.794 388.354L343.591 394.577C343.1 394.628 342.63 394.471 342.283 394.14C341.936 393.809 341.741 393.331 341.741 392.812V390.852ZM447.197 379.768C447.197 378.69 448.029 377.721 449.047 377.614L508.25 371.391C508.741 371.34 509.211 371.497 509.558 371.828C509.905 372.159 510.1 372.637 510.1 373.157V375.116C510.1 375.636 509.905 376.155 509.558 376.559C509.211 376.963 508.741 377.219 508.25 377.27L449.047 383.493C448.556 383.545 448.085 383.388 447.738 383.057C447.391 382.725 447.197 382.247 447.197 381.728V379.768Z" fill="#656C7A"/>
<path opacity="0.1" d="M142.855 472.507L744.138 409.31V410.29L142.855 473.487V472.507Z" fill="#343A45"/>
<path d="M582.254 394.969L556.353 397.691C550.222 398.336 545.252 404.122 545.252 410.616C545.252 417.11 550.222 421.852 556.353 421.208L582.254 418.486C588.385 417.841 593.355 412.055 593.355 405.561C593.355 399.067 588.385 394.325 582.254 394.969Z" fill="#27AE60"/>
<path d="M552.653 408.859C552.653 407.781 553.485 406.811 554.503 406.704L584.104 403.593C584.595 403.542 585.066 403.699 585.413 404.03C585.76 404.361 585.955 404.839 585.955 405.358V407.318C585.955 407.838 585.76 408.357 585.413 408.761C585.066 409.165 584.595 409.421 584.104 409.472L554.503 412.584C554.012 412.635 553.542 412.478 553.195 412.147C552.848 411.816 552.653 411.338 552.653 410.818V408.859Z" fill="#6FCF97"/>
<g opacity="0.3">
<path opacity="0.3" d="M632.207 404.417C633.74 404.255 634.982 402.809 634.982 401.185C634.982 399.562 633.74 398.376 632.207 398.537C630.674 398.698 629.432 400.145 629.432 401.769C629.432 403.392 630.674 404.578 632.207 404.417Z" fill="#27AE60"/>
<path opacity="0.3" d="M642.383 399.428C642.383 398.35 643.215 397.38 644.233 397.273L692.335 392.218C692.826 392.166 693.297 392.323 693.644 392.654C693.991 392.985 694.185 393.463 694.185 393.983V395.943C694.185 396.462 693.991 396.981 693.644 397.385C693.297 397.789 692.826 398.045 692.335 398.097L644.233 403.153C643.742 403.204 643.271 403.047 642.924 402.716C642.578 402.385 642.383 401.907 642.383 401.387V399.428Z" fill="#27AE60"/>
</g>
<path d="M153.03 450.861C153.03 449.783 153.863 448.813 154.88 448.706L236.285 440.15C236.776 440.099 237.246 440.256 237.593 440.587C237.94 440.918 238.135 441.396 238.135 441.916V443.876C238.135 444.395 237.94 444.914 237.593 445.318C237.246 445.722 236.776 445.978 236.285 446.03L154.88 454.586C154.39 454.637 153.919 454.48 153.572 454.149C153.225 453.818 153.03 453.34 153.03 452.82V450.861Z" fill="#17688D"/>
<path opacity="0.1" d="M341.741 431.026C341.741 429.948 342.573 428.979 343.591 428.872L402.794 422.65C403.285 422.598 403.755 422.755 404.102 423.086C404.449 423.417 404.644 423.895 404.644 424.415V426.375C404.644 426.894 404.449 427.413 404.102 427.817C403.755 428.221 403.285 428.477 402.794 428.529L343.591 434.751C343.1 434.803 342.63 434.646 342.283 434.315C341.936 433.984 341.741 433.506 341.741 432.986V431.026ZM447.197 419.942C447.197 418.865 448.029 417.895 449.047 417.788L508.25 411.566C508.741 411.514 509.211 411.671 509.558 412.002C509.905 412.333 510.1 412.811 510.1 413.331V415.291C510.1 415.811 509.905 416.33 509.558 416.733C509.211 417.137 508.741 417.393 508.25 417.445L449.047 423.668C448.556 423.719 448.085 423.562 447.738 423.231C447.391 422.9 447.197 422.422 447.197 421.902V419.942Z" fill="#656C7A"/>
<path opacity="0.1" d="M142.855 512.682L744.138 449.484V450.464L142.855 513.662V512.682Z" fill="#343A45"/>
<path d="M582.254 435.143L556.353 437.866C550.222 438.51 545.252 444.297 545.252 450.791C545.252 457.285 550.222 462.027 556.353 461.382L582.254 458.66C588.385 458.016 593.355 452.229 593.355 445.735C593.355 439.241 588.385 434.499 582.254 435.143Z" fill="#27AE60"/>
<path d="M552.653 449.033C552.653 447.955 553.485 446.986 554.503 446.879L584.104 443.768C584.595 443.716 585.066 443.873 585.413 444.204C585.76 444.535 585.955 445.013 585.955 445.533V447.493C585.955 448.012 585.76 448.531 585.413 448.935C585.066 449.339 584.595 449.595 584.104 449.647L554.503 452.758C554.012 452.81 553.542 452.653 553.195 452.322C552.848 451.991 552.653 451.513 552.653 450.993V449.033Z" fill="#6FCF97"/>
<g opacity="0.3">
<path opacity="0.3" d="M632.207 444.591C633.74 444.43 634.982 442.983 634.982 441.36C634.982 439.736 633.74 438.551 632.207 438.712C630.674 438.873 629.432 440.32 629.432 441.943C629.432 443.567 630.674 444.752 632.207 444.591Z" fill="#27AE60"/>
<path opacity="0.3" d="M642.383 439.602C642.383 438.524 643.215 437.555 644.233 437.448L692.335 432.392C692.826 432.341 693.297 432.498 693.644 432.829C693.991 433.16 694.185 433.638 694.185 434.157V436.117C694.185 436.637 693.991 437.156 693.644 437.56C693.297 437.964 692.826 438.22 692.335 438.271L644.233 443.327C643.742 443.379 643.271 443.222 642.924 442.891C642.578 442.56 642.383 442.082 642.383 441.562V439.602Z" fill="#27AE60"/>
</g>
<path d="M153.03 491.035C153.03 489.957 153.863 488.988 154.88 488.881L236.285 480.325C236.776 480.273 237.246 480.43 237.593 480.761C237.94 481.093 238.135 481.571 238.135 482.09V484.05C238.135 484.57 237.94 485.089 237.593 485.493C237.246 485.897 236.776 486.153 236.285 486.204L154.88 494.76C154.39 494.812 153.919 494.655 153.572 494.324C153.225 493.993 153.03 493.515 153.03 492.995V491.035Z" fill="#17688D"/>
<path opacity="0.1" d="M341.741 471.201C341.741 470.123 342.573 469.154 343.591 469.047L402.794 462.824C403.285 462.773 403.755 462.93 404.102 463.261C404.449 463.592 404.644 464.07 404.644 464.589V466.549C404.644 467.069 404.449 467.588 404.102 467.992C403.755 468.396 403.285 468.652 402.794 468.703L343.591 474.926C343.1 474.977 342.63 474.82 342.283 474.489C341.936 474.158 341.741 473.68 341.741 473.161V471.201ZM447.197 460.117C447.197 459.039 448.029 458.07 449.047 457.963L508.25 451.74C508.741 451.689 509.211 451.846 509.558 452.177C509.905 452.508 510.1 452.986 510.1 453.506V455.465C510.1 455.985 509.905 456.504 509.558 456.908C509.211 457.312 508.741 457.568 508.25 457.619L449.047 463.842C448.556 463.894 448.085 463.737 447.738 463.406C447.391 463.074 447.197 462.596 447.197 462.077V460.117Z" fill="#656C7A"/>
<path opacity="0.1" d="M142.855 552.856L744.138 489.659V490.639L142.855 553.836V552.856Z" fill="#343A45"/>
<path d="M582.254 475.318L556.353 478.04C550.222 478.685 545.252 484.471 545.252 490.965C545.252 497.459 550.222 502.201 556.353 501.557L582.254 498.835C588.385 498.19 593.355 492.404 593.355 485.91C593.355 479.416 588.385 474.674 582.254 475.318Z" fill="#27AE60"/>
<path d="M552.653 489.208C552.653 488.13 553.485 487.16 554.503 487.053L584.104 483.942C584.595 483.891 585.066 484.048 585.413 484.379C585.76 484.71 585.955 485.188 585.955 485.707V487.667C585.955 488.187 585.76 488.706 585.413 489.11C585.066 489.514 584.595 489.77 584.104 489.821L554.503 492.933C554.012 492.984 553.542 492.827 553.195 492.496C552.848 492.165 552.653 491.687 552.653 491.167V489.208Z" fill="#6FCF97"/>
<g opacity="0.3">
<path opacity="0.3" d="M632.207 484.766C633.74 484.604 634.982 483.158 634.982 481.534C634.982 479.911 633.74 478.725 632.207 478.886C630.674 479.047 629.432 480.494 629.432 482.118C629.432 483.741 630.674 484.927 632.207 484.766Z" fill="#27AE60"/>
<path opacity="0.3" d="M642.383 479.777C642.383 478.699 643.215 477.729 644.233 477.622L692.335 472.567C692.826 472.515 693.297 472.672 693.644 473.003C693.991 473.334 694.185 473.812 694.185 474.332V476.292C694.185 476.811 693.991 477.33 693.644 477.734C693.297 478.138 692.826 478.394 692.335 478.446L644.233 483.502C643.742 483.553 643.271 483.396 642.924 483.065C642.578 482.734 642.383 482.256 642.383 481.736V479.777Z" fill="#27AE60"/>
</g>
<path d="M153.03 531.21C153.03 530.132 153.863 529.162 154.88 529.055L236.285 520.499C236.776 520.448 237.246 520.605 237.593 520.936C237.94 521.267 238.135 521.745 238.135 522.265V524.225C238.135 524.744 237.94 525.263 237.593 525.667C237.246 526.071 236.776 526.327 236.285 526.379L154.88 534.935C154.39 534.986 153.919 534.829 153.572 534.498C153.225 534.167 153.03 533.689 153.03 533.169V531.21Z" fill="#17688D"/>
<path opacity="0.1" d="M341.741 511.375C341.741 510.297 342.573 509.328 343.591 509.221L402.794 502.999C403.285 502.947 403.755 503.104 404.102 503.435C404.449 503.766 404.644 504.244 404.644 504.764V506.724C404.644 507.243 404.449 507.762 404.102 508.166C403.755 508.57 403.285 508.826 402.794 508.878L343.591 515.1C343.1 515.152 342.63 514.995 342.283 514.664C341.936 514.333 341.741 513.855 341.741 513.335V511.375ZM447.197 500.291C447.197 499.214 448.029 498.244 449.047 498.137L508.25 491.915C508.741 491.863 509.211 492.02 509.558 492.351C509.905 492.682 510.1 493.16 510.1 493.68V495.64C510.1 496.16 509.905 496.679 509.558 497.082C509.211 497.486 508.741 497.742 508.25 497.794L449.047 504.016C448.556 504.068 448.085 503.911 447.738 503.58C447.391 503.249 447.197 502.771 447.197 502.251V500.291Z" fill="#656C7A"/>
<path d="M582.254 515.492L556.353 518.215C550.222 518.859 545.252 524.646 545.252 531.14C545.252 537.634 550.222 542.376 556.353 541.731L582.254 539.009C588.385 538.365 593.355 532.578 593.355 526.084C593.355 519.59 588.385 514.848 582.254 515.492Z" fill="#27AE60"/>
<path d="M552.653 529.382C552.653 528.304 553.485 527.335 554.503 527.228L584.104 524.117C584.595 524.065 585.066 524.222 585.413 524.553C585.76 524.884 585.955 525.362 585.955 525.882V527.842C585.955 528.361 585.76 528.88 585.413 529.284C585.066 529.688 584.595 529.944 584.104 529.996L554.503 533.107C554.012 533.159 553.542 533.002 553.195 532.671C552.848 532.34 552.653 531.862 552.653 531.342V529.382Z" fill="#6FCF97"/>
<g opacity="0.3">
<path opacity="0.3" d="M632.207 524.94C633.74 524.779 634.982 523.332 634.982 521.709C634.982 520.085 633.74 518.9 632.207 519.061C630.674 519.222 629.432 520.669 629.432 522.292C629.432 523.916 630.674 525.101 632.207 524.94Z" fill="#27AE60"/>
<path opacity="0.3" d="M642.383 519.951C642.383 518.873 643.215 517.904 644.233 517.797L692.335 512.741C692.826 512.69 693.297 512.847 693.644 513.178C693.991 513.509 694.185 513.987 694.185 514.506V516.466C694.185 516.986 693.991 517.505 693.644 517.909C693.297 518.313 692.826 518.569 692.335 518.62L644.233 523.676C643.742 523.728 643.271 523.571 642.924 523.24C642.578 522.909 642.383 522.431 642.383 521.911V519.951Z" fill="#27AE60"/>
</g>
<path d="M153.03 571.384C153.03 570.306 153.863 569.337 154.88 569.23L236.285 560.674C236.776 560.622 237.246 560.779 237.593 561.111C237.94 561.442 238.135 561.92 238.135 562.439V564.399C238.135 564.919 237.94 565.438 237.593 565.842C237.246 566.246 236.776 566.502 236.285 566.553L154.88 575.109C154.39 575.161 153.919 575.004 153.572 574.673C153.225 574.342 153.03 573.864 153.03 573.344V571.384Z" fill="#17688D"/>
<path d="M341.741 551.55C341.741 550.472 342.573 549.503 343.591 549.396L402.794 543.173C403.285 543.122 403.755 543.279 404.102 543.61C404.449 543.941 404.644 544.419 404.644 544.938V546.898C404.644 547.418 404.449 547.937 404.102 548.341C403.755 548.745 403.285 549.001 402.794 549.052L343.591 555.275C343.1 555.326 342.63 555.169 342.283 554.838C341.936 554.507 341.741 554.029 341.741 553.51V551.55ZM447.197 540.466C447.197 539.388 448.029 538.419 449.047 538.312L508.25 532.089C508.741 532.038 509.211 532.195 509.558 532.526C509.905 532.857 510.1 533.335 510.1 533.855V535.814C510.1 536.334 509.905 536.853 509.558 537.257C509.211 537.661 508.741 537.917 508.25 537.968L449.047 544.191C448.556 544.243 448.085 544.086 447.738 543.754C447.391 543.423 447.197 542.945 447.197 542.426V540.466Z" fill="#656C7A"/>
</g>
<path d="M18.9893 152.034C17.6191 149.773 17.6191 146.836 18.9893 144.287L23.0354 136.76C24.4518 134.125 27.1155 132.306 30.0038 132.003L37.7446 131.189C40.6328 130.885 43.2967 132.144 44.7132 134.482L48.7589 141.158C50.1288 143.419 50.1288 146.356 48.7589 148.905L44.7132 156.432C43.2967 159.067 40.633 160.885 37.7446 161.189L30.0038 162.003C27.1155 162.306 24.4518 161.048 23.0354 158.71L18.9893 152.034Z" fill="#176589"/>
<path d="M33.377 136.648L33.3768 136.648C33.2634 136.66 33.1547 136.717 33.0747 136.805C33.0727 136.808 33.0707 136.81 33.0688 136.812C32.1147 137.907 29.8958 140.729 29.8959 143.285C29.8959 144.445 30.009 144.924 30.257 145.973C30.4355 146.728 30.6801 147.763 31.0065 149.545C31.0432 149.745 31.2204 149.875 31.4274 149.853L35.3261 149.443C35.443 149.431 35.5506 149.372 35.6286 149.286C35.6885 149.22 35.7309 149.137 35.7469 149.047C36.0736 147.195 36.3181 146.11 36.4963 145.317C36.7444 144.216 36.8575 143.713 36.8575 142.553C36.8575 139.993 34.6389 137.64 33.6849 136.747C33.6044 136.672 33.4932 136.636 33.377 136.648Z" fill="#F8FFF9"/>
<path d="M36.8757 148.598L37.4059 146.225C37.4059 146.225 38.7156 148.674 38.8466 150.073C37.8566 149.038 38.0082 149.229 36.8757 148.598C36.8103 148.562 36.9485 148.618 36.8757 148.598Z" fill="#F8FFF9"/>
<path d="M36.8757 148.598L37.4057 146.225C37.4057 146.225 38.7158 148.674 38.8466 150.073C37.8565 149.038 38.0081 149.229 36.8757 148.598C36.8103 148.562 36.9484 148.618 36.8757 148.598Z" fill="#F8FFF9"/>
<path d="M36.8757 148.598L37.4057 146.225C37.4057 146.225 38.7156 148.674 38.8466 150.073C37.8565 149.038 38.0081 149.229 36.8757 148.598C36.8103 148.562 36.9484 148.618 36.8757 148.598Z" fill="#F8FFF9"/>
<path d="M36.8757 148.598L37.4059 146.225C37.4059 146.225 38.7156 148.674 38.8466 150.073C37.8566 149.038 38.0082 149.229 36.8757 148.598C36.8103 148.562 36.9485 148.618 36.8757 148.598Z" fill="#F8FFF9"/>
<path d="M29.8868 149.333L29.6217 147.043C29.6217 147.043 28.9668 149.699 28.9014 151.118C29.3964 149.927 29.3206 150.142 29.8868 149.333C29.9195 149.286 29.8504 149.364 29.8868 149.333Z" fill="#F8FFF9"/>
<path d="M29.8868 149.333L29.6218 147.043C29.6218 147.043 28.9668 149.699 28.9014 151.118C29.3964 149.927 29.3206 150.142 29.8868 149.333C29.9195 149.286 29.8504 149.364 29.8868 149.333Z" fill="#F8FFF9"/>
<path d="M29.8868 149.333L29.6218 147.043C29.6218 147.043 28.9668 149.699 28.9014 151.118C29.3964 149.927 29.3206 150.142 29.8868 149.333C29.9195 149.286 29.8504 149.364 29.8868 149.333Z" fill="#F8FFF9"/>
<path d="M29.8868 149.333L29.6218 147.043C29.6218 147.043 28.9668 149.699 28.9014 151.118C29.3964 149.927 29.3206 150.142 29.8868 149.333C29.9195 149.286 29.8504 149.364 29.8868 149.333Z" fill="#F8FFF9"/>
<path d="M34.657 150.588C34.5909 150.74 34.5296 150.893 34.4539 151.042C34.252 151.442 34.008 151.823 33.7349 152.188C33.6204 152.341 33.5019 152.494 33.3779 152.641C33.3626 152.626 33.3472 152.611 33.3321 152.596C33.0369 152.3 32.7649 151.983 32.53 151.64C32.4165 151.475 32.3178 151.302 32.2229 151.125C32.1639 151.016 32.1169 150.901 32.0703 150.785L31.9283 150.801C31.8764 151.053 31.8731 151.307 31.9082 151.553C31.9602 151.919 32.0854 152.264 32.2632 152.581C32.454 152.92 32.7011 153.233 32.9962 153.494C33.0376 153.531 33.0783 153.57 33.1274 153.599C33.1906 153.635 33.2665 153.653 33.3446 153.65C33.4219 153.648 33.5003 153.625 33.5693 153.585C33.6272 153.551 33.6715 153.505 33.7165 153.458C33.9903 153.169 34.2227 152.838 34.4084 152.499C34.7482 151.878 34.966 151.147 34.8251 150.496L34.6868 150.511C34.6772 150.537 34.6674 150.562 34.657 150.588Z" fill="#F8FFF9"/>
<path d="M27.1623 140.064L26.5491 139.762L22.4123 147.607L23.0255 147.908L27.1623 140.064Z" fill="#F8FFF9"/>
<path d="M22.4058 147.62L23.019 147.19L27.1754 154.198L26.5621 154.628L22.4058 147.62Z" fill="#F8FFF9"/>
<path d="M40.1784 138.696L40.7916 138.265L44.9284 145.24L44.3152 145.671L40.1784 138.696Z" fill="#F8FFF9"/>
<path d="M44.9351 145.252L44.3218 144.951L40.1654 152.832L40.7787 153.134L44.9351 145.252Z" fill="#F8FFF9"/>
<defs>
<filter id="filter0_d" x="0.502686" y="0.892822" width="796.334" height="629.825" filterUnits="userSpaceOnUse" color-interpolation-filters="sRGB">
<feFlood flood-opacity="0" result="BackgroundImageFix"/>
<feColorMatrix in="SourceAlpha" type="matrix" values="0 0 0 0 0 0 0 0 0 0 0 0 0 0 0 0 0 0 127 0" result="hardAlpha"/>
<feOffset dx="10" dy="10"/>
<feGaussianBlur stdDeviation="10"/>
<feComposite in2="hardAlpha" operator="out"/>
<feColorMatrix type="matrix" values="0 0 0 0 0 0 0 0 0 0 0 0 0 0 0 0 0 0 0.25 0"/>
<feBlend mode="normal" in2="BackgroundImageFix" result="effect1_dropShadow"/>
<feBlend mode="normal" in="SourceGraphic" in2="effect1_dropShadow" result="shape"/>
</filter>
</defs>
</svg>
