<svg width="8903" height="6350" viewBox="0 0 8903 6350" fill="none" xmlns="http://www.w3.org/2000/svg">
<g clip-path="url(#clip0)">
<path opacity="0.21" d="M5094.43 1039.86C4540.18 1044.09 4007.79 918.84 3498.66 779.26C2989.53 639.68 2484.55 482.947 1941.19 418.953C1591.7 377.596 1193.95 384.097 919.175 544.277C654.819 698.269 576.648 950.641 538.033 1183.59C508.973 1358.88 494.796 1542.8 597.092 1702.35C668.135 1813.03 790.482 1903.89 876.564 2009.32C1176.25 2376.2 990.453 2848.28 693.278 3227.39C554.089 3404.96 391.168 3575.87 285.112 3763.85C179.057 3951.84 134.88 4164.19 239.761 4348.18C343.78 4530.6 580.799 4661.96 835.677 4751.17C1353.42 4932.42 1957.09 4968.14 2545.02 4979.66C3846.36 5005.03 5151.06 4927.65 6452.16 4850.34C6933.72 4821.75 7417.39 4792.92 7889.31 4716.01C8151.4 4673.32 8421.39 4610.81 8607.97 4476.32C8844.83 4305.57 8895.27 4028.91 8725.46 3831.37C8440.58 3500.13 7683.7 3442.24 7480.05 3083.11C7367.96 2885.41 7467.75 2657.24 7613.21 2465.03C7926.05 2052.63 8461.81 1681.75 8474.42 1222.52C8483.11 907.247 8208.11 601.534 7795.48 467.202C7362.79 326.213 6771.11 367.021 6465.16 636.547C6150.6 913.592 5583.98 1036.17 5094.43 1039.86Z" fill="#17688D"/>
<path d="M7276.4 4315.3C7276.4 4315.3 7180.13 4251.78 7084.73 4296.9C7084.73 4296.9 7114.1 4353.53 7234.89 4348.12L7276.4 4315.3Z" fill="#17688D"/>
<path d="M7288.23 4318.67C7288.23 4318.67 7317.52 4430.21 7244.13 4506.11C7244.13 4506.11 7199.95 4460.13 7243.74 4347.49L7288.23 4318.67Z" fill="#17688D"/>
<path d="M7408.3 4211.6C7408.3 4211.6 7401.17 4116.74 7186.95 4148.15C7186.95 4148.15 7186.01 4209.4 7261.2 4238.39C7336.4 4267.37 7370.78 4242.93 7408.3 4211.6Z" fill="#17688D"/>
<path d="M7421.46 4210.97C7421.46 4210.97 7512.01 4240.03 7431.25 4440.94C7431.25 4440.94 7371.57 4427.62 7360.76 4347.65C7349.95 4267.68 7382.22 4240.03 7421.46 4210.97Z" fill="#17688D"/>
<path d="M7542.71 4076.33C7542.71 4076.33 7555.01 3920.22 7336.08 3936.28C7336.08 3936.28 7320.42 4077.27 7504.1 4113.92L7542.71 4076.33Z" fill="#17688D"/>
<path d="M7687.07 3900.17C7687.07 3900.17 7657.07 3723.22 7438.3 3775.94C7438.3 3775.94 7437.44 3928.91 7651.35 3942.31L7687.07 3900.17Z" fill="#17688D"/>
<path d="M7793.13 3717.98C7793.13 3717.98 7742.84 3545.66 7526.03 3597.2C7526.03 3597.2 7577.65 3752.21 7778.71 3749.78L7793.13 3717.98Z" fill="#17688D"/>
<path d="M7893.54 3540.02C7893.54 3540.02 7844.43 3361.19 7635.06 3414.69C7635.06 3414.69 7704.93 3584.58 7879.68 3570.33L7893.54 3540.02Z" fill="#17688D"/>
<path d="M7958.32 3370.98C7958.32 3370.98 7920.57 3152.29 7725.37 3200.7C7725.37 3200.7 7782 3399.65 7943.91 3402.79L7958.32 3370.98Z" fill="#17688D"/>
<path d="M8018.95 3166.78C8018.95 3166.78 7973.67 2946.29 7776.13 3010.13C7776.13 3010.13 7853.6 3218.48 8005 3196.94L8018.95 3166.78Z" fill="#17688D"/>
<path d="M8056.54 2976.68C8056.54 2976.68 7984.56 2756.27 7831.9 2762.22C7831.9 2762.22 7905.53 2995.09 8043.38 3020.7L8056.54 2976.68Z" fill="#17688D"/>
<path d="M8080.43 2791.28C8080.43 2791.28 8002.1 2525.91 7877.8 2546.35C7877.8 2546.35 7932.08 2749.22 8075.97 2832.64L8080.43 2791.28Z" fill="#17688D"/>
<path d="M8094.37 2569.77C8094.37 2569.77 8020.98 2348.65 7898.56 2339.8C7898.56 2339.8 7948.45 2557.4 8091.87 2627.19L8094.37 2569.77Z" fill="#17688D"/>
<path d="M8108.79 2363.93C8108.79 2363.93 8017.22 2142.57 7936.47 2137.56C7936.47 2137.56 7976.26 2355.55 8100.95 2400.27L8108.79 2363.93Z" fill="#17688D"/>
<path d="M8118.97 2171.48C8118.97 2171.48 8062.73 1931.01 7981.74 1911.12C7981.74 1911.12 7992.78 2107.8 8110.82 2189.49L8118.97 2171.48Z" fill="#17688D"/>
<path d="M8149.2 1920.12C8149.2 1920.12 8089.99 1728.53 8024.43 1699.32C8024.43 1699.32 8037.43 1925.21 8134.09 1967.04L8149.2 1920.12Z" fill="#17688D"/>
<path d="M8174.74 1755.09L8186.72 1417.18C8186.72 1417.18 8064.38 1672.22 8165.73 1814.69L8174.74 1755.09Z" fill="#17688D"/>
<path d="M8269.44 1419.3C8269.44 1419.3 8357.63 1172.56 8379.1 1158.78C8379.1 1158.78 8205.99 1318.88 8222.91 1524.8L8269.44 1419.3Z" fill="#17688D"/>
<path d="M7548.74 4075.23C7548.74 4075.23 7703.99 4054.86 7699.29 4274.34C7699.29 4274.34 7559.01 4297.13 7513.26 4115.72L7548.74 4075.23Z" fill="#17688D"/>
<path d="M7694.9 3894.21C7694.9 3894.21 7874.35 3893.67 7859.39 4118.23C7859.39 4118.23 7708.85 4145.1 7659.11 3936.67L7694.9 3894.21Z" fill="#17688D"/>
<path d="M7794.85 3732.47C7794.85 3732.47 7957.69 3656.1 8061.95 3853.25C8061.95 3853.25 7911.48 3916.85 7780.52 3764.35L7794.85 3732.47Z" fill="#17688D"/>
<path d="M7897.15 3541.66C7897.15 3541.66 8063.91 3460.44 8161.81 3652.96C8161.81 3652.96 7988.16 3712.81 7883.44 3572.13L7897.15 3541.66Z" fill="#17688D"/>
<path d="M7956.13 3375.76C7956.13 3375.76 8116.62 3222.4 8244.76 3377.49C8244.76 3377.49 8080.75 3503.59 7948.76 3409.91L7956.13 3375.76Z" fill="#17688D"/>
<path d="M8009.86 3161.54C8009.86 3161.54 8171.37 3004.88 8298.42 3168.74C8298.42 3168.74 8117.17 3297.44 8004.14 3194.43L8009.86 3161.54Z" fill="#17688D"/>
<path d="M8040.09 2970.42C8040.09 2970.42 8164.48 2774.6 8310.87 2818.38C8310.87 2818.38 8181.87 3025.72 8041.42 3016.47L8040.09 2970.42Z" fill="#17688D"/>
<path d="M8076.75 2790.03C8076.75 2790.03 8202.08 2543.38 8320.58 2586.38C8320.58 2586.38 8230.27 2775.93 8073.54 2831.62L8076.75 2790.03Z" fill="#17688D"/>
<path d="M8085.37 2557.16C8085.37 2557.16 8214.21 2363.07 8334.92 2386.72C8334.92 2386.72 8229.57 2583.56 8072.91 2613.32L8085.37 2557.16Z" fill="#17688D"/>
<path d="M8095.16 2359.15C8095.16 2359.15 8195.03 2141.4 8276.25 2139.83C8276.25 2139.83 8228.24 2356.09 8101.89 2396.12L8095.16 2359.15Z" fill="#17688D"/>
<path d="M8114.98 2166.78C8114.98 2166.78 8225.96 1946.13 8309.38 1945.74C8309.38 1945.74 8252.6 2134.35 8118.66 2186.12L8114.98 2166.78Z" fill="#17688D"/>
<path d="M8131.66 1933.67C8131.66 1933.67 8214.69 1751.17 8283.46 1730.49C8283.46 1730.49 8241.94 1952.94 8140.82 1982.08L8131.66 1933.67Z" fill="#17688D"/>
<path d="M8184.61 1748.66L8370.17 1466.06C8370.17 1466.06 8322.62 1744.9 8157.58 1802.87L8184.61 1748.66Z" fill="#17688D"/>
<path d="M8311.97 1442.01C8311.97 1442.01 8527.68 1293.19 8535.44 1269.06C8535.44 1269.06 8425.78 1477.57 8222.13 1514.39L8311.97 1442.01Z" fill="#17688D"/>
<path d="M8324.89 1375.04C8324.89 1375.04 8572.49 1137.08 8635.7 1137.32C8635.7 1137.32 8431.5 1146.64 8318.94 1362.43L8324.89 1375.04Z" fill="#17688D"/>
<path d="M8134.09 1969L8143.09 1970.17C8189.62 1605.95 8257.45 1390.55 8334.13 1364.15L8331.16 1355.54C8249.86 1383.74 8181.71 1595.85 8134.09 1969Z" fill="#444053"/>
<path d="M8065.71 2839.77L8079.34 2840.94C8082.16 2806.95 8084.35 2772.09 8085.84 2737.47C8098.84 2436.07 8118.97 2159.26 8145.52 1951.77L8137.69 1941.98C8111.14 2149.86 8085.29 2435.05 8072.29 2736.92C8070.88 2771.23 8068.53 2806.01 8065.71 2839.77Z" fill="#444053"/>
<path d="M7022.15 4488.64C7024.58 4487.62 7264.49 4380.47 7513.5 4124.89C7659.36 3975.23 7780.58 3803.38 7872.63 3615.76C7987.69 3381.32 8057.87 3093.24 8081.45 2813.37L8067.19 2820.03C8014.4 3448.22 7728.35 3877.45 7500.96 4111.26C7254.39 4364.49 7017.21 4470.55 7014.86 4471.57L7022.15 4488.64Z" fill="#444053"/>
<path opacity="0.24" d="M7596.6 244.304V4304.96C7596.6 4425.67 7480.13 4524.28 7336.32 4524.28H1826.99C1683.18 4524.28 1566.71 4426.06 1566.71 4304.96V244.304C1566.71 123.366 1683.18 0.000213623 1826.99 0.000213623L7336.01 13.3942C7479.81 13.3943 7596.6 123.758 7596.6 244.304Z" fill="white"/>
<path d="M7596.6 245.557V433.543H1566.71V245.557C1566.71 213.29 1573.07 181.34 1585.42 151.532C1597.78 121.725 1615.89 94.6441 1638.71 71.839C1661.54 49.0338 1688.64 30.9511 1718.46 18.6245C1748.28 6.29796 1780.23 -0.0307695 1812.5 0.000112476H7351.12C7416.24 0.0208269 7478.67 25.9011 7524.71 71.9497C7570.74 117.998 7596.6 180.445 7596.6 245.557V245.557Z" fill="#3F3D56"/>
<path opacity="0.8" d="M1858.87 303.52C1906.8 303.52 1945.66 264.664 1945.66 216.733C1945.66 168.802 1906.8 129.946 1858.87 129.946C1810.94 129.946 1772.08 168.802 1772.08 216.733C1772.08 264.664 1810.94 303.52 1858.87 303.52Z" fill="#FA5959"/>
<path opacity="0.8" d="M2111.32 303.52C2159.25 303.52 2198.11 264.664 2198.11 216.733C2198.11 168.802 2159.25 129.946 2111.32 129.946C2063.39 129.946 2024.53 168.802 2024.53 216.733C2024.53 264.664 2063.39 303.52 2111.32 303.52Z" fill="#FED253"/>
<path opacity="0.8" d="M2363.77 303.52C2411.7 303.52 2450.56 264.664 2450.56 216.733C2450.56 168.802 2411.7 129.946 2363.77 129.946C2315.84 129.946 2276.98 168.802 2276.98 216.733C2276.98 264.664 2315.84 303.52 2363.77 303.52Z" fill="#8CCF4D"/>
<path d="M5117.93 1486.66V1925.29C5117.93 1938.37 5093.41 1948.79 5063.1 1948.79H3906.04C3875.81 1948.79 3851.21 1938.22 3851.21 1925.29V1486.66C3851.21 1473.58 3875.65 1460.26 3906.04 1460.26H5063.1C5093.49 1460.18 5117.93 1473.5 5117.93 1486.66Z" fill="#C1D5FF"/>
<path d="M5010.07 1616.84H4407.26V1638.14H5010.07V1616.84Z" fill="#17688D"/>
<path opacity="0.2" d="M4102.25 1570.16C4071.54 1570.17 4041.64 1580.08 4017 1598.42C3992.36 1616.75 3974.28 1642.54 3965.44 1671.96C3956.59 1701.37 3957.46 1732.85 3967.91 1761.74C3978.36 1790.62 3997.84 1815.37 4023.45 1832.32V1822.84C4023.47 1814.91 4026.39 1807.26 4031.65 1801.33C4036.92 1795.4 4044.17 1791.6 4052.04 1790.65C4056.93 1799.57 4064.12 1807.01 4072.88 1812.2C4081.63 1817.38 4091.61 1820.12 4101.78 1820.12C4111.95 1820.12 4121.94 1817.38 4130.69 1812.2C4139.44 1807.01 4146.63 1799.57 4151.52 1790.65C4159.39 1791.6 4166.64 1795.4 4171.91 1801.33C4177.17 1807.26 4180.09 1814.91 4180.11 1822.84V1832.94C4205.94 1816.15 4225.66 1791.45 4236.31 1762.54C4246.97 1733.62 4248 1702.04 4239.24 1672.5C4230.49 1642.95 4212.42 1617.03 4187.74 1598.58C4163.05 1580.14 4133.07 1570.17 4102.25 1570.16V1570.16ZM4158.33 1751.41C4157.41 1765.76 4151.05 1779.23 4140.55 1789.07C4130.06 1798.91 4116.21 1804.39 4101.82 1804.39C4087.43 1804.39 4073.58 1798.91 4063.09 1789.07C4052.59 1779.23 4046.23 1765.76 4045.31 1751.41C4041.84 1743.84 4039.93 1735.64 4039.69 1727.32C4039.45 1719 4040.89 1710.71 4043.93 1702.95C4046.96 1695.2 4051.52 1688.13 4057.35 1682.18C4063.17 1676.23 4070.13 1671.51 4077.81 1668.3C4075.85 1665.24 4074.79 1661.68 4074.76 1658.04C4074.76 1655.55 4075.25 1653.09 4076.2 1650.8C4077.16 1648.5 4078.55 1646.42 4080.32 1644.66C4082.08 1642.91 4084.17 1641.52 4086.47 1640.58C4088.77 1639.63 4091.23 1639.15 4093.71 1639.16H4095.05C4090.29 1639.5 4085.83 1641.62 4082.58 1645.11C4079.32 1648.6 4077.51 1653.19 4077.5 1657.96C4077.51 1661.26 4078.37 1664.5 4080.01 1667.36H4080.56C4080.44 1666.11 4080.44 1664.85 4080.56 1663.6C4080.55 1659.65 4081.81 1655.81 4084.16 1652.63C4085.33 1648.78 4087.72 1645.4 4090.97 1643C4094.21 1640.6 4098.14 1639.31 4102.17 1639.32H4103.5C4100.61 1639.52 4097.8 1640.38 4095.3 1641.85C4092.8 1643.32 4090.68 1645.35 4089.09 1647.78C4092.17 1645.7 4095.8 1644.61 4099.51 1644.64C4104.52 1644.64 4109.32 1646.63 4112.86 1650.17C4116.4 1653.71 4118.39 1658.52 4118.39 1663.52C4118.43 1664.23 4118.43 1664.93 4118.39 1665.64C4131.6 1669.17 4143.27 1676.97 4151.6 1687.82C4159.93 1698.67 4164.44 1711.96 4164.44 1725.64C4164.25 1734.56 4162.17 1743.34 4158.33 1751.41V1751.41Z" fill="#17688D"/>
<path opacity="0.2" d="M5010.07 1668.69H4407.26V1690H5010.07V1668.69Z" fill="#17688D"/>
<path opacity="0.2" d="M5010.07 1720.54H4407.26V1741.85H5010.07V1720.54Z" fill="#17688D"/>
<path opacity="0.2" d="M5010.07 1772.48H4407.26V1793.78H5010.07V1772.48Z" fill="#17688D"/>
<path d="M3766.77 2345.68V2784.31C3766.77 2797.31 3742.33 2807.81 3711.94 2807.81H2554.88C2524.65 2807.81 2500.05 2797.16 2500.05 2784.31V2345.68C2500.05 2332.6 2524.49 2319.28 2554.88 2319.28H3712.09C3742.33 2319.28 3766.77 2332.6 3766.77 2345.68Z" fill="#C1D5FF"/>
<path d="M3651.71 2475.94H3048.9V2497.24H3651.71V2475.94Z" fill="#17688D"/>
<path opacity="0.2" d="M2743.97 2429.17C2713.23 2429.17 2683.31 2439.07 2658.65 2457.41C2633.98 2475.75 2615.88 2501.55 2607.03 2530.99C2598.19 2560.42 2599.07 2591.93 2609.54 2620.83C2620.01 2649.73 2639.52 2674.48 2665.18 2691.41V2681.86C2665.2 2673.94 2668.12 2666.3 2673.38 2660.38C2678.65 2654.47 2685.9 2650.68 2693.76 2649.74C2698.65 2658.67 2705.85 2666.11 2714.6 2671.29C2723.35 2676.48 2733.33 2679.21 2743.5 2679.21C2753.67 2679.21 2763.66 2676.48 2772.41 2671.29C2781.16 2666.11 2788.35 2658.67 2793.24 2649.74C2801.11 2650.68 2808.36 2654.47 2813.62 2660.38C2818.89 2666.3 2821.81 2673.94 2821.83 2681.86V2692.04C2847.7 2675.26 2867.45 2650.56 2878.13 2621.63C2888.81 2592.7 2889.85 2561.09 2881.09 2531.53C2872.33 2501.96 2854.25 2476.02 2829.54 2457.57C2804.82 2439.12 2774.81 2429.16 2743.97 2429.17V2429.17ZM2799.98 2610.42C2799.05 2624.78 2792.69 2638.25 2782.2 2648.09C2771.7 2657.93 2757.85 2663.41 2743.46 2663.41C2729.08 2663.41 2715.23 2657.93 2704.73 2648.09C2694.23 2638.25 2687.88 2624.78 2686.95 2610.42C2683.29 2602.33 2681.39 2593.54 2681.39 2584.65C2681.39 2572.41 2685 2560.44 2691.77 2550.24C2698.54 2540.04 2708.17 2532.07 2719.46 2527.32C2717.5 2524.28 2716.47 2520.75 2716.48 2517.14C2716.48 2512.12 2718.47 2507.31 2722 2503.76C2725.54 2500.21 2730.34 2498.2 2735.36 2498.18H2736.77C2733.58 2498.4 2730.49 2499.42 2727.8 2501.15C2725.12 2502.89 2722.91 2505.28 2721.4 2508.1C2719.89 2510.91 2719.12 2514.07 2719.16 2517.27C2719.21 2520.47 2720.06 2523.6 2721.65 2526.38H2722.28C2722.16 2525.15 2722.16 2523.92 2722.28 2522.7C2722.85 2516.88 2725.25 2511.38 2729.13 2507.01C2733.01 2502.63 2738.18 2499.6 2743.89 2498.34H2744.6C2741.71 2498.55 2738.91 2499.43 2736.41 2500.89C2733.91 2502.36 2731.78 2504.38 2730.19 2506.8C2733.25 2504.76 2736.85 2503.67 2740.53 2503.66C2745.55 2503.66 2750.37 2505.66 2753.93 2509.22C2757.48 2512.77 2759.48 2517.59 2759.48 2522.62C2759.52 2523.32 2759.52 2524.03 2759.48 2524.73C2768.26 2527.05 2776.42 2531.26 2783.39 2537.07C2790.36 2542.88 2795.97 2550.16 2799.82 2558.37C2803.67 2566.59 2805.68 2575.55 2805.69 2584.62C2805.71 2593.7 2803.73 2602.67 2799.9 2610.89L2799.98 2610.42Z" fill="#17688D"/>
<path opacity="0.2" d="M3651.71 2527.79H3048.9V2549.09H3651.71V2527.79Z" fill="#17688D"/>
<path opacity="0.2" d="M3651.71 2579.64H3048.9V2600.95H3651.71V2579.64Z" fill="#17688D"/>
<path opacity="0.2" d="M3651.71 2631.49H3048.9V2652.8H3651.71V2631.49Z" fill="#17688D"/>
<path d="M3447.2 961.778V1400.41C3447.2 1413.41 3422.76 1423.91 3392.37 1423.91H2235.47C2205.31 1423.91 2180.64 1413.26 2180.64 1400.41V961.778C2180.64 948.697 2205.16 935.381 2235.47 935.381H3392.53C3422.76 935.381 3447.2 948.697 3447.2 961.778Z" fill="#C1D5FF"/>
<path d="M3339.26 1084.92H2736.45V1106.22H3339.26V1084.92Z" fill="#17688D"/>
<path opacity="0.2" d="M3339.26 1136.77H2736.45V1158.07H3339.26V1136.77Z" fill="#17688D"/>
<path opacity="0.2" d="M3339.26 1188.62H2736.45V1209.93H3339.26V1188.62Z" fill="#17688D"/>
<path opacity="0.2" d="M3339.26 1240.47H2736.45V1261.78H3339.26V1240.47Z" fill="#17688D"/>
<path opacity="0.2" d="M2431.29 1038.15C2400.62 1038.3 2370.81 1048.31 2346.26 1066.69C2321.71 1085.07 2303.71 1110.86 2294.94 1140.25C2286.16 1169.63 2287.06 1201.06 2297.51 1229.9C2307.96 1258.74 2327.4 1283.45 2352.96 1300.39V1276.19C2352.98 1268.26 2355.9 1260.61 2361.16 1254.68C2366.43 1248.75 2373.68 1244.95 2381.55 1244C2386.44 1252.92 2393.63 1260.36 2402.38 1265.55C2411.13 1270.73 2421.12 1273.47 2431.29 1273.47C2441.46 1273.47 2451.44 1270.73 2460.2 1265.55C2468.95 1260.36 2476.14 1252.92 2481.03 1244C2488.91 1244.94 2496.17 1248.73 2501.44 1254.67C2506.7 1260.6 2509.61 1268.26 2509.62 1276.19V1300.94C2535.48 1284.12 2555.22 1259.39 2565.86 1230.43C2576.51 1201.47 2577.5 1169.84 2568.69 1140.27C2559.87 1110.7 2541.73 1084.78 2516.96 1066.37C2492.2 1047.97 2462.14 1038.07 2431.29 1038.15V1038.15ZM2493.95 1212.67C2493.46 1213.57 2492.82 1214.39 2492.07 1215.1C2490.85 1215.95 2489.41 1216.44 2487.92 1216.51H2485.02C2481.09 1229.52 2472.62 1240.7 2461.14 1247.99C2449.67 1255.29 2435.96 1258.23 2422.5 1256.28C2409.05 1254.33 2396.74 1247.61 2387.81 1237.35C2378.89 1227.09 2373.94 1213.97 2373.87 1200.37C2373.87 1190.58 2376.44 1180.97 2381.32 1172.49L2380.69 1172.09C2377.53 1168.34 2375.95 1163.49 2376.31 1158.59C2376.66 1153.69 2378.9 1149.12 2382.57 1145.85C2386.22 1143.77 2390.19 1142.32 2394.32 1141.55C2406.71 1137.87 2417.31 1129.76 2424.08 1118.75C2424.28 1121.62 2424.28 1124.5 2424.08 1127.37C2425.21 1126.14 2426.58 1125.15 2428.09 1124.45C2429.61 1123.75 2431.25 1123.37 2432.92 1123.31C2434.59 1123.25 2436.25 1123.52 2437.81 1124.11C2439.38 1124.7 2440.81 1125.6 2442.02 1126.74C2443.5 1128.85 2445.21 1130.79 2447.11 1132.54C2449.07 1133.58 2451.24 1134.2 2453.46 1134.34L2467.71 1136.14C2473.61 1136.29 2479.3 1138.36 2483.93 1142.02C2486.39 1144.78 2488.24 1148.03 2489.33 1151.57C2493.54 1161.25 2496.67 1171.36 2498.65 1181.73C2500.64 1192.18 2499.13 1203 2494.34 1212.51L2493.95 1212.67Z" fill="#17688D"/>
<path d="M5434.13 3029.71V3468.35C5434.13 3481.43 5409.7 3491.84 5379.3 3491.84H4222.17C4191.94 3491.84 4167.34 3481.27 4167.34 3468.35V3029.71C4167.34 3016.63 4191.78 3003.39 4222.17 3003.39H5379.46C5409.7 3003 5434.13 3016.24 5434.13 3029.71Z" fill="#C1D5FF"/>
<path d="M5326.2 3159.58H4723.39V3180.88H5326.2V3159.58Z" fill="#17688D"/>
<path opacity="0.2" d="M5326.2 3211.43H4723.39V3232.74H5326.2V3211.43Z" fill="#17688D"/>
<path opacity="0.2" d="M5326.2 3263.36H4723.39V3284.67H5326.2V3263.36Z" fill="#17688D"/>
<path opacity="0.2" d="M5326.2 3315.22H4723.39V3336.52H5326.2V3315.22Z" fill="#17688D"/>
<path opacity="0.2" d="M4418.38 3112.9C4387.67 3112.91 4357.77 3122.82 4333.13 3141.16C4308.49 3159.5 4290.41 3185.28 4281.57 3214.7C4272.72 3244.11 4273.59 3275.59 4284.04 3304.48C4294.49 3333.36 4313.97 3358.11 4339.58 3375.06V3350.86C4339.62 3342.94 4342.55 3335.31 4347.81 3329.4C4353.07 3323.48 4360.31 3319.69 4368.17 3318.74C4373.06 3327.66 4380.25 3335.1 4389.01 3340.29C4397.76 3345.47 4407.74 3348.21 4417.91 3348.21C4428.08 3348.21 4438.07 3345.47 4446.82 3340.29C4455.57 3335.1 4462.76 3327.66 4467.65 3318.74C4475.52 3319.68 4482.77 3323.46 4488.03 3329.38C4493.3 3335.3 4496.22 3342.93 4496.24 3350.86V3375.69C4522.07 3358.89 4541.79 3334.19 4552.44 3305.28C4563.1 3276.36 4564.13 3244.78 4555.37 3215.24C4546.62 3185.69 4528.55 3159.77 4503.87 3141.32C4479.18 3122.88 4449.2 3112.91 4418.38 3112.9V3112.9ZM4481.04 3287.33C4480.57 3288.27 4479.94 3289.12 4479.16 3289.84C4477.94 3290.69 4476.5 3291.18 4475.01 3291.25H4472.04C4469.81 3298.96 4465.98 3306.11 4460.79 3312.23C4455.59 3318.35 4449.16 3323.29 4441.92 3326.74C4434.67 3330.19 4426.77 3332.06 4418.75 3332.23C4410.73 3332.4 4402.76 3330.87 4395.37 3327.73C4387.99 3324.59 4381.35 3319.92 4375.91 3314.03C4370.46 3308.14 4366.32 3301.16 4363.77 3293.55C4361.23 3285.94 4360.32 3277.88 4361.12 3269.89C4361.92 3261.91 4364.4 3254.18 4368.41 3247.23H4367.78C4364.62 3243.47 4363.05 3238.63 4363.4 3233.73C4363.75 3228.83 4366 3224.26 4369.66 3220.99C4373.31 3218.91 4377.28 3217.45 4381.41 3216.68C4393.79 3213.03 4404.39 3204.94 4411.18 3193.96C4411.37 3196.83 4411.37 3199.71 4411.18 3202.58C4412.31 3201.35 4413.67 3200.36 4415.19 3199.66C4416.7 3198.97 4418.34 3198.58 4420.01 3198.52C4421.68 3198.46 4423.35 3198.73 4424.91 3199.32C4426.47 3199.91 4427.9 3200.81 4429.11 3201.95C4430.58 3204.05 4432.29 3205.97 4434.2 3207.67C4436.15 3208.76 4438.32 3209.41 4440.55 3209.55L4454.8 3211.35C4460.71 3211.47 4466.41 3213.54 4471.02 3217.23C4473.49 3219.99 4475.33 3223.25 4476.42 3226.78C4480.64 3236.46 4483.77 3246.57 4485.74 3256.94C4487.62 3267.29 4486.05 3277.96 4481.28 3287.33H4481.04Z" fill="#17688D"/>
<path opacity="0.05" d="M2874.86 4651.09C2878.32 4659.74 2884.05 4667.3 2891.46 4672.95C2898.87 4678.6 2907.66 4682.15 2916.92 4683.21C2906.1 4669.24 2896.11 4654.64 2887 4639.5L2887.55 4562.27C2885.29 4541.06 2888.05 4519.62 2895.6 4499.68C2903.15 4479.73 2915.28 4461.84 2931.02 4447.44C2931.02 4447.44 2872.9 4451.44 2871.33 4544.57C2869.77 4637.7 2874.86 4651.09 2874.86 4651.09Z" fill="#011B32"/>
<path opacity="0.1" d="M3155.04 4161.86L3179.87 4165.85L3190.2 4063.17C3190.2 4063.17 3178.85 4061.44 3164.59 4058.15C3168.35 4072.41 3159.74 4127.86 3155.04 4161.86Z" fill="#011B32"/>
<path d="M6878.42 1066.35V1504.99C6878.42 1518.07 6853.98 1528.48 6823.59 1528.48H5666.22C5635.98 1528.48 5611.39 1517.91 5611.39 1504.99V1066.35C5611.39 1053.27 5635.83 1039.96 5666.22 1039.96H6823.74C6853.98 1040.19 6878.42 1053.27 6878.42 1066.35Z" fill="white"/>
<g opacity="0.1">
<path opacity="0.1" d="M6863.88 1074.96V1513.6C6863.88 1526.6 6839.37 1537.09 6809.05 1537.09H5651.92C5621.69 1537.09 5597.09 1526.44 5597.09 1513.6V1074.96C5597.09 1061.88 5621.53 1048.56 5651.92 1048.56H6809.21C6839.37 1048.56 6863.88 1061.88 6863.88 1074.96Z" fill="#17688D"/>
</g>
<path d="M6885.54 1066.35V1504.99C6885.54 1518.07 6861.1 1528.48 6830.71 1528.48H5673.34C5643.11 1528.48 5618.51 1517.91 5618.51 1504.99V1066.35C5618.51 1053.27 5642.95 1039.96 5673.34 1039.96H6830.87C6861.1 1040.19 6885.54 1053.27 6885.54 1066.35Z" fill="#C1D5FF"/>
<path d="M6770.48 1196.61H6167.67V1217.92H6770.48V1196.61Z" fill="#17688D"/>
<path opacity="0.2" d="M6770.48 1248.46H6167.67V1269.77H6770.48V1248.46Z" fill="#17688D"/>
<path opacity="0.2" d="M6770.48 1300.32H6167.67V1321.62H6770.48V1300.32Z" fill="#17688D"/>
<path opacity="0.2" d="M6770.48 1352.17H6167.67V1373.47H6770.48V1352.17Z" fill="#17688D"/>
<path opacity="0.2" d="M5862.74 1149.85C5831.98 1149.79 5802.03 1159.65 5777.32 1177.98C5752.62 1196.3 5734.48 1222.1 5725.6 1251.55C5716.73 1281 5717.59 1312.53 5728.06 1341.45C5738.52 1370.37 5758.04 1395.14 5783.71 1412.09V1387.89C5783.75 1379.96 5786.67 1372.32 5791.93 1366.4C5797.19 1360.47 5804.43 1356.67 5812.3 1355.69C5817.19 1364.62 5824.38 1372.06 5833.13 1377.24C5841.88 1382.43 5851.87 1385.16 5862.04 1385.16C5872.21 1385.16 5882.19 1382.43 5890.94 1377.24C5899.69 1372.06 5906.89 1364.62 5911.78 1355.69C5919.64 1356.67 5926.88 1360.47 5932.15 1366.4C5937.41 1372.32 5940.33 1379.96 5940.37 1387.89V1412.72C5966.22 1395.94 5985.96 1371.27 5996.64 1342.36C6007.33 1313.45 6008.39 1281.87 5999.66 1252.31C5990.93 1222.76 5972.89 1196.81 5948.21 1178.35C5923.54 1159.89 5893.56 1149.89 5862.74 1149.85V1149.85ZM5925.41 1324.28C5924.92 1325.47 5924.08 1326.48 5923 1327.16C5921.92 1327.85 5920.65 1328.19 5919.37 1328.12C5918.41 1328.2 5917.44 1328.2 5916.48 1328.12C5912.59 1341.18 5904.14 1352.41 5892.66 1359.75C5881.18 1367.09 5867.45 1370.05 5853.96 1368.09C5840.48 1366.13 5828.15 1359.38 5819.24 1349.08C5810.32 1338.78 5805.41 1325.61 5805.41 1311.99C5805.39 1302.21 5807.93 1292.6 5812.77 1284.1L5812.14 1283.71C5809 1279.94 5807.44 1275.11 5807.79 1270.21C5808.14 1265.32 5810.37 1260.75 5814.02 1257.47C5817.68 1255.4 5821.65 1253.95 5825.77 1253.16C5838.17 1249.54 5848.77 1241.45 5855.54 1230.45C5855.77 1233.32 5855.77 1236.2 5855.54 1239.06C5856.67 1237.84 5858.03 1236.84 5859.55 1236.15C5861.07 1235.45 5862.71 1235.06 5864.37 1235C5866.04 1234.94 5867.71 1235.22 5869.27 1235.81C5870.83 1236.4 5872.26 1237.29 5873.47 1238.44C5875.28 1240.24 5876.45 1242.75 5878.64 1244.16C5880.58 1245.27 5882.76 1245.89 5884.99 1245.96L5899.17 1247.84C5904.06 1247.34 5908.97 1248.66 5912.96 1251.55C5916.95 1254.44 5919.73 1258.69 5920.78 1263.5C5925.04 1273.16 5928.17 1283.28 5930.1 1293.66C5932.06 1304.11 5930.46 1314.92 5925.56 1324.36L5925.41 1324.28Z" fill="#17688D"/>
<path d="M7245.07 4654.38C7234.26 4615.22 7227.21 4580.91 7227.21 4580.91C7227.21 4580.91 7227.68 4537.91 7207.16 4506.42L7206.77 4495.69L7203.63 4416.11C7208.57 4401.51 7214.75 4387.35 7222.12 4373.81C7235.43 4348.36 7217.65 4257.5 7217.65 4257.5C7217.65 4257.5 7159.69 4130.68 7169.48 4048.52C7179.27 3966.35 7046.74 3689.86 7046.74 3689.86C7046.5 3662.79 7049.31 3635.78 7055.12 3609.34C7056.16 3603.76 7056.45 3598.07 7055.99 3592.42C7056.02 3591.74 7056.02 3591.06 7055.99 3590.38C7055.99 3590.38 7055.99 3590.38 7055.99 3591.01C7052.07 3537.2 7005.62 3437.88 7005.62 3437.88L7003.9 3245.11C7003.9 3245.11 7026.77 3130.52 6976.48 2979.9C6958.94 2927.34 6947.42 2885.12 6939.9 2852.53C6939.04 2848.85 6938.18 2845.33 6937.48 2841.88C7028.26 2824.49 7097.5 2810.55 7097.5 2810.55C7097.5 2810.55 7036.09 2591.23 6998.81 2553.64C6961.52 2516.04 6928.31 2395.49 6928.31 2395.49C6928.31 2395.49 6903.72 2239.7 6931.99 2192.86C6960.27 2146.02 6961.37 2066.28 6961.37 2066.28C6961.37 2066.28 7028.1 2013.72 7035.86 1991.24C7043.61 1968.76 7055.99 1918.32 7054.97 1892.08C7053.95 1865.84 7044.47 1842.5 7047.13 1828.56C7049.8 1814.62 7024.5 1762.84 7034.99 1737.46C7037.69 1729.69 7038.93 1721.48 7038.68 1713.26V1712.24C7037.92 1690.45 7035.06 1668.78 7030.14 1647.54C7009.65 1631.52 6985.99 1620.02 6960.74 1613.78L6959.02 1607.91L6954.55 1592.24C6952.2 1590.83 6949.93 1589.58 6947.66 1588.48V1582.84L6946.17 1560.36L6954.94 1509.37C6972.72 1420.63 6854.84 1412.01 6854.84 1412.01C6847.26 1398.8 6835.03 1388.89 6820.53 1384.21C6796.56 1376.37 6821.63 1516.66 6833.07 1525.2C6841.6 1531.62 6868.94 1574.7 6882.1 1595.69L6884.29 1599.14C6882.43 1600.97 6880.7 1602.93 6879.12 1605.01L6884.76 1635.32L6885.62 1640.02C6878.19 1649.94 6872.3 1660.93 6868.16 1672.61C6868.16 1672.61 6890.48 1695.32 6887.19 1721.8C6883.9 1748.27 6896.04 1780.7 6896.67 1782.42C6895.34 1781.01 6879.59 1765.27 6864.71 1769.89C6849.83 1774.51 6808.08 1788.69 6808.08 1788.69C6808.08 1788.69 6776.75 1795.43 6779.96 1802.24C6783.17 1809.05 6759.99 1840.46 6759.99 1840.46L6672.26 1763.55C6671.32 1761.2 6670.38 1758.85 6669.52 1756.42C6665.58 1745.08 6662.67 1733.42 6660.82 1721.56C6669.95 1719.02 6678.88 1715.8 6687.53 1711.93C6696.3 1708.61 6704.15 1703.24 6710.4 1696.26C6718.24 1685.85 6719.65 1671.98 6722.62 1659.29C6728.34 1634.38 6741.89 1611.9 6751.29 1588.09C6766.92 1548.09 6770.91 1504.48 6762.81 1462.3C6760.93 1449.24 6755.99 1436.81 6748.39 1426.03C6733.82 1407.55 6708.52 1400.73 6689.73 1386.32C6670.93 1371.91 6658.39 1349.19 6636.62 1338.62C6617.04 1329.06 6593.7 1330.79 6572.23 1335.56C6530.15 1344.09 6490.03 1360.43 6453.96 1383.74C6441.98 1391.57 6428.74 1400.5 6414.8 1398.46C6402.58 1396.74 6393.33 1387.34 6385.11 1378.33C6385.07 1377.94 6385.07 1377.55 6385.11 1377.16L6384.09 1376.14C6375.93 1396.36 6372.3 1418.12 6373.44 1439.9C6373.44 1443.26 6373.44 1446.63 6374.22 1450C6374.22 1451.18 6374.22 1452.35 6374.22 1453.53C6374.3 1454.52 6374.3 1455.51 6374.22 1456.5V1456.5C6374.26 1458.03 6374.1 1459.56 6373.75 1461.04C6372.02 1465.46 6369.35 1469.44 6365.92 1472.72C6363.46 1475.76 6361.26 1479.01 6359.34 1482.43C6359.34 1481.25 6359.97 1480.08 6360.36 1478.9C6355.19 1486.96 6352.47 1496.35 6352.53 1505.93C6352.31 1512.9 6354.84 1519.68 6359.58 1524.8C6363.98 1528.78 6368.75 1532.32 6373.83 1535.38C6372.47 1544.71 6371.97 1554.15 6372.34 1563.58C6373.58 1591.73 6382.06 1619.08 6396.96 1643C6411.86 1666.92 6432.68 1686.58 6457.41 1700.1C6458.5 1702.45 6459.52 1704.8 6460.62 1707.23C6472.52 1735.27 6481.92 1768.09 6479.49 1798.87C6479.49 1801.14 6479.02 1803.41 6478.71 1805.61C6478.4 1807.8 6476.67 1808.04 6475.81 1809.29C6475.81 1809.29 6336.15 1816.03 6302.16 1787.51C6268.17 1759 6221.95 1863.41 6221.95 1863.41C6221.95 1863.41 6172.29 1875.08 6161.88 1865.76C6151.46 1856.44 6093.1 1867.02 6093.1 1867.02C6068.34 1846.59 6036.71 1836.39 6004.67 1838.51C5984.53 1824.41 5962.48 1813.26 5939.19 1805.37L5937.55 1804.9C5927.44 1801.66 5916.74 1800.7 5906.21 1802.08C5906.21 1802.08 5835.33 1747.96 5814.1 1718.27C5792.87 1688.59 5693.16 1579.24 5692.69 1578.69L5692.15 1573.29L5690.42 1556.84C5687.61 1557.41 5684.75 1557.78 5681.88 1557.94L5679.77 1552.3C5673.71 1536.45 5666.32 1521.15 5657.68 1506.55C5657.68 1506.55 5656.9 1485.72 5662.77 1480.31C5668.65 1474.91 5657.13 1399.01 5657.13 1399.01C5657.13 1399.01 5589.69 1256.69 5538.39 1366.89C5538.39 1366.89 5436.56 1440.84 5527.34 1518.77C5527.34 1518.77 5563.14 1534.44 5568.62 1547.75C5572.23 1556.37 5585.07 1580.34 5593.69 1596.24C5595.1 1598.9 5596.43 1601.25 5597.53 1603.37L5596.59 1604.23L5598.39 1617.78L5599.09 1623.03C5582.96 1633.05 5572.07 1642.84 5575.05 1649.81C5580.42 1661.6 5584.27 1674.02 5586.48 1686.78C5586.48 1686.78 5714 1834.43 5732.25 1898.97C5732.25 1898.97 6065.92 2080.3 6173.78 2090.02L6159.68 2187.46C6157.91 2213.79 6157.5 2240.19 6158.43 2266.57C6160.62 2287.32 6149.97 2382.02 6149.97 2382.02C6149.97 2382.02 6136.65 2521.21 6121.69 2541.26C6106.73 2561.31 6112.69 2644.18 6112.69 2644.18C6110.45 2684.12 6104.79 2723.8 6095.77 2762.77C6082.06 2815.96 6095.77 2880.65 6095.77 2880.65C6095.77 2880.65 6046.19 3007.39 6173.15 2917.86C6173.15 2917.86 6236.91 2911.44 6310.39 2906.11C6310.39 2908.54 6310.39 2910.97 6310.39 2913.47C6310.39 2922.95 6310.86 2933.21 6311.17 2944.02C6312.89 3015.46 6316.26 3113.84 6322.37 3188.17C6333.26 3319.52 6383.31 3578 6383.31 3578L6388.32 3708.81C6386.25 3721.2 6385.49 3733.78 6386.05 3746.33C6386.72 3792.57 6400.58 3837.65 6426 3876.28L6439.39 3963.06C6439.39 3963.06 6465.08 4019.69 6466.88 4054C6466.9 4056.81 6466.66 4059.62 6466.18 4062.38C6465.45 4066.81 6465.24 4071.3 6465.55 4075.78C6465.55 4115.41 6493.28 4209.33 6493.28 4209.33C6493.28 4209.33 6498.37 4304.81 6512.86 4309.82C6525.32 4314.05 6498.68 4365.51 6490.7 4380.31C6490.44 4379.41 6490.23 4378.5 6490.07 4377.57C6489.05 4379.53 6488.42 4380.55 6488.42 4380.55C6485.78 4388.39 6484.58 4396.64 6484.9 4404.91C6484.33 4411.47 6485.64 4418.05 6488.68 4423.89C6491.71 4429.74 6496.35 4434.59 6502.05 4437.89C6529.86 4453.55 6544.98 4466.71 6522.18 4473.13C6513.72 4474.8 6505.35 4476.92 6497.12 4479.48C6497.12 4478.38 6496.18 4477.28 6495.79 4476.27C6492.64 4477.74 6490.07 4480.21 6488.48 4483.3C6486.89 4486.39 6486.37 4489.93 6487.01 4493.34C6487.7 4504.67 6491.06 4515.67 6496.8 4525.46C6521.71 4575.82 6538.32 4594.62 6538.32 4594.62L6549.21 4592.97C6547.73 4597.21 6545.76 4601.26 6543.33 4605.04C6539.36 4611.19 6533.99 4616.31 6527.67 4620C6521.87 4623.95 6515.3 4626.62 6508.4 4627.83C6500.63 4628.35 6493.07 4630.52 6486.21 4634.2C6479.35 4637.87 6473.35 4642.96 6468.61 4649.13C6455.06 4668.09 6447.07 4693.62 6476.44 4714.62L6580.15 4745.95C6580.15 4745.95 6757.01 4762.08 6746.12 4722.92C6735.23 4683.76 6728.26 4649.45 6728.26 4649.45C6728.03 4625.29 6722.21 4601.51 6711.27 4579.97C6709.31 4576.45 6707.11 4573.08 6704.69 4569.87L6710.87 4568.93C6710.87 4568.93 6720.35 4481.2 6736.88 4463.89C6740.72 4459.97 6741.5 4457 6740.48 4454.73C6742.05 4449.87 6737.51 4446.89 6731.63 4445.95C6731.63 4447.05 6730.93 4448.22 6730.53 4449.4C6724.87 4448.42 6719.13 4448 6713.38 4448.15C6713.38 4448.15 6705.55 4402.72 6723.88 4385.48C6725.3 4383.53 6726.31 4381.31 6726.84 4378.95C6727.36 4376.59 6727.39 4374.15 6726.93 4371.78C6726.83 4365.53 6725.93 4359.32 6724.27 4353.29C6724.04 4353.63 6723.85 4354 6723.72 4354.39C6712.68 4313.27 6678.45 4248.57 6678.45 4248.57C6678.45 4248.57 6675.47 4207.05 6686.28 4190.06C6697.09 4173.06 6676.1 3964.32 6676.1 3964.32C6676.1 3964.32 6676.57 3863.04 6661.84 3816.51C6647.12 3769.99 6673.67 3713.43 6673.67 3713.43C6673.67 3713.43 6673.67 3712.34 6673.2 3710.38V3709.67C6673.2 3709.67 6672.34 3703.49 6670.93 3694.01C6670.96 3694.35 6670.96 3694.69 6670.93 3695.03C6667.09 3668.4 6659.73 3620.15 6655.26 3597.82C6648.29 3566.49 6649.62 3413.6 6649.62 3413.6L6673.12 3347.49L6723.25 3457.93L6777.69 3605.65C6777.69 3605.65 6802.99 3636.28 6804.79 3668.32C6804.79 3669.88 6804.79 3671.45 6804.79 3673.02C6804.59 3676.36 6804.59 3679.7 6804.79 3683.04C6804.68 3701.93 6810.58 3720.36 6821.63 3735.68C6821.63 3735.68 6837.3 3806.17 6857.97 3823.09C6878.65 3840.01 6880.06 3874.94 6880.06 3874.94C6880.06 3874.94 6908.34 3976.77 6920.48 3994.08C6930.66 4008.89 6932.78 4050.56 6933.17 4063.32C6933.17 4065.67 6933.17 4067.08 6933.17 4067.08C6933.17 4067.08 6938.02 4103.58 6939.04 4134.37C6939.04 4138.13 6939.04 4142.2 6939.04 4145.33C6939.04 4145.33 6939.04 4144.78 6939.04 4144.55C6939.31 4152.93 6938.62 4161.31 6937.01 4169.54C6937.01 4170.01 6937.01 4170.48 6937.01 4171.02C6937.01 4169.2 6937.01 4167.47 6937.01 4165.85C6932.78 4186.93 6931.15 4208.45 6932.15 4229.93C6932.93 4266.82 6939.98 4310.21 6963.48 4334.96C7003.82 4377.81 7027.94 4371.31 7027.94 4371.31C7027.94 4371.31 7011.5 4427.39 6988.78 4439.37C6987.92 4439.85 6987.11 4440.4 6986.35 4441.02C6986.35 4440 6985.88 4438.9 6985.73 4437.89C6983.34 4440.75 6981.57 4444.09 6980.55 4447.67C6979.52 4451.26 6979.26 4455.02 6979.77 4458.72C6979.07 4483.16 6995.99 4522.17 7011.1 4539.79C7016.71 4544.87 7023.49 4548.48 7030.84 4550.29C7029.74 4551.16 7028.59 4551.97 7027.4 4552.71C7024.87 4554.2 7022.25 4555.53 7019.56 4556.71C7015.91 4558.46 7011.99 4559.63 7007.97 4560.15C7000.21 4560.7 6992.66 4562.88 6985.8 4566.56C6978.94 4570.23 6972.94 4575.31 6968.18 4581.46C6954.71 4600.42 6946.64 4625.87 6976.01 4646.94L7079.72 4678.27C7079.72 4678.27 7256.27 4693.55 7245.07 4654.38Z" fill="url(#paint0_linear)"/>
<path d="M6575.37 4745.63L6474.95 4714.3C6446.83 4693.23 6454.59 4667.7 6467.67 4648.74C6472.18 4642.66 6477.95 4637.61 6484.59 4633.95C6491.22 4630.28 6498.57 4628.09 6506.13 4627.52C6512.83 4626.29 6519.2 4623.62 6524.77 4619.68C6530.96 4616.01 6536.15 4610.87 6539.88 4604.72C6546.69 4592.99 6550.11 4579.59 6549.75 4566.03C6549.75 4566.03 6657.22 4530 6688.24 4560.7C6693.74 4566.29 6698.44 4572.61 6702.18 4579.5C6712.81 4601.16 6718.45 4624.93 6718.71 4649.06C6718.71 4649.06 6725.6 4683.36 6736.1 4722.53C6746.59 4761.69 6575.37 4745.63 6575.37 4745.63Z" fill="#2D293D"/>
<path d="M7058.18 4678.19L6957.84 4646.86C6929.64 4625.87 6937.4 4600.34 6950.48 4581.46C6954.97 4575.35 6960.73 4570.28 6967.37 4566.62C6974.01 4562.95 6981.37 4560.77 6988.94 4560.23C6992.83 4559.63 6996.6 4558.44 7000.14 4556.71C7002.84 4555.56 7005.45 4554.22 7007.97 4552.71C7035.15 4536.42 7032.96 4499.06 7032.96 4499.06C7032.96 4499.06 7140.5 4463.03 7171.44 4493.73C7175.61 4497.87 7179.29 4502.47 7182.41 4507.44C7202.3 4538.77 7201.91 4582.01 7201.91 4582.01C7201.91 4582.01 7208.8 4616.47 7219.3 4655.56C7229.79 4694.64 7058.18 4678.19 7058.18 4678.19Z" fill="#2D293D"/>
<path opacity="0.1" d="M6688.24 4561.02C6693.74 4566.6 6698.44 4572.93 6702.18 4579.82L6539.88 4604.96C6546.69 4593.22 6550.11 4579.83 6549.75 4566.26C6549.75 4566.26 6657.22 4530.31 6688.24 4561.02Z" fill="#011B32"/>
<path opacity="0.1" d="M7182.01 4507.28L7183.19 4537.83C7159.69 4580.6 7036.56 4576.13 7000.14 4556.55C7002.84 4555.4 7005.45 4554.07 7007.97 4552.56C7035.15 4536.27 7032.96 4498.9 7032.96 4498.9C7032.96 4498.9 7140.5 4462.87 7171.44 4493.58C7175.47 4497.73 7179.02 4502.33 7182.01 4507.28V4507.28Z" fill="#011B32"/>
<path d="M7196.35 4375.07C7189.23 4388.63 7183.28 4402.78 7178.57 4417.36L7182.72 4527.02C7156.79 4574.02 7012.2 4564.15 6991.83 4539.95C6971.47 4515.74 6948.21 4451.51 6969.98 4439.53C6991.76 4427.55 7007.58 4371.54 7007.58 4371.54C7007.58 4371.54 6984.08 4377.97 6944.92 4335.12C6905.75 4292.27 6913.12 4193.5 6919.15 4169.69C6925.18 4145.88 6915.15 4067.16 6915.15 4067.16C6915.15 4067.16 6914.45 4011.71 6902.7 3994.16C6890.95 3976.61 6863.53 3875.02 6863.53 3875.02C6863.53 3875.02 6862.2 3840.4 6842.15 3823.09C6822.1 3805.78 6806.9 3735.68 6806.9 3735.68C6794.87 3718.47 6789.17 3697.63 6790.77 3676.7C6793.59 3641.92 6764.45 3605.58 6764.45 3605.58L6711.58 3457.85L6662.94 3347.33L6640.61 3413.52C6640.61 3413.52 6639.52 3566.1 6646.33 3597.74C6653.15 3629.39 6664.66 3713.51 6664.66 3713.51C6664.66 3713.51 6639.05 3769.99 6653.38 3816.59C6667.72 3863.2 6667.4 3964.47 6667.4 3964.47C6667.4 3964.47 6687.85 4173.06 6677.43 4190.14C6667.01 4207.21 6669.6 4248.65 6669.6 4248.65C6669.6 4248.65 6731.08 4368.33 6713.69 4385.64C6696.3 4402.95 6703.59 4448.3 6703.59 4448.3C6703.59 4448.3 6742.75 4446.81 6726.46 4463.97C6710.17 4481.12 6701.32 4569.01 6701.32 4569.01L6534.64 4594.85C6534.64 4594.85 6518.5 4576.06 6494.38 4525.61C6470.25 4475.17 6496.8 4479.79 6518.89 4473.37C6540.98 4466.94 6526.73 4453.71 6499.39 4438.04C6472.05 4422.38 6486.23 4384.47 6486.23 4384.47C6486.23 4384.47 6523.75 4315.07 6509.73 4310.05C6495.71 4305.04 6490.62 4209.56 6490.62 4209.56C6490.62 4209.56 6458.58 4097.08 6464.3 4066.3C6470.02 4035.52 6438.14 3963.3 6438.14 3963.3L6425.14 3876.43C6393.59 3828.09 6380.52 3770 6388.32 3712.81L6383.46 3578C6383.46 3578 6334.67 3319.52 6324.09 3187.78C6317.28 3103.65 6313.83 2988.67 6312.26 2916.84C6311.4 2876.58 6311.09 2849.87 6311.09 2849.87L6906.93 2764.57C6909.01 2794.42 6913.78 2824.02 6921.18 2853C6928.55 2885.59 6939.75 2927.81 6956.82 2980.37C7005.62 3131.07 6983.69 3245.66 6983.69 3245.66L6985.57 3438.35C6985.57 3438.35 7043.14 3565.08 7033.74 3609.88C7028.2 3636.44 7025.57 3663.52 7025.91 3690.64C7025.91 3690.64 7154.44 3967.21 7145.12 4049.38C7135.8 4131.55 7192.12 4258.44 7192.12 4258.44C7192.12 4258.44 7209.27 4349.61 7196.35 4375.07Z" fill="#65617D"/>
<path opacity="0.05" d="M6826.49 3666.67L7007.66 3635.34C7007.66 3635.34 6908.57 3744.69 6826.49 3666.67Z" fill="#011B32"/>
<path opacity="0.1" d="M6974.29 3458.48C6974.29 3458.48 6982.98 3522.63 6944.45 3548.4C6944.68 3548.4 7014.94 3534.61 6974.29 3458.48Z" fill="#011B32"/>
<path opacity="0.1" d="M6955.49 3253.96C6955.49 3253.96 6808.08 3385.16 6751.84 3376.94C6695.6 3368.71 6955.49 3253.96 6955.49 3253.96Z" fill="#011B32"/>
<path opacity="0.1" d="M6603.02 3734.66C6603.02 3734.66 6488.42 3765.36 6486.78 3811.89C6485.13 3858.42 6603.02 3734.66 6603.02 3734.66Z" fill="#011B32"/>
<path opacity="0.05" d="M6650.72 4310.76C6650.72 4310.76 6488.66 4347.5 6535.65 4366.45C6582.65 4385.41 6659.65 4399.19 6659.65 4399.19C6659.65 4399.19 6712.36 4399.9 6650.72 4310.76Z" fill="#011B32"/>
<g opacity="0.05">
<path opacity="0.05" d="M6504.32 4400.44C6500.16 4398 6496.59 4394.66 6493.88 4390.66C6491.17 4386.66 6489.39 4382.11 6488.66 4377.34C6487.72 4379.22 6487.09 4380.31 6487.09 4380.31C6487.09 4380.31 6473.31 4418.23 6500.25 4433.89C6503.38 4435.69 6506.28 4437.42 6509.02 4439.14C6513.88 4438.04 6519.05 4437.18 6524.06 4435.69C6545.52 4429.66 6530.88 4416.11 6504.32 4400.44Z" fill="#011B32"/>
<path opacity="0.05" d="M6714.01 4381.57C6718.32 4377.26 6717.77 4366.61 6714.48 4353.06C6708.24 4365.57 6705.53 4379.54 6706.64 4393.47C6708.19 4389.01 6710.71 4384.95 6714.01 4381.57V4381.57Z" fill="#011B32"/>
<path opacity="0.05" d="M6662.31 3693.54C6656.91 3710.16 6653.85 3727.45 6653.23 3744.92C6655.9 3732.77 6659.7 3720.89 6664.58 3709.44C6664.58 3709.44 6663.72 3703.33 6662.31 3693.54Z" fill="#011B32"/>
<path opacity="0.05" d="M7033.66 3606.44C7034.6 3601.43 7034.92 3596.33 7034.6 3591.24C7032.96 3601.66 7031.86 3611.29 7031.16 3619.75C7031.94 3615.45 7032.72 3610.98 7033.66 3606.44Z" fill="#011B32"/>
<path opacity="0.05" d="M6677.35 4185.98C6680.13 4175.95 6681.11 4165.5 6680.25 4155.12C6675.62 4167.65 6673.44 4180.94 6673.83 4194.29C6674.66 4191.39 6675.85 4188.6 6677.35 4185.98V4185.98Z" fill="#011B32"/>
<path opacity="0.05" d="M6721.68 4445.88C6714.16 4474.13 6708.92 4502.94 6706.02 4532.03L6539.34 4557.88C6539.34 4557.88 6523.28 4539.08 6499.15 4488.72C6497.04 4484.26 6495.32 4480.26 6493.91 4476.66C6484.04 4481.67 6480.51 4492.32 6494.85 4522.17C6518.97 4572.53 6535.11 4591.33 6535.11 4591.33L6701.79 4565.48C6701.79 4565.48 6710.87 4477.75 6726.85 4460.52C6734.61 4451.67 6729.2 4447.44 6721.68 4445.88Z" fill="#011B32"/>
<path opacity="0.05" d="M6490.85 4205.64C6490.85 4205.64 6495.94 4301.2 6509.96 4306.22C6516.39 4290.16 6520.46 4274.89 6514.19 4272.77C6500.09 4267.76 6495.08 4172.2 6495.08 4172.2C6495.08 4172.2 6462.97 4059.72 6468.76 4029.02C6474.56 3998.31 6442.6 3926.01 6442.6 3926.01L6429.52 3839.15C6397.97 3790.81 6384.9 3732.72 6392.71 3675.52L6387.54 3541.19C6387.54 3541.19 6338.74 3282.71 6328.17 3150.96C6321.35 3066.84 6317.9 2951.78 6316.34 2880.03C6316.34 2867.03 6315.87 2855.51 6315.63 2845.8L6310.85 2846.5C6310.85 2846.5 6310.85 2873.14 6312.11 2913.47C6313.67 2985.22 6317.12 3100.29 6323.86 3184.41C6334.51 3315.76 6383.31 3574.64 6383.31 3574.64L6388.48 3708.97C6380.67 3766.16 6393.74 3824.26 6425.29 3872.6L6438.29 3959.46C6438.29 3959.46 6470.25 4031.68 6464.46 4062.46C6458.66 4093.24 6490.85 4205.64 6490.85 4205.64Z" fill="#011B32"/>
<path opacity="0.05" d="M6995.99 4502.27C6981.67 4483.11 6971.77 4461.01 6967.01 4437.57C6950.48 4453.24 6972.41 4512.77 6991.76 4535.72C7012.12 4559.92 7156.71 4569.63 7182.64 4522.87L7181.62 4496.47C7145.67 4535.17 7015.25 4525.3 6995.99 4502.27Z" fill="#011B32"/>
<path opacity="0.05" d="M7200.5 4337.78C7193.38 4351.35 7187.43 4365.5 7182.72 4380.08L7183.42 4399.5C7186.32 4392.3 7190.47 4382.66 7196.27 4371.23C7200.23 4360.17 7201.83 4348.4 7200.97 4336.69L7200.5 4337.78Z" fill="#011B32"/>
<path opacity="0.05" d="M6999.36 4367.47C7004.24 4356.61 7008.37 4345.44 7011.73 4334.02C7011.73 4334.02 6988.23 4340.45 6949.07 4297.6C6920.64 4266.27 6916.72 4205.57 6919.07 4165.62C6913.04 4189.12 6905.75 4288.2 6944.84 4331.05C6970.61 4359.09 6989.41 4365.98 6999.36 4367.47Z" fill="#011B32"/>
<path opacity="0.05" d="M6915.31 4063.17C6918.78 4090.35 6920.77 4117.7 6921.26 4145.1C6921.76 4140.74 6922.55 4136.43 6923.61 4132.17C6929.64 4108.67 6919.62 4029.72 6919.62 4029.72C6919.62 4029.72 6918.83 3974.26 6907.08 3956.64C6895.33 3939.02 6867.92 3837.5 6867.92 3837.5C6867.92 3837.5 6866.59 3802.88 6846.46 3785.65C6826.33 3768.42 6811.21 3698.24 6811.21 3698.24C6799.19 3681 6793.49 3660.14 6795.08 3639.18C6797.9 3604.4 6768.76 3568.14 6768.76 3568.14L6715.81 3420.33L6667.17 3309.89L6644.77 3375.92C6644.77 3375.92 6644.77 3383.75 6644.77 3396.99L6663.02 3343.34L6711.66 3453.78L6764.45 3601.5C6764.45 3601.5 6793.59 3637.77 6790.77 3672.55C6789.14 3693.51 6794.84 3714.38 6806.9 3731.61C6806.9 3731.61 6822.02 3802.1 6842.15 3819.02C6862.28 3835.94 6863.53 3870.87 6863.53 3870.87C6863.53 3870.87 6891.03 3972.7 6902.7 3990.01C6914.37 4007.32 6915.31 4063.17 6915.31 4063.17Z" fill="#011B32"/>
</g>
<path d="M6933.56 1510.7L6925.1 1561.7L6926.59 1584.18L6927.69 1600.78L6870.11 1608.61L6863.14 1596.86C6850.38 1575.64 6823.98 1532.48 6815.52 1526.37C6804.55 1517.83 6780.04 1377.94 6803.22 1385.38C6817.41 1390.24 6829.29 1400.17 6836.59 1413.26C6836.59 1413.26 6950.79 1422.04 6933.56 1510.7Z" fill="#FFCDD3"/>
<path opacity="0.1" d="M6927.69 1600.78L6870.11 1608.61L6863.14 1596.86C6870.58 1587.7 6880.97 1581.39 6892.54 1579.02C6904.11 1576.65 6916.14 1578.36 6926.59 1583.86L6927.69 1600.78Z" fill="#011B32"/>
<path d="M6942.96 1627.65L6867.45 1648.25L6865.41 1636.97L6859.93 1606.58C6859.93 1606.58 6888.52 1565.22 6933.32 1593.73L6937.71 1609.4L6942.96 1627.65Z" fill="#DCE6F2"/>
<path d="M5704.68 1563.58L5625.02 1610.57C5625.02 1610.57 5621.65 1604.31 5617.19 1595.53C5608.8 1579.87 5596.35 1555.59 5592.83 1546.97C5587.5 1533.73 5552.88 1517.99 5552.88 1517.99C5464.6 1439.66 5563.37 1366.11 5563.37 1366.11C5612.88 1255.98 5678.28 1398.38 5678.28 1398.38C5678.28 1398.38 5689.56 1474.28 5683.84 1479.69C5678.12 1485.09 5678.99 1505.85 5678.99 1505.85C5687.36 1520.51 5694.51 1535.84 5700.37 1551.67C5703.19 1558.88 5704.68 1563.58 5704.68 1563.58Z" fill="#FFCDD3"/>
<path opacity="0.1" d="M5704.68 1563.58L5625.02 1610.57C5625.02 1610.57 5621.65 1604.31 5617.18 1595.53C5628.23 1585.51 5667.71 1550.89 5681.1 1551.9C5687.51 1552.51 5693.96 1552.51 5700.37 1551.9C5703.19 1558.88 5704.68 1563.58 5704.68 1563.58Z" fill="#011B32"/>
<path d="M5713.92 1587.86L5624.24 1636.42L5621.65 1616.84L5619.85 1603.29C5619.85 1603.29 5671.08 1555.9 5686.82 1557C5694.66 1557.78 5702.57 1557.46 5710.32 1556.06L5712.04 1572.43L5713.92 1587.86Z" fill="#DCE6F2"/>
<path d="M6724.89 1854.8C6724.89 1854.8 6328.09 1915.11 6401.64 1888.09C6452.86 1869.13 6472.13 1835.37 6475.11 1798.72C6477.38 1767.93 6468.29 1735.11 6456.7 1706.99C6446.3 1682.27 6433.44 1658.65 6418.32 1636.5C6418.32 1636.5 6716.51 1457.21 6661.14 1611.9C6652.59 1635.3 6647.7 1659.87 6646.64 1684.75C6645.75 1709.45 6649.36 1734.11 6657.3 1757.51C6670.41 1795.57 6693.8 1829.24 6724.89 1854.8V1854.8Z" fill="#FFCDD3"/>
<path opacity="0.1" d="M6661.45 1611.98C6652.9 1635.37 6648.02 1659.94 6646.96 1684.83C6619.23 1710.05 6587.66 1709.66 6547.25 1711.22C6515.92 1712.4 6482.08 1721.25 6456.7 1707.23C6446.3 1682.5 6433.44 1658.89 6418.32 1636.73C6418.32 1636.73 6716.51 1457.36 6661.45 1611.98Z" fill="#011B32"/>
<path d="M6535.97 1722.19C6627.07 1722.19 6700.93 1648.33 6700.93 1557.23C6700.93 1466.13 6627.07 1392.27 6535.97 1392.27C6444.86 1392.27 6371.01 1466.13 6371.01 1557.23C6371.01 1648.33 6444.86 1722.19 6535.97 1722.19Z" fill="#FFCDD3"/>
<path opacity="0.1" d="M6724.89 1854.8C6724.89 1854.8 6328.09 1915.11 6401.64 1888.09C6452.86 1869.13 6472.13 1835.37 6475.11 1798.72C6494.14 1776.39 6533.38 1759.55 6558.68 1750.15C6581.74 1741.4 6606.95 1740.03 6630.82 1746.24C6640.24 1748.63 6649.27 1752.37 6657.61 1757.36C6670.61 1795.43 6693.9 1829.16 6724.89 1854.8Z" fill="#011B32"/>
<path opacity="0.1" d="M6942.96 1627.65L6867.45 1648.25L6865.41 1636.97C6873.14 1625.46 6884.23 1616.61 6897.16 1611.62C6910.1 1606.63 6924.26 1605.75 6937.71 1609.08L6942.96 1627.65Z" fill="#011B32"/>
<path opacity="0.1" d="M5713.92 1587.86L5624.24 1636.42L5621.65 1616.84C5650.73 1599.89 5681.05 1585.17 5712.35 1572.82L5713.92 1587.86Z" fill="#011B32"/>
<path opacity="0.1" d="M6921.18 2853.32C6767.82 2883.63 6549.36 2923.81 6513.88 2914.49C6484.59 2906.66 6392.32 2911.28 6312.03 2917.16C6311.17 2876.89 6310.85 2850.18 6310.85 2850.18L6906.69 2764.89C6908.85 2794.74 6913.7 2824.34 6921.18 2853.32Z" fill="#011B32"/>
<path d="M7073.77 2811.18C7073.77 2811.18 6568.87 2917.94 6513.64 2903.45C6458.42 2888.96 6179.11 2917.7 6179.11 2917.7C6056.37 3007 6104.15 2880.34 6104.15 2880.34C6104.15 2880.34 6090.6 2815.72 6104.15 2762.46C6112.81 2723.47 6118.23 2683.83 6120.36 2643.95C6120.36 2643.95 6114.41 2561 6128.9 2541.03C6143.39 2521.05 6156.08 2381.86 6156.08 2381.86C6156.08 2381.86 6166.26 2287.17 6163.91 2266.41C6161.56 2245.65 6165.09 2187.38 6165.09 2187.38L6179.19 2089.78C6074.78 2079.91 5751.6 1898.19 5751.6 1898.19C5733.82 1833.73 5610.61 1685.92 5610.61 1685.92C5608.42 1673.17 5604.68 1660.73 5599.48 1648.87C5590.32 1627.02 5713.29 1577.91 5713.29 1577.91C5713.29 1577.91 5810.42 1687.57 5830.78 1717.65C5851.15 1747.72 5920 1801.61 5920 1801.61C5930.28 1800.12 5940.77 1801.06 5950.63 1804.35L5952.19 1804.82C5974.81 1812.77 5996.15 1823.96 6015.56 1838.04C6046.75 1836.07 6077.48 1846.33 6101.25 1866.63C6101.25 1866.63 6157.72 1856.13 6167.75 1865.45C6177.78 1874.77 6225.95 1863.26 6225.95 1863.26C6225.95 1863.26 6270.44 1758.85 6303.41 1787.44C6336.39 1816.03 6471.58 1809.37 6471.58 1809.37C6488.66 1784.77 6531.82 1765.9 6558.92 1756.03C6581.97 1747.25 6607.18 1745.85 6631.06 1752.03C6641.4 1754.56 6651.23 1758.85 6660.12 1764.72L6745.18 1841.87C6745.18 1841.87 6767.58 1810.54 6764.53 1803.65C6761.47 1796.76 6791.79 1790.18 6791.79 1790.18C6791.79 1790.18 6831.42 1776.16 6846.62 1771.38C6861.81 1766.6 6876.22 1782.66 6877.55 1783.99C6876.93 1782.27 6865.26 1749.13 6868.31 1723.36C6871.37 1697.59 6849.75 1674.17 6849.75 1674.17C6893.69 1553.24 7006.87 1648.72 7006.87 1648.72C7006.87 1648.72 7021.91 1713.34 7011.73 1738.72C7001.55 1764.09 7025.83 1815.79 7023.56 1829.73C7021.29 1843.68 7030.53 1866.94 7031.39 1893.26C7032.25 1919.57 7020.5 1969.94 7013.06 1992.42C7005.62 2014.9 6941 2067.3 6941 2067.3C6941 2067.3 6939.9 2146.41 6912.57 2193.25C6885.23 2240.09 6909.28 2395.88 6909.28 2395.88C6909.28 2395.88 6941.7 2516.67 6977.81 2554.11C7013.92 2591.55 7073.77 2811.18 7073.77 2811.18Z" fill="#3F3D56"/>
<path opacity="0.1" d="M6297.77 1928.43C6297.77 1928.43 6280.78 1883.31 6266.44 1879.71C6252.49 1875.13 6238.86 1869.64 6225.63 1863.26L6233.47 1845.87C6233.47 1845.87 6286.03 1858.09 6294.95 1873.05C6303.88 1888.01 6297.77 1928.43 6297.77 1928.43Z" fill="#011B32"/>
<path opacity="0.1" d="M6015.56 1838.04C6013.29 1851.98 5890.24 1869.37 5890.24 1869.37L5950.16 1804.43L5951.72 1804.9C5974.5 1812.79 5996 1823.95 6015.56 1838.04V1838.04Z" fill="#011B32"/>
<path d="M5651.65 1672.76C5657.79 1672.76 5662.77 1667.78 5662.77 1661.64C5662.77 1655.5 5657.79 1650.52 5651.65 1650.52C5645.51 1650.52 5640.53 1655.5 5640.53 1661.64C5640.53 1667.78 5645.51 1672.76 5651.65 1672.76Z" fill="#575988"/>
<path d="M5666.69 1694.38C5672.83 1694.38 5677.81 1689.4 5677.81 1683.26C5677.81 1677.12 5672.83 1672.14 5666.69 1672.14C5660.55 1672.14 5655.57 1677.12 5655.57 1683.26C5655.57 1689.4 5660.55 1694.38 5666.69 1694.38Z" fill="#575988"/>
<path d="M5681.34 1714.28C5687.48 1714.28 5692.46 1709.3 5692.46 1703.16C5692.46 1697.01 5687.48 1692.03 5681.34 1692.03C5675.19 1692.03 5670.21 1697.01 5670.21 1703.16C5670.21 1709.3 5675.19 1714.28 5681.34 1714.28Z" fill="#575988"/>
<path d="M5696.69 1735.9C5702.83 1735.9 5707.81 1730.92 5707.81 1724.77C5707.81 1718.63 5702.83 1713.65 5696.69 1713.65C5690.55 1713.65 5685.57 1718.63 5685.57 1724.77C5685.57 1730.92 5690.55 1735.9 5696.69 1735.9Z" fill="#575988"/>
<path d="M7002.1 1682.32C7007.07 1682.32 7011.1 1678.29 7011.1 1673.31C7011.1 1668.34 7007.07 1664.31 7002.1 1664.31C6997.12 1664.31 6993.09 1668.34 6993.09 1673.31C6993.09 1678.29 6997.12 1682.32 7002.1 1682.32Z" fill="#575988"/>
<path d="M7004.29 1702.69C7009.26 1702.69 7013.3 1698.65 7013.3 1693.68C7013.3 1688.7 7009.26 1684.67 7004.29 1684.67C6999.31 1684.67 6995.28 1688.7 6995.28 1693.68C6995.28 1698.65 6999.31 1702.69 7004.29 1702.69Z" fill="#575988"/>
<path d="M7006.25 1723.05C7011.22 1723.05 7015.25 1719.02 7015.25 1714.04C7015.25 1709.07 7011.22 1705.04 7006.25 1705.04C7001.27 1705.04 6997.24 1709.07 6997.24 1714.04C6997.24 1719.02 7001.27 1723.05 7006.25 1723.05Z" fill="#575988"/>
<path opacity="0.1" d="M6312.89 2303.69C6311.56 2302.13 6638.89 2684.37 6872.54 2447.19C6872.46 2447.19 6491.56 2513.85 6312.89 2303.69Z" fill="#011B32"/>
<path opacity="0.1" d="M6141.43 2515.57C6141.43 2515.57 6328.48 2513.45 6350.1 2566.4L6352.21 2622.33C6347.01 2625.51 6341.09 2627.3 6335 2627.53C6328.91 2627.76 6322.86 2626.43 6317.43 2623.66C6298.24 2614.26 6183.1 2561 6144.33 2590.37L6141.43 2515.57Z" fill="#011B32"/>
<path d="M6144.96 2515.41C6144.96 2515.41 6323.78 2513.38 6344.46 2563.9L6346.49 2617.24C6341.51 2620.26 6335.84 2621.96 6330.01 2622.18C6324.19 2622.4 6318.4 2621.13 6313.2 2618.49C6294.88 2609.48 6184.75 2558.96 6147.7 2586.77L6144.96 2515.41Z" fill="#656691"/>
<path opacity="0.1" d="M6227.83 2105.99C6248.61 2149.44 6274.54 2190.23 6305.06 2227.48C6338.26 2268.66 6377.94 2304.17 6422.55 2332.6C6422.55 2332.6 6231.9 2131.53 6227.83 2105.99Z" fill="#011B32"/>
<path opacity="0.1" d="M6158.35 1891.3C6158.35 1891.3 6194.7 2024.46 6276.78 2067.22L6158.35 1891.3Z" fill="#011B32"/>
<path opacity="0.1" d="M6111.12 1906.73C6110.18 1904.22 6087.62 2014.19 6220.78 2069.34C6221.01 2069.34 6164.54 2052.57 6111.12 1906.73Z" fill="#011B32"/>
<path opacity="0.1" d="M6923.3 1785.09C6921.26 1785.09 6989.72 1825.11 7008.6 1844.22C7008.6 1844.22 6962.7 1780.78 6923.3 1785.09Z" fill="#011B32"/>
<path d="M6497.12 1708.33C6497.26 1711.93 6498.15 1715.47 6499.74 1718.72C6501.33 1721.96 6503.58 1724.83 6506.35 1727.16C6509.11 1729.48 6512.33 1731.2 6515.8 1732.2C6519.27 1733.21 6522.91 1733.48 6526.49 1733C6576.86 1734.17 6629.26 1734.41 6675.31 1713.26C6683.82 1709.91 6691.37 1704.53 6697.32 1697.59C6705.16 1687.18 6706.25 1673.39 6709.15 1660.62C6714.71 1635.79 6727.71 1613.63 6736.88 1589.5C6752.07 1549.2 6755.92 1505.5 6748 1463.16C6746.25 1450.15 6741.47 1437.73 6734.06 1426.89C6719.96 1408.33 6695.37 1401.59 6677.19 1387.1C6659.02 1372.61 6646.72 1349.9 6625.73 1339.32C6606.78 1329.77 6584.14 1331.49 6563.07 1336.19C6522.23 1344.78 6483.41 1361.1 6448.71 1384.28C6437.04 1392.12 6424.27 1400.97 6410.41 1398.93C6398.27 1397.13 6389.18 1387.34 6381.04 1378.17C6372.09 1401.16 6368.82 1425.95 6371.48 1450.47C6372.11 1454.05 6372.11 1457.7 6371.48 1461.28C6369.89 1465.64 6367.41 1469.61 6364.2 1472.95C6352.37 1487.83 6345.48 1510.94 6358.32 1524.96C6363.88 1531.15 6372.19 1534.28 6377.67 1540.63C6387.38 1551.83 6384.87 1568.59 6385.5 1583.39C6385.13 1588.57 6386.63 1593.71 6389.73 1597.88C6392.52 1600.26 6395.87 1601.89 6399.46 1602.6C6403.05 1603.31 6406.77 1603.09 6410.25 1601.96C6417.17 1599.58 6424.49 1598.59 6431.79 1599.06C6439.65 1601.31 6446.5 1606.17 6451.22 1612.84C6475.73 1641.12 6486 1673.23 6497.12 1708.33Z" fill="#2D293D"/>
<g opacity="0.1">
<path opacity="0.1" d="M6702.1 1684.44C6696.13 1691.38 6688.54 1696.76 6680.01 1700.1C6634.27 1721.25 6581.95 1721.09 6531.58 1719.84C6528 1720.33 6524.36 1720.07 6520.89 1719.08C6517.41 1718.08 6514.19 1716.37 6511.42 1714.06C6508.64 1711.74 6506.38 1708.87 6504.79 1705.63C6503.19 1702.39 6502.28 1698.85 6502.13 1695.24C6491.09 1660.08 6480.75 1627.96 6456.39 1599.37C6451.68 1592.72 6444.86 1587.86 6437.04 1585.59C6429.72 1585.16 6422.38 1586.14 6415.42 1588.48C6411.94 1589.62 6408.22 1589.84 6404.63 1589.13C6401.04 1588.42 6397.69 1586.79 6394.9 1584.41C6391.84 1580.22 6390.34 1575.1 6390.67 1569.92C6390.67 1555.12 6392.86 1538.59 6382.84 1527.15C6377.43 1520.89 6369.05 1517.75 6363.49 1511.49C6359.85 1506.9 6357.52 1501.42 6356.73 1495.61C6355.95 1489.81 6356.74 1483.9 6359.03 1478.51C6350.8 1492.85 6347.67 1510.94 6358.4 1522.77C6363.96 1528.88 6372.34 1532.01 6377.75 1538.43C6387.46 1549.63 6385.03 1566.4 6385.58 1581.28C6385.22 1586.43 6386.72 1591.55 6389.81 1595.69C6392.58 1598.09 6395.93 1599.73 6399.53 1600.44C6403.13 1601.16 6406.85 1600.92 6410.33 1599.76C6417.28 1597.41 6424.62 1596.43 6431.95 1596.86C6439.76 1599.17 6446.57 1604.02 6451.3 1610.65C6475.66 1639.32 6485.92 1671.35 6497.04 1706.52C6498.66 1715.26 6503.57 1723.05 6510.75 1728.3C6515.68 1730.45 6521.04 1731.44 6526.41 1731.2C6576.78 1732.37 6629.18 1732.53 6675.23 1711.38C6683.75 1708.02 6691.33 1702.64 6697.32 1695.71C6700.27 1691.58 6702.5 1686.97 6703.9 1682.09C6703.35 1682.91 6702.75 1683.69 6702.1 1684.44V1684.44Z" fill="#011B32"/>
<path opacity="0.1" d="M6372.19 1456.66C6374.33 1454.17 6375.93 1451.26 6376.89 1448.12C6377.55 1444.55 6377.55 1440.88 6376.89 1437.31C6374.74 1417.17 6376.6 1396.81 6382.37 1377.39L6381.35 1376.29C6372.42 1399.28 6369.14 1424.07 6371.79 1448.59C6372.16 1451.26 6372.29 1453.96 6372.19 1456.66V1456.66Z" fill="#011B32"/>
</g>
<path opacity="0.1" d="M6471.58 1809.37C6471.58 1809.37 6678.52 1828.79 6695.83 1797.07Z" fill="#011B32"/>
<path opacity="0.1" d="M6868.55 1708.8C6868.55 1708.8 6982.91 1704.57 7009.54 1746.47Z" fill="#011B32"/>
<path d="M1266.64 1347.63V1786.26C1266.64 1799.34 1242.12 1809.76 1211.81 1809.76H54.6725C24.4381 1809.76 -0.156799 1799.19 -0.156799 1786.26V1347.63C-0.156799 1334.55 24.2814 1321.23 54.6725 1321.23H1211.96C1242.12 1321.23 1266.64 1334.55 1266.64 1347.63Z" fill="white"/>
<path d="M1266.64 1347.63V1786.26C1266.64 1799.34 1242.12 1809.76 1211.81 1809.76H54.6725C24.4381 1809.76 -0.156799 1799.19 -0.156799 1786.26V1347.63C-0.156799 1334.55 24.2814 1321.23 54.6725 1321.23H1211.96C1242.12 1321.23 1266.64 1334.55 1266.64 1347.63Z" fill="#C1D5FF"/>
<path d="M1158.7 1477.89H555.891V1499.19H1158.7V1477.89Z" fill="#17688D"/>
<path opacity="0.2" d="M250.883 1431.2C220.167 1431.22 190.274 1441.13 165.632 1459.47C140.99 1477.8 122.908 1503.59 114.067 1533C105.226 1562.42 106.094 1593.9 116.544 1622.78C126.994 1651.67 146.469 1676.42 172.085 1693.36L172.085 1683.81C172.106 1675.89 175.026 1668.25 180.293 1662.33C185.559 1656.42 192.81 1652.63 200.675 1651.69C205.561 1660.62 212.756 1668.06 221.507 1673.24C230.258 1678.43 240.242 1681.16 250.413 1681.16C260.584 1681.16 270.568 1678.43 279.319 1673.24C288.07 1668.06 295.265 1660.62 300.151 1651.69C308.016 1652.63 315.267 1656.42 320.534 1662.33C325.8 1668.25 328.72 1675.89 328.741 1683.81V1693.99C354.574 1677.19 374.288 1652.5 384.945 1623.58C395.601 1594.67 396.629 1563.09 387.875 1533.54C379.122 1504 361.056 1478.07 336.369 1459.63C311.683 1441.19 281.698 1431.22 250.883 1431.2V1431.2ZM306.887 1612.37C305.825 1626.63 299.414 1639.95 288.94 1649.67C278.466 1659.39 264.704 1664.8 250.413 1664.8C236.122 1664.8 222.36 1659.39 211.886 1649.67C201.412 1639.95 195.001 1626.63 193.939 1612.37C190.468 1604.8 188.558 1596.61 188.32 1588.29C188.083 1579.97 189.524 1571.68 192.557 1563.92C195.591 1556.17 200.154 1549.1 205.976 1543.15C211.798 1537.2 218.759 1532.47 226.445 1529.27C224.434 1526.25 223.37 1522.71 223.39 1519.09C223.39 1516.6 223.881 1514.14 224.834 1511.84C225.788 1509.55 227.185 1507.46 228.947 1505.71C230.708 1503.96 232.798 1502.57 235.097 1501.62C237.397 1500.68 239.86 1500.2 242.345 1500.21H243.677C238.905 1500.55 234.439 1502.68 231.182 1506.19C227.925 1509.69 226.12 1514.3 226.131 1519.09C226.108 1522.36 226.974 1525.58 228.638 1528.41H229.186C229.067 1527.18 229.067 1525.95 229.186 1524.73C229.179 1520.79 230.413 1516.95 232.711 1513.76C233.903 1509.89 236.304 1506.51 239.561 1504.12C242.819 1501.72 246.76 1500.43 250.805 1500.44H252.136C249.247 1500.66 246.446 1501.53 243.948 1503C241.449 1504.47 239.32 1506.49 237.724 1508.9C240.563 1507.02 243.858 1505.95 247.259 1505.79C250.66 1505.63 254.041 1506.39 257.043 1508C260.046 1509.6 262.558 1511.99 264.314 1514.91C266.07 1517.83 267.005 1521.16 267.019 1524.57C267.057 1525.27 267.057 1525.98 267.019 1526.68C275.742 1529.01 283.853 1533.21 290.784 1539C297.716 1544.78 303.301 1552.01 307.149 1560.18C310.998 1568.35 313.018 1577.26 313.067 1586.28C313.117 1595.31 311.195 1604.24 307.436 1612.45L306.887 1612.37Z" fill="#17688D"/>
<path opacity="0.2" d="M1158.7 1529.74H555.891V1551.04H1158.7V1529.74Z" fill="#17688D"/>
<path opacity="0.2" d="M1158.7 1581.59H555.891V1602.9H1158.7V1581.59Z" fill="#17688D"/>
<path opacity="0.2" d="M1158.7 1633.44H555.891V1654.75H1158.7V1633.44Z" fill="#17688D"/>
<path opacity="0.1" d="M802.075 2005.27L730.091 2055.79C730.091 2055.79 729.465 2045.6 727.663 2031.82C763.224 2016.86 784.842 1983.65 791.109 1972.99C797.453 1991.01 802.075 2005.27 802.075 2005.27Z" fill="#011B32"/>
<path opacity="0.1" d="M998.912 2326.17C1003.23 2331.01 1006.7 2336.55 1009.17 2342.54C1011.31 2349.38 1012.32 2356.53 1012.15 2363.69C1013.23 2373.84 1011.97 2384.1 1008.47 2393.69L986.771 2342.23C983.09 2333.46 978.939 2324.68 974.866 2316.23C972.907 2312.62 960.61 2297.74 962.02 2294.61C966.093 2285.6 994.917 2321.24 998.912 2326.17Z" fill="#011B32"/>
<path opacity="0.1" d="M1595.3 2611.6C1609.95 2609.89 1623.67 2603.55 1634.46 2593.51C1612.45 2596.25 1591.7 2604.86 1570 2609.17C1549.9 2613.86 1528.83 2611.94 1509.92 2603.69C1534.59 2616.06 1568.51 2616.45 1595.3 2611.6Z" fill="#011B32"/>
<path opacity="0.1" d="M1579.08 2635.65C1587.73 2636.03 1596.38 2635.35 1604.85 2633.61C1613.43 2631.8 1621.01 2626.82 1626.08 2619.67C1623.01 2618.93 1619.77 2619.44 1617.07 2621.08C1590.87 2632.08 1562.11 2635.53 1534.05 2631.02C1547.44 2636.74 1564.75 2635.57 1579.08 2635.65Z" fill="#011B32"/>
<path opacity="0.1" d="M1926 2621.78C1944.72 2605.96 1968.3 2597.03 1992.81 2596.48C1977.15 2599.22 1960.54 2602.59 1949.1 2613.56C1944.57 2618.37 1940.53 2623.61 1937.04 2629.22C1933.05 2634.86 1901.17 2675.44 1896.08 2669.09C1888.48 2659.38 1919.57 2627.26 1926 2621.78Z" fill="#011B32"/>
<path opacity="0.1" d="M1851.12 2582.62C1856.16 2582.18 1861 2580.4 1865.13 2577.46C1869.26 2574.53 1872.53 2570.55 1874.61 2565.93C1878.64 2556.61 1881.13 2546.69 1881.98 2536.56C1884.41 2519.64 1887.83 2502.87 1892.24 2486.35C1893.37 2482.97 1893.92 2479.42 1893.88 2475.86C1893.48 2472.33 1892.44 2468.91 1890.83 2465.75C1889.02 2460.48 1886.6 2455.43 1883.62 2450.71C1877.43 2457.69 1875.79 2473.27 1873.2 2482.05C1870.18 2493.32 1867.28 2504.6 1864.51 2515.88C1863.18 2521.84 1851.66 2582.62 1851.12 2582.62Z" fill="#011B32"/>
</g>
<g opacity="0.1">
<path opacity="0.1" d="M3370.65 6179.5L3370.18 6181.22C3369.44 6183.5 3368.55 6185.72 3367.51 6187.88C3368.29 6184.99 3369.34 6182.19 3370.65 6179.5V6179.5Z" fill="#011B32"/>
<path opacity="0.1" d="M2938.9 6140.88C2940.24 6135.45 2942.21 6130.19 2944.78 6125.22C2944.39 6126.55 2944 6127.96 2943.68 6129.37C2940.71 6147 2941.92 6165.08 2947.21 6182.16C2948.33 6191.35 2952.93 6199.75 2960.05 6205.66C2971.88 6213.49 2990.21 6206.68 2999.84 6216.86C3006.03 6223.36 3006.34 6234.96 3014.33 6238.95C3017.32 6240.31 3020.67 6240.69 3023.89 6240.05C3045.04 6237.07 3057.26 6213.18 3077.62 6206.6C3089.48 6203.54 3102.02 6204.62 3113.18 6209.66C3117.77 6211.13 3121.86 6213.84 3125.01 6217.49C3131.82 6226.26 3127.05 6239.26 3130.18 6249.92C3134.57 6264.64 3152.19 6270.52 3167.46 6272.47C3182.74 6274.43 3199.97 6275.45 3210.23 6287.04C3213.65 6291.32 3216.12 6296.28 3217.47 6301.59C3218.82 6306.9 3219.02 6312.43 3218.06 6317.83C3217.2 6321.56 3217.2 6325.45 3218.06 6329.18C3222.29 6341.17 3242.97 6339.37 3248.38 6329.97C3252.29 6323.07 3251.12 6317.43 3260.36 6315.48C3267.04 6314.95 3273.75 6316.1 3279.86 6318.84C3296.4 6324.57 3313.84 6327.23 3331.33 6326.68C3345.71 6326.88 3359.81 6322.61 3371.66 6314.46C3376.78 6310.32 3380.99 6305.17 3384.04 6299.34C3381.38 6309.96 3375.36 6319.43 3366.89 6326.36C3355.06 6334.59 3340.95 6338.86 3326.55 6338.58C3309.06 6339.13 3291.62 6336.48 3275.09 6330.75C3268.98 6327.98 3262.26 6326.82 3255.58 6327.38C3246.34 6329.26 3247.75 6335.22 3243.6 6341.79C3238.19 6351.27 3217.52 6353 3213.29 6341.09C3212.42 6337.33 3212.42 6333.42 3213.29 6329.65C3214.24 6324.26 3214.04 6318.73 3212.69 6313.42C3211.34 6308.11 3208.87 6303.15 3205.45 6298.87C3195.19 6287.36 3178.04 6286.26 3162.69 6284.3C3147.33 6282.34 3129.79 6276.47 3125.4 6261.74C3122.27 6251.09 3127.05 6238.25 3120.23 6229.32C3117.11 6225.68 3113.04 6222.97 3108.48 6221.48C3097.29 6216.48 3084.74 6215.38 3072.84 6218.35C3052.48 6224.93 3040.26 6248.82 3019.11 6251.87C3015.89 6252.42 3012.57 6252.04 3009.56 6250.78C3001.72 6246.7 3001.25 6235.11 2995.06 6228.69C2985.43 6218.43 2967.1 6225.01 2955.27 6217.41C2948.15 6211.5 2943.56 6203.1 2942.43 6193.91C2937.1 6176.76 2935.89 6158.59 2938.9 6140.88V6140.88Z" fill="#011B32"/>
</g>
<defs>
<linearGradient id="paint0_linear" x1="-282379" y1="2.45011e+06" x2="-340495" y2="937318" gradientUnits="userSpaceOnUse">
<stop stop-color="#808080" stop-opacity="0.25"/>
<stop offset="0.54" stop-color="#808080" stop-opacity="0.12"/>
<stop offset="1" stop-color="#808080" stop-opacity="0.1"/>
</linearGradient>
<clipPath id="clip0">
<rect width="8903" height="5037.89" fill="white"/>
</clipPath>
</defs>
</svg>
