<svg width="171" height="176" viewBox="0 0 171 176" fill="none" xmlns="http://www.w3.org/2000/svg">
<path d="M11.0392 109.929C4.18509 97.7492 4.18509 82.8752 11.0392 70.6954L31.2798 34.7274C38.3655 22.1359 51.6909 14.3442 66.1392 14.3442H104.863C119.311 14.3442 132.637 22.1363 139.723 34.7284L159.962 70.6963C166.815 82.8757 166.815 97.7487 159.962 109.928L139.723 145.896C132.637 158.488 119.312 166.28 104.863 166.28H66.1393C51.6909 166.28 38.3655 158.488 31.2798 145.897L11.0392 109.929Z" fill="#176589"/>
<path d="M85.3887 37.0093L85.3877 37.0094C84.785 37.0096 84.2077 37.2556 83.7825 37.6919C83.7719 37.7027 83.7614 37.7138 83.7511 37.7247C78.6821 43.1334 66.8927 57.2133 66.893 71.1144C66.893 77.4248 67.4943 80.0927 68.8118 85.9396C69.7599 90.1497 71.0596 95.9153 72.7939 105.795C72.9891 106.905 73.9306 107.713 75.0299 107.712L95.7441 107.712C96.3657 107.713 96.9371 107.454 97.3514 107.029C97.6698 106.703 97.8953 106.278 97.9802 105.795C99.7157 95.9125 101.015 90.1488 101.962 85.9402C103.28 80.0937 103.881 77.4252 103.881 71.114C103.881 57.1881 92.0933 43.1238 87.0246 37.7238C86.597 37.2675 86.0061 37.0097 85.3887 37.0093Z" fill="#F8FFF9"/>
<path d="M102.687 103.589L105.67 89.7362C105.67 89.7362 113.039 105.199 113.776 113.643C108.206 106.832 109.059 108.073 102.687 103.589C103.097 103.752 102.319 103.33 102.687 103.589Z" fill="#F8FFF9"/>
<path d="M102.474 103.589L105.456 89.7362C105.456 89.7362 112.826 105.199 113.562 113.643C107.992 106.832 108.845 108.073 102.474 103.589C102.883 103.752 102.106 103.33 102.474 103.589Z" fill="#F8FFF9"/>
<path d="M102.261 103.589L105.243 89.7362C105.243 89.7362 112.612 105.199 113.349 113.643C107.779 106.832 108.632 108.073 102.261 103.589C102.67 103.752 101.893 103.33 102.261 103.589Z" fill="#F8FFF9"/>
<path d="M102.047 103.589L105.03 89.7362C105.03 89.7362 112.399 105.199 113.136 113.643C107.566 106.832 108.419 108.073 102.047 103.589C102.457 103.752 101.679 103.33 102.047 103.589Z" fill="#F8FFF9"/>
<path d="M68.2226 103.589L65.24 89.7362C65.24 89.7362 57.8709 105.199 57.1342 113.643C62.704 106.832 61.851 108.073 68.2226 103.589C67.813 103.752 68.5907 103.33 68.2226 103.589Z" fill="#F8FFF9"/>
<path d="M68.4359 103.589L65.4533 89.7362C65.4533 89.7362 58.0842 105.199 57.3474 113.643C62.9172 106.832 62.0642 108.073 68.4359 103.589C68.0262 103.752 68.8039 103.33 68.4359 103.589Z" fill="#F8FFF9"/>
<path d="M68.6491 103.589L65.6665 89.7362C65.6665 89.7362 58.2974 105.199 57.5607 113.643C63.1304 106.832 62.2775 108.073 68.6491 103.589C68.2395 103.752 69.0171 103.33 68.6491 103.589Z" fill="#F8FFF9"/>
<path d="M68.8623 103.589L65.8798 89.7362C65.8798 89.7362 58.5106 105.199 57.7739 113.643C63.3437 106.832 62.4907 108.073 68.8623 103.589C68.4527 103.752 69.2304 103.33 68.8623 103.589Z" fill="#F8FFF9"/>
<path d="M93.0632 111.003C92.6673 111.96 92.2996 112.923 91.8462 113.855C90.6356 116.344 89.1735 118.687 87.5367 120.904C86.8506 121.833 86.1405 122.753 85.3969 123.641C85.3052 123.531 85.2131 123.422 85.1223 123.311C83.3536 121.156 81.7233 118.879 80.315 116.458C79.6349 115.291 79.0435 114.084 78.4747 112.856C78.1212 112.093 77.8396 111.304 77.5601 110.513L76.7088 110.514C76.3979 112.138 76.378 113.808 76.5885 115.458C76.9005 117.902 77.6506 120.263 78.7161 122.469C79.8598 124.837 81.3408 127.07 83.1093 128.995C83.3577 129.266 83.6017 129.552 83.8955 129.772C84.2747 130.056 84.7294 130.227 85.1976 130.263C85.6609 130.299 86.1309 130.202 86.5442 129.985C86.8912 129.803 87.1565 129.534 87.4265 129.252C89.0674 127.541 90.4603 125.522 91.5735 123.414C93.6097 119.559 94.915 114.897 94.0705 110.513L93.242 110.514C93.1845 110.678 93.1256 110.841 93.0632 111.003Z" fill="#F8FFF9"/>
<rect width="3.6084" height="42.7023" transform="matrix(0.860387 0.509641 -0.49042 0.871486 49.3713 51.4917)" fill="#F8FFF9"/>
<rect width="3.6084" height="42.9037" transform="matrix(-0.860387 0.509641 0.49042 0.871486 31.5005 86.9331)" fill="#F8FFF9"/>
<rect width="3.6084" height="42.7023" transform="matrix(-0.860387 0.509642 0.49042 0.871486 121.472 51.4917)" fill="#F8FFF9"/>
<rect width="3.6084" height="42.9037" transform="matrix(0.860387 0.509641 -0.490421 0.871486 139.343 86.9331)" fill="#F8FFF9"/>
</svg>
