<svg width="528" height="645" viewBox="0 0 528 645" fill="none" xmlns="http://www.w3.org/2000/svg">
<path d="M46.2072 280.548C33.7029 258.89 33.703 232.206 46.2072 210.548L125.043 74C137.548 52.3419 160.657 39 185.665 39H343.341C368.351 39 391.46 52.3427 403.964 74.0017L482.795 210.55C495.298 232.207 495.298 258.889 482.795 280.547L403.964 417.095C391.46 438.754 368.351 452.097 343.341 452.097H185.665C160.657 452.097 137.548 438.755 125.043 417.097L46.2072 280.548Z" fill="url(#paint0_linear)"/>
<path d="M264.19 100.623L264.187 100.624C262.506 100.624 260.895 101.293 259.709 102.479C259.68 102.509 259.65 102.539 259.621 102.569C245.482 117.274 212.595 155.556 212.596 193.352C212.596 210.509 214.274 217.762 217.949 233.66C220.593 245.106 224.219 260.782 229.057 287.643C229.601 290.662 232.228 292.858 235.294 292.857L293.076 292.858C294.81 292.858 296.404 292.156 297.559 291C298.447 290.112 299.077 288.957 299.313 287.644C304.154 260.775 307.778 245.104 310.421 233.661C314.096 217.765 315.774 210.51 315.774 193.35C315.774 155.488 282.892 117.248 268.753 102.566C267.56 101.326 265.912 100.625 264.19 100.623Z" fill="#F8FFF9"/>
<path d="M312.443 281.647L320.763 243.982C320.763 243.982 341.319 286.025 343.374 308.982C327.837 290.465 330.217 293.839 312.443 281.647C311.416 280.942 313.586 282.09 312.443 281.647Z" fill="#F8FFF9"/>
<path d="M311.848 281.647L320.168 243.982C320.168 243.982 340.724 286.025 342.779 308.982C327.242 290.465 329.622 293.839 311.848 281.647C310.822 280.942 312.991 282.09 311.848 281.647Z" fill="#F8FFF9"/>
<path d="M311.253 281.647L319.573 243.982C319.573 243.982 340.129 286.025 342.184 308.982C326.648 290.465 329.027 293.839 311.253 281.647C310.227 280.942 312.396 282.09 311.253 281.647Z" fill="#F8FFF9"/>
<path d="M310.659 281.647L318.978 243.982C318.978 243.982 339.534 286.025 341.59 308.982C326.053 290.465 328.432 293.839 310.659 281.647C309.632 280.942 311.801 282.09 310.659 281.647Z" fill="#F8FFF9"/>
<path d="M216.305 281.647L207.985 243.982C207.985 243.982 187.429 286.025 185.374 308.982C200.911 290.465 198.531 293.839 216.305 281.647C217.332 280.942 215.162 282.09 216.305 281.647Z" fill="#F8FFF9"/>
<path d="M216.9 281.647L208.58 243.982C208.58 243.982 188.024 286.025 185.969 308.982C201.506 290.465 199.126 293.839 216.9 281.647C217.926 280.942 215.757 282.09 216.9 281.647Z" fill="#F8FFF9"/>
<path d="M217.495 281.647L209.175 243.982C209.175 243.982 188.619 286.025 186.564 308.982C202.1 290.465 199.721 293.839 217.495 281.647C218.521 280.942 216.352 282.09 217.495 281.647Z" fill="#F8FFF9"/>
<path d="M218.089 281.647L209.77 243.982C209.77 243.982 189.214 286.025 187.158 308.982C202.695 290.465 200.316 293.839 218.089 281.647C219.116 280.942 216.947 282.09 218.089 281.647Z" fill="#F8FFF9"/>
<path d="M285.597 301.805C284.493 304.407 283.467 307.025 282.202 309.558C278.825 316.326 274.747 322.696 270.181 328.724C268.267 331.25 266.286 333.751 264.212 336.166C263.956 335.867 263.699 335.569 263.446 335.269C258.513 329.409 253.965 323.219 250.036 316.637C248.139 313.462 246.489 310.181 244.903 306.843C243.917 304.768 243.131 302.624 242.352 300.474L239.977 300.474C239.11 304.891 239.054 309.431 239.641 313.918C240.512 320.561 242.604 326.981 245.576 332.978C248.767 339.419 252.898 345.488 257.831 350.723C258.524 351.459 259.205 352.238 260.024 352.836C261.082 353.609 262.35 354.073 263.656 354.171C264.948 354.268 266.26 354.006 267.413 353.415C268.38 352.919 269.121 352.187 269.874 351.422C274.451 346.768 278.336 341.279 281.442 335.548C287.121 325.067 290.763 312.392 288.407 300.474L286.096 300.474C285.935 300.92 285.771 301.363 285.597 301.805Z" fill="#F8FFF9"/>
<rect x="163.72" y="140" width="10" height="116.835" transform="rotate(30 163.72 140)" fill="#F8FFF9"/>
<rect width="10" height="117.386" transform="matrix(-0.866025 0.5 0.5 0.866025 113.869 236.362)" fill="#F8FFF9"/>
<rect width="10" height="116.835" transform="matrix(-0.866025 0.5 0.5 0.866025 364.842 140)" fill="#F8FFF9"/>
<rect x="414.693" y="236.362" width="10" height="117.386" transform="rotate(30 414.693 236.362)" fill="#F8FFF9"/>
<path d="M42.6094 548.422C42.6094 545.422 41.5469 543.109 39.4219 541.484C37.3281 539.859 33.5312 538.219 28.0312 536.562C22.5312 534.906 18.1562 533.062 14.9062 531.031C8.6875 527.125 5.57812 522.031 5.57812 515.75C5.57812 510.25 7.8125 505.719 12.2812 502.156C16.7812 498.594 22.6094 496.812 29.7656 496.812C34.5156 496.812 38.75 497.688 42.4688 499.438C46.1875 501.188 49.1094 503.688 51.2344 506.938C53.3594 510.156 54.4219 513.734 54.4219 517.672H42.6094C42.6094 514.109 41.4844 511.328 39.2344 509.328C37.0156 507.297 33.8281 506.281 29.6719 506.281C25.7969 506.281 22.7812 507.109 20.625 508.766C18.5 510.422 17.4375 512.734 17.4375 515.703C17.4375 518.203 18.5938 520.297 20.9062 521.984C23.2188 523.641 27.0312 525.266 32.3438 526.859C37.6562 528.422 41.9219 530.219 45.1406 532.25C48.3594 534.25 50.7188 536.562 52.2188 539.188C53.7188 541.781 54.4688 544.828 54.4688 548.328C54.4688 554.016 52.2812 558.547 47.9062 561.922C43.5625 565.266 37.6562 566.938 30.1875 566.938C25.25 566.938 20.7031 566.031 16.5469 564.219C12.4219 562.375 9.20312 559.844 6.89062 556.625C4.60938 553.406 3.46875 549.656 3.46875 545.375H15.3281C15.3281 549.25 16.6094 552.25 19.1719 554.375C21.7344 556.5 25.4062 557.562 30.1875 557.562C34.3125 557.562 37.4062 556.734 39.4688 555.078C41.5625 553.391 42.6094 551.172 42.6094 548.422ZM121.264 533.656C121.264 540.344 120.107 546.219 117.795 551.281C115.482 556.312 112.17 560.188 107.857 562.906C103.576 565.594 98.6387 566.938 93.045 566.938C87.5137 566.938 82.5762 565.594 78.2325 562.906C73.92 560.188 70.5762 556.328 68.2012 551.328C65.8575 546.328 64.67 540.562 64.6387 534.031V530.188C64.6387 523.531 65.8106 517.656 68.1544 512.562C70.5294 507.469 73.8575 503.578 78.1387 500.891C82.4512 498.172 87.3887 496.812 92.9512 496.812C98.5137 496.812 103.436 498.156 107.717 500.844C112.029 503.5 115.357 507.344 117.701 512.375C120.045 517.375 121.232 523.203 121.264 529.859V533.656ZM109.404 530.094C109.404 522.531 107.967 516.734 105.092 512.703C102.248 508.672 98.2012 506.656 92.9512 506.656C87.8262 506.656 83.8106 508.672 80.9044 512.703C78.0294 516.703 76.5606 522.375 76.4981 529.719V533.656C76.4981 541.156 77.9512 546.953 80.8575 551.047C83.795 555.141 87.8575 557.188 93.045 557.188C98.295 557.188 102.326 555.188 105.139 551.188C107.982 547.188 109.404 541.344 109.404 533.656V530.094ZM184.918 497.75V543.359C184.918 550.609 182.59 556.359 177.934 560.609C173.309 564.828 167.137 566.938 159.418 566.938C151.606 566.938 145.402 564.859 140.809 560.703C136.215 556.516 133.918 550.719 133.918 543.312V497.75H145.731V543.406C145.731 547.969 146.887 551.453 149.199 553.859C151.512 556.266 154.918 557.469 159.418 557.469C168.543 557.469 173.106 552.656 173.106 543.031V497.75H184.918ZM224.619 539.703H211.401V566H199.541V497.75H223.541C231.416 497.75 237.494 499.516 241.776 503.047C246.057 506.578 248.197 511.688 248.197 518.375C248.197 522.938 247.088 526.766 244.869 529.859C242.682 532.922 239.619 535.281 235.682 536.938L251.01 565.391V566H238.307L224.619 539.703ZM211.401 530.188H223.588C227.588 530.188 230.713 529.188 232.963 527.188C235.213 525.156 236.338 522.391 236.338 518.891C236.338 515.234 235.291 512.406 233.197 510.406C231.135 508.406 228.041 507.375 223.916 507.312H211.401V530.188ZM313.446 543.781C312.758 551.062 310.071 556.75 305.383 560.844C300.696 564.906 294.461 566.938 286.68 566.938C281.242 566.938 276.446 565.656 272.289 563.094C268.164 560.5 264.977 556.828 262.727 552.078C260.477 547.328 259.305 541.812 259.211 535.531V529.156C259.211 522.719 260.352 517.047 262.633 512.141C264.914 507.234 268.18 503.453 272.43 500.797C276.711 498.141 281.649 496.812 287.242 496.812C294.774 496.812 300.836 498.859 305.43 502.953C310.024 507.047 312.696 512.828 313.446 520.297H301.633C301.071 515.391 299.633 511.859 297.321 509.703C295.039 507.516 291.68 506.422 287.242 506.422C282.086 506.422 278.117 508.312 275.336 512.094C272.586 515.844 271.18 521.359 271.117 528.641V534.688C271.117 542.062 272.43 547.688 275.055 551.562C277.711 555.438 281.586 557.375 286.68 557.375C291.336 557.375 294.836 556.328 297.18 554.234C299.524 552.141 301.008 548.656 301.633 543.781H313.446ZM365.897 535.531H337.866V556.531H370.631V566H326.006V497.75H370.303V507.312H337.866V526.156H365.897V535.531ZM457.956 497.75V543.359C457.956 550.609 455.628 556.359 450.971 560.609C446.346 564.828 440.174 566.938 432.456 566.938C424.643 566.938 418.44 564.859 413.846 560.703C409.253 556.516 406.956 550.719 406.956 543.312V497.75H418.768V543.406C418.768 547.969 419.924 551.453 422.237 553.859C424.549 556.266 427.956 557.469 432.456 557.469C441.581 557.469 446.143 552.656 446.143 543.031V497.75H457.956ZM484.438 540.641V566H472.579V497.75H498.688C506.313 497.75 512.36 499.734 516.829 503.703C521.329 507.672 523.579 512.922 523.579 519.453C523.579 526.141 521.376 531.344 516.969 535.062C512.594 538.781 506.454 540.641 498.547 540.641H484.438ZM484.438 531.125H498.688C502.907 531.125 506.126 530.141 508.344 528.172C510.563 526.172 511.672 523.297 511.672 519.547C511.672 515.859 510.547 512.922 508.297 510.734C506.047 508.516 502.954 507.375 499.016 507.312H484.438V531.125Z" fill="white"/>
<path d="M68.6523 623.605C68.6523 622.855 68.3867 622.277 67.8555 621.871C67.332 621.465 66.3828 621.055 65.0078 620.641C63.6328 620.227 62.5391 619.766 61.7266 619.258C60.1719 618.281 59.3945 617.008 59.3945 615.438C59.3945 614.062 59.9531 612.93 61.0703 612.039C62.1953 611.148 63.6523 610.703 65.4414 610.703C66.6289 610.703 67.6875 610.922 68.6172 611.359C69.5469 611.797 70.2773 612.422 70.8086 613.234C71.3398 614.039 71.6055 614.934 71.6055 615.918H68.6523C68.6523 615.027 68.3711 614.332 67.8086 613.832C67.2539 613.324 66.457 613.07 65.418 613.07C64.4492 613.07 63.6953 613.277 63.1562 613.691C62.625 614.105 62.3594 614.684 62.3594 615.426C62.3594 616.051 62.6484 616.574 63.2266 616.996C63.8047 617.41 64.7578 617.816 66.0859 618.215C67.4141 618.605 68.4805 619.055 69.2852 619.562C70.0898 620.062 70.6797 620.641 71.0547 621.297C71.4297 621.945 71.6172 622.707 71.6172 623.582C71.6172 625.004 71.0703 626.137 69.9766 626.98C68.8906 627.816 67.4141 628.234 65.5469 628.234C64.3125 628.234 63.1758 628.008 62.1367 627.555C61.1055 627.094 60.3008 626.461 59.7227 625.656C59.1523 624.852 58.8672 623.914 58.8672 622.844H61.832C61.832 623.812 62.1523 624.562 62.793 625.094C63.4336 625.625 64.3516 625.891 65.5469 625.891C66.5781 625.891 67.3516 625.684 67.8672 625.27C68.3906 624.848 68.6523 624.293 68.6523 623.605ZM90.2359 619.914C90.2359 621.586 89.9469 623.055 89.3687 624.32C88.7906 625.578 87.9625 626.547 86.8844 627.227C85.8141 627.898 84.5797 628.234 83.1812 628.234C81.7984 628.234 80.5641 627.898 79.4781 627.227C78.4 626.547 77.5641 625.582 76.9703 624.332C76.3844 623.082 76.0875 621.641 76.0797 620.008V619.047C76.0797 617.383 76.3727 615.914 76.9586 614.641C77.5523 613.367 78.3844 612.395 79.4547 611.723C80.5328 611.043 81.7672 610.703 83.1578 610.703C84.5484 610.703 85.7789 611.039 86.8492 611.711C87.9273 612.375 88.7594 613.336 89.3453 614.594C89.9312 615.844 90.2281 617.301 90.2359 618.965V619.914ZM87.2711 619.023C87.2711 617.133 86.9117 615.684 86.193 614.676C85.482 613.668 84.4703 613.164 83.1578 613.164C81.8766 613.164 80.8727 613.668 80.1461 614.676C79.4273 615.676 79.0602 617.094 79.0445 618.93V619.914C79.0445 621.789 79.4078 623.238 80.1344 624.262C80.8687 625.285 81.8844 625.797 83.1812 625.797C84.4937 625.797 85.5016 625.297 86.2047 624.297C86.9156 623.297 87.2711 621.836 87.2711 619.914V619.023ZM108.07 610.938V622.34C108.07 624.152 107.487 625.59 106.323 626.652C105.167 627.707 103.624 628.234 101.695 628.234C99.7414 628.234 98.1906 627.715 97.0422 626.676C95.8937 625.629 95.3195 624.18 95.3195 622.328V610.938H98.2727V622.352C98.2727 623.492 98.5617 624.363 99.1398 624.965C99.718 625.566 100.57 625.867 101.695 625.867C103.976 625.867 105.116 624.664 105.116 622.258V610.938H108.07ZM119.915 621.426H116.61V628H113.645V610.938H119.645C121.614 610.938 123.134 611.379 124.204 612.262C125.274 613.145 125.809 614.422 125.809 616.094C125.809 617.234 125.532 618.191 124.977 618.965C124.43 619.73 123.665 620.32 122.68 620.734L126.513 627.848V628H123.337L119.915 621.426ZM116.61 619.047H119.657C120.657 619.047 121.438 618.797 122.001 618.297C122.563 617.789 122.845 617.098 122.845 616.223C122.845 615.309 122.583 614.602 122.059 614.102C121.544 613.602 120.77 613.344 119.739 613.328H116.61V619.047ZM144.041 622.445C143.87 624.266 143.198 625.688 142.026 626.711C140.854 627.727 139.295 628.234 137.35 628.234C135.991 628.234 134.791 627.914 133.752 627.273C132.721 626.625 131.924 625.707 131.362 624.52C130.799 623.332 130.506 621.953 130.483 620.383V618.789C130.483 617.18 130.768 615.762 131.338 614.535C131.909 613.309 132.725 612.363 133.787 611.699C134.858 611.035 136.092 610.703 137.491 610.703C139.373 610.703 140.889 611.215 142.037 612.238C143.186 613.262 143.854 614.707 144.041 616.574H141.088C140.948 615.348 140.588 614.465 140.01 613.926C139.44 613.379 138.6 613.105 137.491 613.105C136.202 613.105 135.209 613.578 134.514 614.523C133.827 615.461 133.475 616.84 133.459 618.66V620.172C133.459 622.016 133.787 623.422 134.444 624.391C135.108 625.359 136.077 625.844 137.35 625.844C138.514 625.844 139.389 625.582 139.975 625.059C140.561 624.535 140.932 623.664 141.088 622.445H144.041ZM159.074 620.383H152.066V625.633H160.258V628H149.102V610.938H160.176V613.328H152.066V618.039H159.074V620.383ZM186.468 622.445C186.296 624.266 185.624 625.688 184.452 626.711C183.28 627.727 181.722 628.234 179.777 628.234C178.417 628.234 177.218 627.914 176.179 627.273C175.148 626.625 174.351 625.707 173.788 624.52C173.226 623.332 172.933 621.953 172.909 620.383V618.789C172.909 617.18 173.195 615.762 173.765 614.535C174.335 613.309 175.152 612.363 176.214 611.699C177.284 611.035 178.519 610.703 179.917 610.703C181.8 610.703 183.316 611.215 184.464 612.238C185.613 613.262 186.28 614.707 186.468 616.574H183.515C183.374 615.348 183.015 614.465 182.437 613.926C181.866 613.379 181.027 613.105 179.917 613.105C178.628 613.105 177.636 613.578 176.941 614.523C176.253 615.461 175.902 616.84 175.886 618.66V620.172C175.886 622.016 176.214 623.422 176.87 624.391C177.534 625.359 178.503 625.844 179.777 625.844C180.941 625.844 181.816 625.582 182.402 625.059C182.988 624.535 183.359 623.664 183.515 622.445H186.468ZM205.145 619.914C205.145 621.586 204.856 623.055 204.278 624.32C203.7 625.578 202.872 626.547 201.794 627.227C200.723 627.898 199.489 628.234 198.091 628.234C196.708 628.234 195.473 627.898 194.387 627.227C193.309 626.547 192.473 625.582 191.88 624.332C191.294 623.082 190.997 621.641 190.989 620.008V619.047C190.989 617.383 191.282 615.914 191.868 614.641C192.462 613.367 193.294 612.395 194.364 611.723C195.442 611.043 196.677 610.703 198.067 610.703C199.458 610.703 200.688 611.039 201.759 611.711C202.837 612.375 203.669 613.336 204.255 614.594C204.841 615.844 205.137 617.301 205.145 618.965V619.914ZM202.18 619.023C202.18 617.133 201.821 615.684 201.102 614.676C200.391 613.668 199.38 613.164 198.067 613.164C196.786 613.164 195.782 613.668 195.055 614.676C194.337 615.676 193.97 617.094 193.954 618.93V619.914C193.954 621.789 194.317 623.238 195.044 624.262C195.778 625.285 196.794 625.797 198.091 625.797C199.403 625.797 200.411 625.297 201.114 624.297C201.825 623.297 202.18 621.836 202.18 619.914V619.023ZM210.498 628V610.938H215.538C217.045 610.938 218.381 611.273 219.545 611.945C220.717 612.617 221.623 613.57 222.264 614.805C222.905 616.039 223.225 617.453 223.225 619.047V619.902C223.225 621.52 222.901 622.941 222.252 624.168C221.612 625.395 220.694 626.34 219.498 627.004C218.311 627.668 216.948 628 215.409 628H210.498ZM213.463 613.328V625.633H215.397C216.952 625.633 218.143 625.148 218.971 624.18C219.807 623.203 220.233 621.805 220.248 619.984V619.035C220.248 617.184 219.846 615.77 219.041 614.793C218.237 613.816 217.069 613.328 215.538 613.328H213.463ZM238.551 620.383H231.543V625.633H239.734V628H228.578V610.938H239.652V613.328H231.543V618.039H238.551V620.383ZM258.491 619.023L262.417 610.938H265.698L259.98 621.719V628H257.003V621.719L251.273 610.938H254.566L258.491 619.023ZM283.216 619.914C283.216 621.586 282.927 623.055 282.348 624.32C281.77 625.578 280.942 626.547 279.864 627.227C278.794 627.898 277.559 628.234 276.161 628.234C274.778 628.234 273.544 627.898 272.458 627.227C271.38 626.547 270.544 625.582 269.95 624.332C269.364 623.082 269.067 621.641 269.059 620.008V619.047C269.059 617.383 269.352 615.914 269.938 614.641C270.532 613.367 271.364 612.395 272.434 611.723C273.512 611.043 274.747 610.703 276.137 610.703C277.528 610.703 278.759 611.039 279.829 611.711C280.907 612.375 281.739 613.336 282.325 614.594C282.911 615.844 283.208 617.301 283.216 618.965V619.914ZM280.251 619.023C280.251 617.133 279.891 615.684 279.173 614.676C278.462 613.668 277.45 613.164 276.137 613.164C274.856 613.164 273.852 613.668 273.126 614.676C272.407 615.676 272.04 617.094 272.024 618.93V619.914C272.024 621.789 272.387 623.238 273.114 624.262C273.848 625.285 274.864 625.797 276.161 625.797C277.473 625.797 278.481 625.297 279.184 624.297C279.895 623.297 280.251 621.836 280.251 619.914V619.023ZM301.049 610.938V622.34C301.049 624.152 300.467 625.59 299.303 626.652C298.147 627.707 296.604 628.234 294.674 628.234C292.721 628.234 291.17 627.715 290.022 626.676C288.873 625.629 288.299 624.18 288.299 622.328V610.938H291.252V622.352C291.252 623.492 291.541 624.363 292.12 624.965C292.698 625.566 293.549 625.867 294.674 625.867C296.955 625.867 298.096 624.664 298.096 622.258V610.938H301.049ZM312.895 621.426H309.59V628H306.625V610.938H312.625C314.594 610.938 316.113 611.379 317.184 612.262C318.254 613.145 318.789 614.422 318.789 616.094C318.789 617.234 318.512 618.191 317.957 618.965C317.41 619.73 316.645 620.32 315.66 620.734L319.492 627.848V628H316.316L312.895 621.426ZM309.59 619.047H312.637C313.637 619.047 314.418 618.797 314.98 618.297C315.543 617.789 315.824 617.098 315.824 616.223C315.824 615.309 315.562 614.602 315.039 614.102C314.523 613.602 313.75 613.344 312.719 613.328H309.59V619.047ZM332.378 628V610.938H338.226C340.155 610.938 341.624 611.324 342.632 612.098C343.64 612.871 344.144 614.023 344.144 615.555C344.144 616.336 343.933 617.039 343.511 617.664C343.089 618.289 342.472 618.773 341.659 619.117C342.581 619.367 343.292 619.84 343.792 620.535C344.3 621.223 344.554 622.051 344.554 623.02C344.554 624.621 344.038 625.852 343.007 626.711C341.984 627.57 340.515 628 338.601 628H332.378ZM335.343 620.301V625.633H338.636C339.566 625.633 340.292 625.402 340.816 624.941C341.339 624.48 341.601 623.84 341.601 623.02C341.601 621.246 340.695 620.34 338.882 620.301H335.343ZM335.343 618.121H338.249C339.171 618.121 339.89 617.914 340.405 617.5C340.929 617.078 341.191 616.484 341.191 615.719C341.191 614.875 340.948 614.266 340.464 613.891C339.987 613.516 339.241 613.328 338.226 613.328H335.343V618.121ZM362.399 610.938V622.34C362.399 624.152 361.817 625.59 360.653 626.652C359.497 627.707 357.954 628.234 356.024 628.234C354.071 628.234 352.52 627.715 351.372 626.676C350.223 625.629 349.649 624.18 349.649 622.328V610.938H352.602V622.352C352.602 623.492 352.891 624.363 353.47 624.965C354.048 625.566 354.899 625.867 356.024 625.867C358.305 625.867 359.446 624.664 359.446 622.258V610.938H362.399ZM376.893 623.605C376.893 622.855 376.627 622.277 376.096 621.871C375.573 621.465 374.623 621.055 373.248 620.641C371.873 620.227 370.78 619.766 369.967 619.258C368.413 618.281 367.635 617.008 367.635 615.438C367.635 614.062 368.194 612.93 369.311 612.039C370.436 611.148 371.893 610.703 373.682 610.703C374.87 610.703 375.928 610.922 376.858 611.359C377.788 611.797 378.518 612.422 379.049 613.234C379.58 614.039 379.846 614.934 379.846 615.918H376.893C376.893 615.027 376.612 614.332 376.049 613.832C375.495 613.324 374.698 613.07 373.659 613.07C372.69 613.07 371.936 613.277 371.397 613.691C370.866 614.105 370.6 614.684 370.6 615.426C370.6 616.051 370.889 616.574 371.467 616.996C372.045 617.41 372.998 617.816 374.327 618.215C375.655 618.605 376.721 619.055 377.526 619.562C378.33 620.062 378.92 620.641 379.295 621.297C379.67 621.945 379.858 622.707 379.858 623.582C379.858 625.004 379.311 626.137 378.217 626.98C377.131 627.816 375.655 628.234 373.788 628.234C372.553 628.234 371.416 628.008 370.377 627.555C369.346 627.094 368.541 626.461 367.963 625.656C367.393 624.852 367.108 623.914 367.108 622.844H370.073C370.073 623.812 370.393 624.562 371.034 625.094C371.674 625.625 372.592 625.891 373.788 625.891C374.819 625.891 375.592 625.684 376.108 625.27C376.631 624.848 376.893 624.293 376.893 623.605ZM387.988 628H385.035V610.938H387.988V628ZM407.568 628H404.603L396.998 615.895V628H394.033V610.938H396.998L404.627 623.09V610.938H407.568V628ZM423.445 620.383H416.437V625.633H424.628V628H413.472V610.938H424.546V613.328H416.437V618.039H423.445V620.383ZM438.36 623.605C438.36 622.855 438.095 622.277 437.563 621.871C437.04 621.465 436.091 621.055 434.716 620.641C433.341 620.227 432.247 619.766 431.434 619.258C429.88 618.281 429.102 617.008 429.102 615.438C429.102 614.062 429.661 612.93 430.778 612.039C431.903 611.148 433.36 610.703 435.149 610.703C436.337 610.703 437.395 610.922 438.325 611.359C439.255 611.797 439.985 612.422 440.516 613.234C441.048 614.039 441.313 614.934 441.313 615.918H438.36C438.36 615.027 438.079 614.332 437.516 613.832C436.962 613.324 436.165 613.07 435.126 613.07C434.157 613.07 433.403 613.277 432.864 613.691C432.333 614.105 432.067 614.684 432.067 615.426C432.067 616.051 432.356 616.574 432.934 616.996C433.513 617.41 434.466 617.816 435.794 618.215C437.122 618.605 438.188 619.055 438.993 619.562C439.798 620.062 440.388 620.641 440.763 621.297C441.138 621.945 441.325 622.707 441.325 623.582C441.325 625.004 440.778 626.137 439.684 626.98C438.598 627.816 437.122 628.234 435.255 628.234C434.02 628.234 432.884 628.008 431.845 627.555C430.813 627.094 430.009 626.461 429.43 625.656C428.86 624.852 428.575 623.914 428.575 622.844H431.54C431.54 623.812 431.86 624.562 432.501 625.094C433.141 625.625 434.059 625.891 435.255 625.891C436.286 625.891 437.059 625.684 437.575 625.27C438.098 624.848 438.36 624.293 438.36 623.605ZM455.245 623.605C455.245 622.855 454.979 622.277 454.448 621.871C453.924 621.465 452.975 621.055 451.6 620.641C450.225 620.227 449.131 619.766 448.319 619.258C446.764 618.281 445.987 617.008 445.987 615.438C445.987 614.062 446.545 612.93 447.663 612.039C448.788 611.148 450.245 610.703 452.034 610.703C453.221 610.703 454.28 610.922 455.209 611.359C456.139 611.797 456.87 612.422 457.401 613.234C457.932 614.039 458.198 614.934 458.198 615.918H455.245C455.245 615.027 454.963 614.332 454.401 613.832C453.846 613.324 453.049 613.07 452.01 613.07C451.041 613.07 450.288 613.277 449.748 613.691C449.217 614.105 448.952 614.684 448.952 615.426C448.952 616.051 449.241 616.574 449.819 616.996C450.397 617.41 451.35 617.816 452.678 618.215C454.006 618.605 455.073 619.055 455.877 619.562C456.682 620.062 457.272 620.641 457.647 621.297C458.022 621.945 458.209 622.707 458.209 623.582C458.209 625.004 457.663 626.137 456.569 626.98C455.483 627.816 454.006 628.234 452.139 628.234C450.905 628.234 449.768 628.008 448.729 627.555C447.698 627.094 446.893 626.461 446.315 625.656C445.745 624.852 445.459 623.914 445.459 622.844H448.424C448.424 623.812 448.745 624.562 449.385 625.094C450.026 625.625 450.944 625.891 452.139 625.891C453.17 625.891 453.944 625.684 454.459 625.27C454.983 624.848 455.245 624.293 455.245 623.605Z" fill="white"/>
<defs>
<linearGradient id="paint0_linear" x1="119" y1="-139" x2="223" y2="497" gradientUnits="userSpaceOnUse">
<stop stop-color="#1994C5"/>
<stop offset="1" stop-color="#1994C5" stop-opacity="0"/>
</linearGradient>
</defs>
</svg>
