<svg width="220" height="50" viewBox="0 0 748 176" fill="none" xmlns="http://www.w3.org/2000/svg">
<path d="M11.0392 109.929C4.18509 97.7492 4.18509 82.8752 11.0392 70.6954L31.2798 34.7274C38.3655 22.1359 51.6909 14.3442 66.1392 14.3442H104.863C119.311 14.3442 132.637 22.1363 139.723 34.7284L159.962 70.6963C166.815 82.8757 166.815 97.7487 159.962 109.928L139.723 145.896C132.637 158.488 119.312 166.28 104.863 166.28H66.1393C51.6909 166.28 38.3655 158.488 31.2798 145.897L11.0392 109.929Z" fill="url(#paint0_linear)"/>
<path d="M85.3887 37.0093L85.3877 37.0094C84.785 37.0096 84.2077 37.2556 83.7825 37.6919C83.7719 37.7027 83.7614 37.7138 83.7511 37.7247C78.6821 43.1334 66.8927 57.2133 66.893 71.1144C66.893 77.4248 67.4943 80.0927 68.8118 85.9396C69.7599 90.1497 71.0596 95.9153 72.7939 105.795C72.9891 106.905 73.9306 107.713 75.0299 107.712L95.7441 107.712C96.3657 107.713 96.9371 107.454 97.3514 107.029C97.6698 106.703 97.8953 106.278 97.9802 105.795C99.7157 95.9125 101.015 90.1488 101.962 85.9402C103.28 80.0937 103.881 77.4252 103.881 71.114C103.881 57.1881 92.0933 43.1238 87.0246 37.7238C86.597 37.2675 86.0061 37.0097 85.3887 37.0093Z" fill="#F8FFF9"/>
<path d="M102.687 103.589L105.67 89.7362C105.67 89.7362 113.039 105.199 113.776 113.643C108.206 106.832 109.059 108.073 102.687 103.589C103.097 103.752 102.319 103.33 102.687 103.589Z" fill="#F8FFF9"/>
<path d="M102.474 103.589L105.456 89.7362C105.456 89.7362 112.826 105.199 113.562 113.643C107.992 106.832 108.845 108.073 102.474 103.589C102.883 103.752 102.106 103.33 102.474 103.589Z" fill="#F8FFF9"/>
<path d="M102.261 103.589L105.243 89.7362C105.243 89.7362 112.612 105.199 113.349 113.643C107.779 106.832 108.632 108.073 102.261 103.589C102.67 103.752 101.893 103.33 102.261 103.589Z" fill="#F8FFF9"/>
<path d="M102.047 103.589L105.03 89.7362C105.03 89.7362 112.399 105.199 113.136 113.643C107.566 106.832 108.419 108.073 102.047 103.589C102.457 103.752 101.679 103.33 102.047 103.589Z" fill="#F8FFF9"/>
<path d="M68.2226 103.589L65.24 89.7362C65.24 89.7362 57.8709 105.199 57.1342 113.643C62.704 106.832 61.851 108.073 68.2226 103.589C67.813 103.752 68.5907 103.33 68.2226 103.589Z" fill="#F8FFF9"/>
<path d="M68.4359 103.589L65.4533 89.7362C65.4533 89.7362 58.0842 105.199 57.3474 113.643C62.9172 106.832 62.0642 108.073 68.4359 103.589C68.0262 103.752 68.8039 103.33 68.4359 103.589Z" fill="#F8FFF9"/>
<path d="M68.6491 103.589L65.6665 89.7362C65.6665 89.7362 58.2974 105.199 57.5607 113.643C63.1304 106.832 62.2775 108.073 68.6491 103.589C68.2395 103.752 69.0171 103.33 68.6491 103.589Z" fill="#F8FFF9"/>
<path d="M68.8623 103.589L65.8798 89.7362C65.8798 89.7362 58.5106 105.199 57.7739 113.643C63.3437 106.832 62.4907 108.073 68.8623 103.589C68.4527 103.752 69.2304 103.33 68.8623 103.589Z" fill="#F8FFF9"/>
<path d="M93.0632 111.003C92.6673 111.96 92.2996 112.923 91.8462 113.855C90.6356 116.344 89.1735 118.687 87.5367 120.904C86.8506 121.833 86.1405 122.753 85.3969 123.641C85.3052 123.531 85.2131 123.422 85.1223 123.311C83.3536 121.156 81.7233 118.879 80.315 116.458C79.6349 115.291 79.0435 114.084 78.4747 112.856C78.1212 112.093 77.8396 111.304 77.5601 110.513L76.7088 110.514C76.3979 112.138 76.378 113.808 76.5885 115.458C76.9005 117.902 77.6506 120.263 78.7161 122.469C79.8598 124.837 81.3408 127.07 83.1093 128.995C83.3577 129.266 83.6017 129.552 83.8955 129.772C84.2747 130.056 84.7294 130.227 85.1976 130.263C85.6609 130.299 86.1309 130.202 86.5442 129.985C86.8912 129.803 87.1565 129.534 87.4265 129.252C89.0674 127.541 90.4603 125.522 91.5735 123.414C93.6097 119.559 94.915 114.897 94.0705 110.513L93.242 110.514C93.1845 110.678 93.1256 110.841 93.0632 111.003Z" fill="#F8FFF9"/>
<rect width="3.6084" height="42.7023" transform="matrix(0.860387 0.509641 -0.49042 0.871486 49.3713 51.4917)" fill="#F8FFF9"/>
<rect width="3.6084" height="42.9037" transform="matrix(-0.860387 0.509641 0.49042 0.871486 31.5005 86.9331)" fill="#F8FFF9"/>
<rect width="3.6084" height="42.7023" transform="matrix(-0.860387 0.509642 0.49042 0.871486 121.472 51.4917)" fill="#F8FFF9"/>
<rect width="3.6084" height="42.9037" transform="matrix(0.860387 0.509641 -0.490421 0.871486 139.343 86.9331)" fill="#F8FFF9"/>
<path d="M232.643 102.586C232.643 99.5859 231.58 97.2734 229.455 95.6484C227.361 94.0234 223.564 92.3828 218.064 90.7266C212.564 89.0703 208.189 87.2266 204.939 85.1953C198.721 81.2891 195.611 76.1953 195.611 69.9141C195.611 64.4141 197.846 59.8828 202.314 56.3203C206.814 52.7578 212.643 50.9766 219.799 50.9766C224.549 50.9766 228.783 51.8516 232.502 53.6016C236.221 55.3516 239.143 57.8516 241.268 61.1016C243.393 64.3203 244.455 67.8984 244.455 71.8359H232.643C232.643 68.2734 231.518 65.4922 229.268 63.4922C227.049 61.4609 223.861 60.4453 219.705 60.4453C215.83 60.4453 212.814 61.2734 210.658 62.9297C208.533 64.5859 207.471 66.8984 207.471 69.8672C207.471 72.3672 208.627 74.4609 210.939 76.1484C213.252 77.8047 217.064 79.4297 222.377 81.0234C227.689 82.5859 231.955 84.3828 235.174 86.4141C238.393 88.4141 240.752 90.7266 242.252 93.3516C243.752 95.9453 244.502 98.9922 244.502 102.492C244.502 108.18 242.314 112.711 237.939 116.086C233.596 119.43 227.689 121.102 220.221 121.102C215.283 121.102 210.736 120.195 206.58 118.383C202.455 116.539 199.236 114.008 196.924 110.789C194.643 107.57 193.502 103.82 193.502 99.5391H205.361C205.361 103.414 206.643 106.414 209.205 108.539C211.768 110.664 215.439 111.727 220.221 111.727C224.346 111.727 227.439 110.898 229.502 109.242C231.596 107.555 232.643 105.336 232.643 102.586ZM311.297 87.8203C311.297 94.5078 310.141 100.383 307.828 105.445C305.516 110.477 302.203 114.352 297.891 117.07C293.609 119.758 288.672 121.102 283.078 121.102C277.547 121.102 272.609 119.758 268.266 117.07C263.953 114.352 260.609 110.492 258.234 105.492C255.891 100.492 254.703 94.7266 254.672 88.1953V84.3516C254.672 77.6953 255.844 71.8203 258.188 66.7266C260.563 61.6328 263.891 57.7422 268.172 55.0547C272.484 52.3359 277.422 50.9766 282.984 50.9766C288.547 50.9766 293.469 52.3203 297.75 55.0078C302.063 57.6641 305.391 61.5078 307.734 66.5391C310.078 71.5391 311.266 77.3672 311.297 84.0234V87.8203ZM299.438 84.2578C299.438 76.6953 298 70.8984 295.125 66.8672C292.281 62.8359 288.234 60.8203 282.984 60.8203C277.859 60.8203 273.844 62.8359 270.938 66.8672C268.063 70.8672 266.594 76.5391 266.531 83.8828V87.8203C266.531 95.3203 267.984 101.117 270.891 105.211C273.828 109.305 277.891 111.352 283.078 111.352C288.328 111.352 292.359 109.352 295.172 105.352C298.016 101.352 299.438 95.5078 299.438 87.8203V84.2578ZM374.951 51.9141V97.5234C374.951 104.773 372.623 110.523 367.967 114.773C363.342 118.992 357.17 121.102 349.451 121.102C341.639 121.102 335.436 119.023 330.842 114.867C326.248 110.68 323.951 104.883 323.951 97.4766V51.9141H335.764V97.5703C335.764 102.133 336.92 105.617 339.233 108.023C341.545 110.43 344.951 111.633 349.451 111.633C358.576 111.633 363.139 106.82 363.139 97.1953V51.9141H374.951ZM414.653 93.8672H401.434V120.164H389.574V51.9141H413.574C421.449 51.9141 427.528 53.6797 431.809 57.2109C436.09 60.7422 438.231 65.8516 438.231 72.5391C438.231 77.1016 437.121 80.9297 434.903 84.0234C432.715 87.0859 429.653 89.4453 425.715 91.1016L441.043 119.555V120.164H428.34L414.653 93.8672ZM401.434 84.3516H413.621C417.621 84.3516 420.746 83.3516 422.996 81.3516C425.246 79.3203 426.371 76.5547 426.371 73.0547C426.371 69.3984 425.324 66.5703 423.231 64.5703C421.168 62.5703 418.074 61.5391 413.949 61.4766H401.434V84.3516ZM503.479 97.9453C502.791 105.227 500.104 110.914 495.416 115.008C490.729 119.07 484.494 121.102 476.713 121.102C471.276 121.102 466.479 119.82 462.323 117.258C458.198 114.664 455.01 110.992 452.76 106.242C450.51 101.492 449.338 95.9766 449.244 89.6953V83.3203C449.244 76.8828 450.385 71.2109 452.666 66.3047C454.948 61.3984 458.213 57.6172 462.463 54.9609C466.744 52.3047 471.682 50.9766 477.276 50.9766C484.807 50.9766 490.869 53.0234 495.463 57.1172C500.057 61.2109 502.729 66.9922 503.479 74.4609H491.666C491.104 69.5547 489.666 66.0234 487.354 63.8672C485.073 61.6797 481.713 60.5859 477.276 60.5859C472.119 60.5859 468.151 62.4766 465.369 66.2578C462.619 70.0078 461.213 75.5234 461.151 82.8047V88.8516C461.151 96.2266 462.463 101.852 465.088 105.727C467.744 109.602 471.619 111.539 476.713 111.539C481.369 111.539 484.869 110.492 487.213 108.398C489.557 106.305 491.041 102.82 491.666 97.9453H503.479ZM555.93 89.6953H527.899V110.695H560.664V120.164H516.039V51.9141H560.336V61.4766H527.899V80.3203H555.93V89.6953ZM647.989 51.9141V97.5234C647.989 104.773 645.661 110.523 641.004 114.773C636.379 118.992 630.208 121.102 622.489 121.102C614.676 121.102 608.473 119.023 603.879 114.867C599.286 110.68 596.989 104.883 596.989 97.4766V51.9141H608.801V97.5703C608.801 102.133 609.958 105.617 612.27 108.023C614.583 110.43 617.989 111.633 622.489 111.633C631.614 111.633 636.176 106.82 636.176 97.1953V51.9141H647.989ZM674.471 94.8047V120.164H662.612V51.9141H688.721C696.346 51.9141 702.393 53.8984 706.862 57.8672C711.362 61.8359 713.612 67.0859 713.612 73.6172C713.612 80.3047 711.409 85.5078 707.003 89.2266C702.628 92.9453 696.487 94.8047 688.581 94.8047H674.471ZM674.471 85.2891H688.721C692.94 85.2891 696.159 84.3047 698.378 82.3359C700.596 80.3359 701.706 77.4609 701.706 73.7109C701.706 70.0234 700.581 67.0859 698.331 64.8984C696.081 62.6797 692.987 61.5391 689.049 61.4766H674.471V85.2891Z" fill="white"/>
<defs>
<linearGradient id="paint0_linear" x1="-147.29" y1="64.1315" x2="154.431" y2="205.519" gradientUnits="userSpaceOnUse">
<stop stop-color="#1994C5"/>
<stop offset="0.76115" stop-color="#1994C5" stop-opacity="0.349754"/>
<stop offset="0.833165" stop-color="#1994C5" stop-opacity="0.178663"/>
<stop offset="1" stop-color="#1994C5" stop-opacity="0"/>
</linearGradient>
</defs>
</svg>
