<svg width="1023" height="786" viewBox="0 0 1023 786" fill="none" xmlns="http://www.w3.org/2000/svg">
<g clip-path="url(#clip0)">
<path opacity="0.1" d="M468.63 693.88C703.351 693.88 893.63 679.105 893.63 660.88C893.63 642.654 703.351 627.88 468.63 627.88C233.909 627.88 43.6299 642.654 43.6299 660.88C43.6299 679.105 233.909 693.88 468.63 693.88Z" fill="#17688D"/>
<g opacity="0.1">
<path opacity="0.1" d="M845.05 472.84C842.51 465.13 832.21 461.58 822.05 464.92C820.586 465.397 819.17 466.009 817.82 466.75C817.17 466.57 816.5 466.41 815.82 466.29C816.375 464.072 816.588 461.782 816.45 459.5C819.955 457.155 822.798 453.949 824.707 450.189C826.615 446.43 827.526 442.242 827.35 438.03C830.845 435.678 833.679 432.47 835.58 428.711C837.482 424.952 838.387 420.768 838.21 416.56C841.732 414.239 844.573 411.022 846.44 407.24C851.34 397.54 849.31 386.64 841.9 382.89C834.49 379.14 824.5 383.97 819.6 393.67C817.658 397.413 816.75 401.608 816.97 405.82C813.475 408.171 810.641 411.379 808.74 415.138C806.839 418.897 805.933 423.081 806.11 427.29C802.615 429.641 799.781 432.849 797.88 436.608C795.979 440.367 795.073 444.551 795.25 448.76C791.747 451.108 788.905 454.316 786.997 458.077C785.088 461.838 784.177 466.026 784.35 470.24C780.828 472.561 777.988 475.778 776.12 479.56C775.199 481.383 774.501 483.31 774.04 485.3C772.812 483.504 771.314 481.909 769.6 480.57C769.404 479.042 769.069 477.536 768.6 476.07C765.26 465.9 756.3 459.7 748.6 462.24C740.9 464.78 737.34 475.07 740.68 485.24C742.047 489.6 744.678 493.457 748.24 496.32C748.436 497.847 748.771 499.353 749.24 500.82C751.18 506.72 755.01 511.28 759.39 513.57C759.002 514.843 758.725 516.148 758.56 517.47C754.43 521.442 751.772 526.699 751.02 532.38C746.887 536.354 744.228 541.615 743.48 547.3C741.434 549.265 739.742 551.569 738.48 554.11C733.57 563.81 735.6 574.72 743.01 578.46C750.42 582.2 760.41 577.39 765.32 567.68C766.614 565.148 767.46 562.41 767.82 559.59C771.95 555.617 774.609 550.36 775.36 544.68C779.493 540.706 782.152 535.444 782.9 529.76C787.002 525.778 789.629 520.521 790.35 514.85C794.499 510.876 797.166 505.606 797.91 499.91C799.182 498.704 800.319 497.362 801.3 495.91C805.386 496.748 809.621 496.482 813.57 495.14C815.034 494.662 816.45 494.05 817.8 493.31C822.223 494.476 826.892 494.309 831.22 492.83C841.35 489.52 847.58 480.56 845.05 472.84Z" fill="#3F3D56"/>
<g opacity="0.1">
<path opacity="0.1" d="M827.12 442.44C826.071 443.472 824.918 444.393 823.68 445.19C823.837 448.045 823.461 450.903 822.57 453.62C823.357 452.532 824.059 451.385 824.67 450.19C825.91 447.76 826.738 445.141 827.12 442.44Z" fill="black"/>
<path opacity="0.1" d="M837.98 420.97C836.931 422.002 835.778 422.923 834.54 423.72C834.697 426.574 834.321 429.433 833.43 432.15C834.219 431.06 834.921 429.91 835.53 428.71C836.766 426.281 837.593 423.667 837.98 420.97Z" fill="black"/>
<path opacity="0.1" d="M813.35 412.98C813.258 411.508 813.315 410.03 813.52 408.57C811.578 410.484 809.964 412.703 808.74 415.14C808.137 416.341 807.628 417.589 807.22 418.87C808.875 416.539 810.955 414.541 813.35 412.98V412.98Z" fill="black"/>
<path opacity="0.1" d="M744.42 542.91C745.294 541.692 746.281 540.56 747.37 539.53C747.54 538.173 747.831 536.835 748.24 535.53C747.37 536.698 746.604 537.939 745.95 539.24C745.345 540.422 744.834 541.649 744.42 542.91V542.91Z" fill="black"/>
<path opacity="0.1" d="M751.96 528.01C752.834 526.792 753.821 525.66 754.91 524.63C755.073 523.308 755.351 522.004 755.74 520.73V520.73C754.91 521.864 754.174 523.065 753.54 524.32C752.922 525.509 752.394 526.742 751.96 528.01V528.01Z" fill="black"/>
<path opacity="0.1" d="M816.25 463.91C815.206 464.941 814.057 465.86 812.82 466.65C812.957 468.932 812.744 471.222 812.19 473.44C812.865 473.556 813.532 473.71 814.19 473.9C815.54 473.159 816.956 472.547 818.42 472.07C828.6 468.73 838.89 472.28 841.42 479.99C842.048 481.928 842.158 483.996 841.74 485.99C845.09 482.05 846.48 477.25 845.04 472.85C842.5 465.14 832.2 461.59 822.04 464.93C820.576 465.407 819.16 466.019 817.81 466.76C817.16 466.58 816.49 466.42 815.81 466.3C816 465.5 816.14 464.71 816.25 463.91Z" fill="black"/>
<path opacity="0.1" d="M740.7 550.4C739.831 551.568 739.064 552.809 738.41 554.11C737.802 555.316 737.288 556.566 736.87 557.85C737.763 556.626 738.767 555.488 739.87 554.45C740.024 553.078 740.302 551.722 740.7 550.4V550.4Z" fill="black"/>
<path opacity="0.1" d="M802.44 434.45C802.349 432.978 802.406 431.501 802.61 430.04C800.668 431.954 799.053 434.173 797.83 436.61C797.226 437.812 796.718 439.059 796.31 440.34C797.965 438.009 800.045 436.011 802.44 434.45V434.45Z" fill="black"/>
<path opacity="0.1" d="M786.75 522.01C786.553 523.497 786.218 524.964 785.75 526.39C786.532 525.297 787.231 524.147 787.84 522.95C788.495 521.665 789.041 520.327 789.47 518.95C788.651 520.045 787.741 521.068 786.75 522.01V522.01Z" fill="black"/>
<path opacity="0.1" d="M771.67 551.83C771.473 553.317 771.139 554.784 770.67 556.21C771.459 555.12 772.161 553.97 772.77 552.77C773.421 551.483 773.966 550.145 774.4 548.77C773.581 549.867 772.667 550.891 771.67 551.83V551.83Z" fill="black"/>
<path opacity="0.1" d="M779.21 536.91C779.014 538.398 778.679 539.864 778.21 541.29C779.007 540.218 779.722 539.088 780.35 537.91C781.006 536.625 781.551 535.287 781.98 533.91C781.143 534.986 780.216 535.989 779.21 536.91V536.91Z" fill="black"/>
<path opacity="0.1" d="M794.29 507.1C794.094 508.584 793.759 510.047 793.29 511.47C794.074 510.382 794.773 509.235 795.38 508.04C796.043 506.733 796.591 505.371 797.02 503.97C796.205 505.093 795.292 506.14 794.29 507.1V507.1Z" fill="black"/>
<path opacity="0.1" d="M744.92 469.39C752.64 466.86 761.6 473.05 764.92 483.22C765.388 484.69 765.723 486.199 765.92 487.73C767.634 489.069 769.132 490.664 770.36 492.46C770.82 490.467 771.519 488.536 772.44 486.71C772.79 486.03 773.17 485.38 773.56 484.71C772.425 483.139 771.079 481.732 769.56 480.53C769.364 479.002 769.029 477.496 768.56 476.03C765.22 465.86 756.26 459.66 748.56 462.2C744.16 463.64 741.12 467.61 739.94 472.63C741.293 471.139 743.009 470.023 744.92 469.39V469.39Z" fill="black"/>
<path opacity="0.1" d="M780.72 477.39C780.632 475.921 780.692 474.447 780.9 472.99C778.952 474.9 777.333 477.12 776.11 479.56C775.504 480.757 774.996 482.001 774.59 483.28C776.249 480.953 778.328 478.955 780.72 477.39V477.39Z" fill="black"/>
<path opacity="0.1" d="M791.58 455.91C791.492 454.441 791.552 452.967 791.76 451.51C789.81 453.415 788.191 455.632 786.97 458.07C786.366 459.271 785.858 460.518 785.45 461.8C787.105 459.469 789.185 457.47 791.58 455.91V455.91Z" fill="black"/>
<path opacity="0.1" d="M764.13 566.74C763.933 568.231 763.599 569.7 763.13 571.13C764.774 568.853 766.034 566.323 766.86 563.64C766.042 564.751 765.129 565.788 764.13 566.74V566.74Z" fill="black"/>
</g>
<path opacity="0.1" d="M859.87 373.62C863.395 371.302 866.236 368.084 868.1 364.3C873.01 354.6 870.98 343.69 863.57 339.94C856.16 336.19 846.17 341.02 841.26 350.73C839.315 354.483 838.411 358.689 838.64 362.91C835.145 365.261 832.311 368.47 830.41 372.228C828.509 375.987 827.603 380.171 827.78 384.38C824.253 386.695 821.411 389.914 819.55 393.7C818.948 394.887 818.443 396.121 818.04 397.39C820.651 393.609 824.437 390.797 828.81 389.39C829.308 390.93 830.106 392.356 831.159 393.586C832.212 394.816 833.498 395.824 834.944 396.554C836.389 397.283 837.964 397.718 839.579 397.834C841.194 397.95 842.815 397.745 844.35 397.23C845.827 401.578 845.827 406.292 844.35 410.64C845.131 409.563 845.827 408.426 846.43 407.24C848.37 403.495 849.274 399.301 849.05 395.09C852.549 392.743 855.386 389.535 857.288 385.775C859.19 382.015 860.093 377.829 859.91 373.62H859.87Z" fill="#3F3D56"/>
<path opacity="0.1" d="M979.23 235.98C982.245 234.573 985.158 232.959 987.95 231.15L955.62 207.53L993.62 227.1C1001.31 220.993 1007.67 213.381 1012.31 204.73C1016.95 196.079 1019.78 186.572 1020.62 176.79L956.04 177.45L1020.76 166.63C1020.09 156.838 1017.43 147.287 1012.93 138.562C1008.44 129.838 1002.21 122.124 994.621 115.896C987.036 109.667 978.258 105.055 968.826 102.343C959.393 99.6304 949.506 98.8751 939.771 100.123C930.037 101.371 920.66 104.596 912.217 109.6C903.774 114.605 896.443 121.282 890.675 129.222C884.907 137.163 880.823 146.199 878.674 155.775C876.526 165.351 876.357 175.266 878.18 184.91C873.486 187.092 869.04 189.775 864.92 192.91L898.67 239.84L858.15 198.76C849.598 207.157 843.276 217.554 839.754 229.01C836.232 240.466 835.622 252.619 837.98 264.37C825.739 270.083 815.353 279.125 808.008 290.461C800.662 301.798 796.654 314.972 796.442 328.479C796.229 341.986 799.82 355.28 806.805 366.842C813.79 378.404 823.886 387.768 835.941 393.864C847.996 399.96 861.522 402.542 874.975 401.315C888.427 400.087 901.263 395.1 912.015 386.924C922.768 378.747 931.003 367.71 935.78 355.075C940.557 342.439 941.683 328.715 939.03 315.47C953.678 308.652 965.607 297.105 972.898 282.688C980.189 268.27 982.42 251.818 979.23 235.98Z" fill="#17688D"/>
<path opacity="0.1" d="M844.35 217.66C837.035 232.071 834.798 248.529 838 264.37C825.76 270.083 815.373 279.125 808.028 290.462C800.683 301.798 796.675 314.973 796.462 328.479C796.249 341.986 799.841 355.28 806.826 366.842C813.81 378.405 823.907 387.769 835.962 393.865C848.016 399.961 861.543 402.542 874.995 401.315C888.448 400.088 901.283 395.101 912.036 386.924C922.788 378.747 931.024 367.71 935.801 355.075C940.578 342.44 941.704 328.715 939.05 315.47C953.18 308.91 847.97 210.45 844.35 217.66Z" fill="black"/>
<path opacity="0.1" d="M925.49 113.41C931.394 113.41 936.18 108.624 936.18 102.72C936.18 96.8159 931.394 92.0298 925.49 92.0298C919.586 92.0298 914.8 96.8159 914.8 102.72C914.8 108.624 919.586 113.41 925.49 113.41Z" fill="#17688D"/>
<path opacity="0.1" d="M987.93 120.27C993.834 120.27 998.62 115.484 998.62 109.58C998.62 103.676 993.834 98.8896 987.93 98.8896C982.026 98.8896 977.24 103.676 977.24 109.58C977.24 115.484 982.026 120.27 987.93 120.27Z" fill="#17688D"/>
<path opacity="0.1" d="M1012.01 216.33C1017.91 216.33 1022.7 211.544 1022.7 205.64C1022.7 199.736 1017.91 194.95 1012.01 194.95C1006.11 194.95 1001.32 199.736 1001.32 205.64C1001.32 211.544 1006.11 216.33 1012.01 216.33Z" fill="#17688D"/>
<path opacity="0.1" d="M979.51 264.3C985.414 264.3 990.2 259.514 990.2 253.61C990.2 247.706 985.414 242.92 979.51 242.92C973.606 242.92 968.82 247.706 968.82 253.61C968.82 259.514 973.606 264.3 979.51 264.3Z" fill="#17688D"/>
<path opacity="0.1" d="M935.11 363.93C941.014 363.93 945.8 359.144 945.8 353.24C945.8 347.336 941.014 342.55 935.11 342.55C929.206 342.55 924.42 347.336 924.42 353.24C924.42 359.144 929.206 363.93 935.11 363.93Z" fill="#17688D"/>
<path opacity="0.1" d="M935.11 363.93C941.014 363.93 945.8 359.144 945.8 353.24C945.8 347.336 941.014 342.55 935.11 342.55C929.206 342.55 924.42 347.336 924.42 353.24C924.42 359.144 929.206 363.93 935.11 363.93Z" fill="black"/>
<path opacity="0.1" d="M836.39 251.09C842.294 251.09 847.08 246.304 847.08 240.4C847.08 234.496 842.294 229.71 836.39 229.71C830.486 229.71 825.7 234.496 825.7 240.4C825.7 246.304 830.486 251.09 836.39 251.09Z" fill="#17688D"/>
<path opacity="0.1" d="M836.39 251.09C842.294 251.09 847.08 246.304 847.08 240.4C847.08 234.496 842.294 229.71 836.39 229.71C830.486 229.71 825.7 234.496 825.7 240.4C825.7 246.304 830.486 251.09 836.39 251.09Z" fill="black"/>
<path opacity="0.1" d="M824.99 416.23C817.88 412.64 815.73 402.47 819.88 393.09C819.66 393.47 819.45 393.86 819.25 394.27C814.34 403.97 816.37 414.87 823.78 418.62C831.19 422.37 841.18 417.54 846.08 407.84C846.29 407.44 846.47 407.03 846.65 406.63C841.56 415.54 832.09 419.83 824.99 416.23Z" fill="black"/>
<path opacity="0.1" d="M814.43 437.11C807.33 433.52 805.17 423.35 809.33 413.96C809.11 414.35 808.89 414.74 808.69 415.14C803.78 424.84 805.81 435.75 813.22 439.49C820.63 443.23 830.62 438.42 835.53 428.71C835.73 428.31 835.92 427.91 836.1 427.5C831 436.41 821.54 440.7 814.43 437.11Z" fill="black"/>
<path opacity="0.1" d="M803.87 457.98C796.77 454.39 794.61 444.22 798.77 434.84C798.55 435.22 798.33 435.61 798.13 436.02C793.22 445.72 795.26 456.62 802.67 460.37C810.08 464.12 820.06 459.29 824.97 449.59C825.17 449.19 825.36 448.78 825.54 448.38C820.45 457.29 810.98 461.58 803.87 457.98Z" fill="black"/>
<path opacity="0.1" d="M793.35 478.91C786.24 475.32 784.09 465.15 788.24 455.77C788.02 456.15 787.81 456.54 787.6 456.94C782.7 466.64 784.73 477.55 792.14 481.3C799.55 485.05 809.54 480.22 814.44 470.51C814.65 470.11 814.83 469.71 815.01 469.3C809.89 478.16 800.42 482.45 793.35 478.91Z" fill="black"/>
<path opacity="0.1" d="M782.76 499.73C775.65 496.14 773.5 485.97 777.65 476.59C777.43 476.97 777.22 477.36 777.02 477.77C772.11 487.47 774.14 498.37 781.55 502.12C788.96 505.87 798.95 501.04 803.86 491.34C804.06 490.94 804.25 490.53 804.43 490.13C799.35 499.04 789.86 503.33 782.76 499.73Z" fill="black"/>
<path opacity="0.1" d="M772.2 520.61C765.1 517.02 762.94 506.85 767.1 497.47C766.88 497.85 766.66 498.24 766.46 498.64C761.55 508.34 763.58 519.25 771 523C778.42 526.75 788.35 521.91 793.35 512.21C793.55 511.81 793.74 511.41 793.92 511C788.77 519.91 779.35 524.2 772.2 520.61Z" fill="black"/>
<path opacity="0.1" d="M761.64 541.48C754.54 537.89 752.38 527.72 756.54 518.34C756.32 518.73 756.11 519.11 755.9 519.52C751 529.22 753.03 540.12 760.44 543.87C767.85 547.62 777.84 542.79 782.74 533.09C782.95 532.69 783.13 532.28 783.31 531.88C778.22 540.79 768.75 545.08 761.64 541.48Z" fill="black"/>
<path opacity="0.1" d="M751.09 562.36C743.98 558.77 741.83 548.6 745.98 539.22C745.76 539.6 745.55 539.99 745.35 540.39C740.44 550.09 742.47 561 749.88 564.75C757.29 568.5 767.28 563.67 772.19 553.96C772.39 553.56 772.57 553.16 772.75 552.75C767.66 561.66 758.19 565.91 751.09 562.36Z" fill="black"/>
<path opacity="0.1" d="M744.15 576.08C737.05 572.48 734.89 562.32 739.05 552.93C738.83 553.32 738.61 553.71 738.41 554.11C733.5 563.81 735.53 574.72 742.94 578.46C750.35 582.2 760.34 577.39 765.25 567.68C765.45 567.28 765.64 566.88 765.82 566.47C760.72 575.38 751.25 579.67 744.15 576.08Z" fill="black"/>
<path opacity="0.1" d="M934.94 483.17C936.042 480.01 936.714 476.718 936.94 473.38C937.675 473.378 938.401 473.225 939.073 472.93C939.746 472.635 940.35 472.204 940.849 471.665C941.348 471.125 941.73 470.489 941.971 469.795C942.213 469.102 942.309 468.366 942.253 467.633C942.197 466.901 941.991 466.188 941.647 465.539C941.303 464.89 940.829 464.319 940.254 463.862C939.679 463.404 939.017 463.07 938.307 462.881C937.597 462.691 936.856 462.65 936.13 462.76C934.941 457.347 932.562 452.267 929.165 447.889C925.768 443.511 921.438 439.945 916.49 437.45C917.129 436.184 917.24 434.717 916.797 433.371C916.354 432.024 915.395 430.909 914.13 430.27C912.865 429.63 911.398 429.52 910.051 429.963C908.705 430.405 907.589 431.364 906.95 432.63C906.719 433.079 906.557 433.561 906.47 434.06C900.603 432.966 894.559 433.29 888.842 435.003C883.125 436.716 877.899 439.77 873.6 443.91C870.353 443.384 867.052 443.287 863.78 443.62L859.45 463.33L859.19 444.33C854.22 445.419 849.525 447.51 845.391 450.476C841.257 453.442 837.771 457.219 835.146 461.578C832.521 465.936 830.813 470.784 830.125 475.825C829.438 480.866 829.786 485.995 831.147 490.897C832.509 495.799 834.856 500.372 838.045 504.337C841.234 508.301 845.198 511.573 849.695 513.954C854.191 516.334 859.126 517.772 864.198 518.181C869.269 518.589 874.37 517.959 879.19 516.33C879.705 517.26 880.49 518.013 881.44 518.49C882.419 518.987 883.528 519.17 884.615 519.015C885.703 518.859 886.715 518.372 887.516 517.62C888.316 516.868 888.865 515.887 889.088 514.811C889.31 513.736 889.196 512.618 888.76 511.61C890.466 510.438 892.071 509.127 893.56 507.69C901.367 508.959 909.375 507.724 916.437 504.161C923.499 500.599 929.251 494.893 932.87 487.86L912.72 484.47L934.94 483.17Z" fill="#17688D"/>
<g opacity="0.1">
<path opacity="0.1" d="M903.81 492.74C896.37 482.92 891.81 471.29 886.56 460.13C884.452 455.549 882.092 451.089 879.49 446.77L875.55 442.18C874.89 442.74 874.23 443.32 873.55 443.93C870.304 443.404 867.002 443.307 863.73 443.64L859.4 463.35L859.14 444.35C854.17 445.439 849.475 447.53 845.341 450.496C841.207 453.462 837.721 457.239 835.096 461.598C832.471 465.956 830.763 470.804 830.076 475.845C829.388 480.887 829.736 486.015 831.098 490.917C832.459 495.819 834.806 500.392 837.995 504.357C841.184 508.321 845.148 511.593 849.645 513.974C854.142 516.354 859.076 517.793 864.148 518.201C869.219 518.61 874.321 517.98 879.14 516.35C879.656 517.28 880.44 518.033 881.39 518.51C882.369 519.007 883.478 519.19 884.566 519.035C885.653 518.879 886.666 518.392 887.466 517.64C888.266 516.888 888.815 515.907 889.038 514.831C889.26 513.756 889.146 512.638 888.71 511.63C890.416 510.458 892.022 509.147 893.51 507.71C901.154 508.947 908.993 507.787 915.95 504.39C911.306 501.181 907.207 497.248 903.81 492.74V492.74Z" fill="black"/>
</g>
<path opacity="0.1" d="M772.06 450.54C772.472 449.725 772.669 448.817 772.63 447.905C772.592 446.992 772.32 446.104 771.84 445.327C771.36 444.549 770.689 443.908 769.891 443.464C769.093 443.019 768.194 442.787 767.28 442.79C765.764 434.754 761.654 427.436 755.58 421.96C756.559 418.142 756.93 414.194 756.68 410.26L737.03 406.91L756.11 405.71C755.767 403.918 755.296 402.154 754.7 400.43C755.443 399.919 756.048 399.232 756.46 398.43C756.941 397.474 757.125 396.396 756.987 395.335C756.849 394.273 756.396 393.278 755.687 392.477C754.977 391.676 754.043 391.106 753.007 390.841C751.97 390.576 750.877 390.628 749.87 390.99C744.817 383.85 737.422 378.705 728.97 376.45C720.518 374.196 711.543 374.973 703.605 378.648C695.666 382.323 689.266 388.663 685.517 396.567C681.767 404.47 680.905 413.437 683.08 421.91C681.923 422.398 680.979 423.285 680.42 424.41C679.93 425.378 679.746 426.473 679.893 427.549C680.041 428.624 680.513 429.629 681.246 430.43C681.979 431.23 682.939 431.788 683.997 432.03C685.056 432.271 686.162 432.184 687.17 431.78C689.088 435.001 691.478 437.917 694.26 440.43C692.235 448.328 692.846 456.671 696 464.19L722.35 457.35L698.85 469.71C703.005 476.313 709.12 481.451 716.339 484.408C723.559 487.364 731.522 487.991 739.114 486.199C746.707 484.408 753.55 480.288 758.686 474.416C763.822 468.544 766.995 461.214 767.76 453.45C768.665 453.372 769.536 453.063 770.288 452.554C771.041 452.045 771.651 451.351 772.06 450.54V450.54Z" fill="#17688D"/>
<path opacity="0.1" d="M772.06 450.54C772.473 449.724 772.669 448.817 772.63 447.904C772.592 446.991 772.32 446.104 771.84 445.326C771.36 444.549 770.689 443.907 769.891 443.463C769.093 443.019 768.194 442.787 767.28 442.79C765.765 434.753 761.654 427.436 755.58 421.96C755.74 421.33 755.88 420.71 756 420.08C755.303 420.585 754.656 421.158 754.07 421.79C750.52 425.68 748.7 430.91 745.19 434.84C741.05 439.48 734.85 441.9 728.66 442.55C722.47 443.2 716.24 442.25 710.13 441.06C705.07 440.06 699.94 438.9 694.81 439.39C694.31 439.39 693.81 439.5 693.35 439.58C693.65 439.87 693.95 440.16 694.26 440.44C692.235 448.338 692.846 456.681 696 464.2L722.35 457.35L698.85 469.71C703.005 476.312 709.12 481.451 716.34 484.408C723.559 487.364 731.522 487.99 739.114 486.199C746.707 484.407 753.55 480.287 758.686 474.415C763.822 468.543 766.995 461.213 767.76 453.45C768.666 453.371 769.536 453.063 770.289 452.554C771.041 452.044 771.651 451.351 772.06 450.54V450.54Z" fill="black"/>
</g>
<g opacity="0.1">
<path opacity="0.1" d="M89.4899 511.24C90.7699 507.35 95.9599 505.56 101.08 507.24C101.816 507.482 102.529 507.79 103.21 508.16C103.54 508.07 103.88 507.99 104.21 507.93C103.929 506.813 103.821 505.66 103.89 504.51C102.132 503.322 100.707 501.704 99.7501 499.81C98.7929 497.917 98.335 495.81 98.4199 493.69C96.647 492.523 95.2177 490.904 94.2799 489C93.3026 487.114 92.8437 485.002 92.9499 482.88C91.1782 481.708 89.7495 480.086 88.8099 478.18C86.3499 473.3 87.3499 467.81 91.0999 465.91C94.8499 464.01 99.8699 466.46 102.34 471.34C103.315 473.23 103.771 475.346 103.66 477.47C105.422 478.652 106.851 480.267 107.809 482.16C108.767 484.053 109.222 486.16 109.13 488.28C110.892 489.465 112.32 491.082 113.277 492.976C114.235 494.871 114.691 496.979 114.6 499.1C116.362 500.282 117.791 501.897 118.749 503.79C119.707 505.683 120.162 507.79 120.07 509.91C121.845 511.081 123.278 512.703 124.22 514.61C124.67 515.533 125.005 516.506 125.22 517.51C125.836 516.604 126.588 515.797 127.45 515.12C127.553 514.349 127.727 513.589 127.97 512.85C129.66 507.73 134.17 504.61 138.06 505.85C141.95 507.09 143.73 512.32 142.06 517.44C141.37 519.639 140.044 521.584 138.25 523.03C138.146 523.798 137.972 524.554 137.73 525.29C136.909 528.004 135.081 530.301 132.62 531.71C132.813 532.365 132.953 533.033 133.04 533.71C134.072 534.701 134.928 535.861 135.57 537.14C136.224 538.416 136.651 539.797 136.83 541.22C137.866 542.21 138.725 543.37 139.37 544.65C140.023 545.927 140.449 547.307 140.63 548.73C141.669 549.722 142.528 550.886 143.17 552.17C145.64 557.05 144.62 562.55 140.89 564.43C137.16 566.31 132.12 563.89 129.65 559C128.999 557.723 128.572 556.342 128.39 554.92C126.306 552.922 124.966 550.273 124.59 547.41C122.506 545.412 121.166 542.763 120.79 539.9C119.754 538.91 118.895 537.75 118.25 536.47C117.603 535.191 117.177 533.811 116.99 532.39C115.957 531.399 115.102 530.239 114.46 528.96C113.806 527.684 113.379 526.303 113.2 524.88C112.556 524.28 111.982 523.609 111.49 522.88C109.432 523.301 107.3 523.17 105.31 522.5C104.571 522.253 103.855 521.942 103.17 521.57C100.946 522.161 98.5964 522.077 96.4199 521.33C91.3499 519.64 88.2199 515.13 89.4899 511.24Z" fill="#3F3D56"/>
<g opacity="0.1">
<path opacity="0.1" d="M98.52 495.91C99.0502 496.433 99.6333 496.899 100.26 497.3C100.175 498.736 100.365 500.175 100.82 501.54C100.418 500.995 100.064 500.416 99.76 499.81C99.1346 498.587 98.7156 497.27 98.52 495.91V495.91Z" fill="black"/>
<path opacity="0.1" d="M93.05 485.11C93.5829 485.627 94.1658 486.089 94.7901 486.49C94.706 487.93 94.8961 489.372 95.3501 490.74C94.1387 489.078 93.3494 487.146 93.05 485.11V485.11Z" fill="black"/>
<path opacity="0.1" d="M105.48 481.08C105.528 480.34 105.501 479.596 105.4 478.86C106.378 479.826 107.192 480.944 107.81 482.17C108.112 482.776 108.366 483.405 108.57 484.05C107.737 482.874 106.688 481.866 105.48 481.08V481.08Z" fill="black"/>
<path opacity="0.1" d="M140.18 546.54C139.743 545.927 139.247 545.358 138.7 544.84C138.609 544.163 138.462 543.494 138.26 542.84C138.694 543.428 139.079 544.05 139.41 544.7C139.714 545.293 139.971 545.908 140.18 546.54V546.54Z" fill="black"/>
<path opacity="0.1" d="M136.35 539.03C135.913 538.417 135.417 537.848 134.87 537.33C134.789 536.652 134.648 535.983 134.45 535.33C135.274 536.446 135.909 537.689 136.33 539.01L136.35 539.03Z" fill="black"/>
<path opacity="0.1" d="M104 506.75C104.525 507.269 105.105 507.728 105.73 508.12C105.655 509.27 105.763 510.424 106.05 511.54C105.713 511.6 105.379 511.677 105.05 511.77C104.365 511.401 103.649 511.094 102.91 510.85C97.7901 509.17 92.6001 510.96 91.3301 514.85C91.0118 515.818 90.9532 516.853 91.1601 517.85C90.3374 516.985 89.7522 515.922 89.4614 514.764C89.1706 513.605 89.1839 512.392 89.5001 511.24C90.7801 507.35 95.9701 505.56 101.09 507.24C101.827 507.482 102.539 507.79 103.22 508.16C103.55 508.07 103.89 507.99 104.22 507.93C104.124 507.542 104.05 507.148 104 506.75V506.75Z" fill="black"/>
<path opacity="0.1" d="M142.06 550.311C142.496 550.9 142.881 551.525 143.21 552.181C143.515 552.786 143.773 553.415 143.98 554.061C143.543 553.444 143.047 552.872 142.5 552.351C142.411 551.659 142.264 550.977 142.06 550.311V550.311Z" fill="black"/>
<path opacity="0.1" d="M110.95 491.91C110.998 491.17 110.971 490.426 110.87 489.69C111.85 490.654 112.664 491.772 113.28 493C113.582 493.603 113.836 494.228 114.04 494.87C113.207 493.697 112.158 492.693 110.95 491.91V491.91Z" fill="black"/>
<path opacity="0.1" d="M118.86 536.01C118.954 536.758 119.118 537.494 119.35 538.21C118.517 537.068 117.881 535.793 117.47 534.44C117.886 535.004 118.351 535.53 118.86 536.01V536.01Z" fill="black"/>
<path opacity="0.1" d="M126.45 551.03C126.551 551.777 126.719 552.513 126.95 553.23C126.548 552.685 126.194 552.106 125.89 551.5C125.561 550.858 125.287 550.189 125.07 549.5C125.489 550.046 125.951 550.558 126.45 551.03V551.03Z" fill="black"/>
<path opacity="0.1" d="M122.66 543.52C122.754 544.267 122.918 545.004 123.15 545.72C122.752 545.172 122.397 544.594 122.09 543.99C121.76 543.348 121.486 542.679 121.27 541.99C121.687 542.54 122.153 543.052 122.66 543.52V543.52Z" fill="black"/>
<path opacity="0.1" d="M115.06 528.49C115.153 529.241 115.317 529.981 115.55 530.7C115.171 530.151 114.837 529.573 114.55 528.97C114.215 528.329 113.937 527.66 113.72 526.97C114.12 527.517 114.568 528.025 115.06 528.49V528.49Z" fill="black"/>
<path opacity="0.1" d="M139.93 509.5C136.04 508.22 131.53 511.34 129.85 516.5C129.607 517.239 129.433 517.999 129.33 518.77C128.465 519.443 127.709 520.246 127.09 521.15C126.858 520.145 126.505 519.171 126.04 518.25C125.87 517.91 125.68 517.58 125.48 517.25C126.048 516.462 126.721 515.755 127.48 515.15C127.583 514.379 127.757 513.619 128 512.88C129.69 507.76 134.2 504.64 138.09 505.88C139.205 506.308 140.191 507.018 140.952 507.939C141.712 508.861 142.221 509.964 142.43 511.14C141.75 510.389 140.89 509.824 139.93 509.5V509.5Z" fill="black"/>
<path opacity="0.1" d="M121.89 513.531C121.938 512.79 121.911 512.046 121.81 511.311C122.79 512.274 123.604 513.392 124.22 514.621C124.522 515.226 124.776 515.855 124.98 516.501C124.149 515.322 123.1 514.314 121.89 513.531V513.531Z" fill="black"/>
<path opacity="0.1" d="M116.42 502.71C116.468 501.969 116.441 501.226 116.34 500.49C117.315 501.457 118.129 502.575 118.75 503.8C119.052 504.406 119.306 505.035 119.51 505.68C118.677 504.504 117.628 503.496 116.42 502.71V502.71Z" fill="black"/>
<path opacity="0.1" d="M130.25 558.54C130.346 559.291 130.514 560.031 130.75 560.75C130.35 560.2 129.996 559.618 129.69 559.01C129.361 558.368 129.087 557.699 128.87 557.01C129.289 557.556 129.75 558.068 130.25 558.54Z" fill="black"/>
</g>
<path opacity="0.1" d="M82.0201 461.25C80.2472 460.083 78.8179 458.464 77.8801 456.56C75.4101 451.67 76.4301 446.18 80.1601 444.29C83.8901 442.4 88.9301 444.83 91.4001 449.72C92.3771 451.606 92.8328 453.719 92.7201 455.84C94.4818 457.025 95.9099 458.641 96.8677 460.536C97.8254 462.431 98.2808 464.539 98.1901 466.66C99.9642 467.829 101.396 469.447 102.34 471.35C102.64 471.95 102.894 472.572 103.1 473.21C101.775 471.32 99.8683 469.915 97.6701 469.21C97.4252 469.991 97.0271 470.716 96.4991 471.341C95.971 471.967 95.3235 472.481 94.5945 472.853C93.8655 473.226 93.0696 473.449 92.2532 473.51C91.4369 473.572 90.6165 473.469 89.8401 473.21C89.0987 475.399 89.0987 477.771 89.8401 479.96C89.4644 479.416 89.1301 478.844 88.8401 478.25C87.8629 476.364 87.4039 474.252 87.5101 472.13C85.7505 470.944 84.324 469.326 83.3664 467.432C82.4089 465.538 81.9523 463.431 82.0401 461.31L82.0201 461.25Z" fill="#3F3D56"/>
<path opacity="0.1" d="M21.9 391.91C20.3831 391.201 18.9164 390.389 17.51 389.48L33.79 377.58L14.65 387.43C10.7801 384.353 7.57885 380.519 5.2421 376.161C2.90536 371.804 1.48229 367.016 1.05999 362.09L33.6 362.43L0.98999 356.97C1.27078 351.995 2.57301 347.132 4.81555 342.682C7.0581 338.233 10.1929 334.293 14.0247 331.108C17.8564 327.922 22.3031 325.561 27.0875 324.169C31.8719 322.777 36.8917 322.386 41.834 323.019C46.7762 323.652 51.5352 325.297 55.8143 327.849C60.0934 330.402 63.801 333.809 66.7061 337.857C69.6112 341.905 71.6515 346.508 72.6999 351.379C73.7483 356.25 73.7824 361.285 72.8 366.17C75.1621 367.263 77.4013 368.604 79.48 370.17L62.48 393.81L82.89 373.13C87.1968 377.361 90.3812 382.598 92.1552 388.368C93.9291 394.139 94.2367 400.261 93.05 406.18C99.2241 409.056 104.464 413.611 108.171 419.325C111.878 425.039 113.903 431.681 114.013 438.491C114.123 445.301 112.314 452.004 108.793 457.835C105.273 463.665 100.182 468.388 94.1042 471.461C88.0261 474.535 81.2058 475.836 74.423 475.216C67.6403 474.596 61.169 472.079 55.7492 467.954C50.3293 463.829 46.1797 458.262 43.7748 451.89C41.3699 445.518 40.8068 438.597 42.15 431.92C34.7809 428.486 28.7789 422.676 25.1068 415.422C21.4347 408.169 20.3054 399.892 21.9 391.92V391.91Z" fill="#17688D"/>
<path opacity="0.1" d="M89.8499 382.69C93.538 389.949 94.6657 398.241 93.0499 406.22C99.224 409.096 104.464 413.651 108.171 419.365C111.878 425.079 113.903 431.721 114.013 438.531C114.123 445.341 112.314 452.045 108.793 457.875C105.273 463.706 100.182 468.428 94.1041 471.501C88.026 474.575 81.2057 475.876 74.423 475.256C67.6402 474.636 61.1689 472.119 55.7491 467.995C50.3292 463.87 46.1796 458.303 43.7747 451.93C41.3698 445.558 40.8068 438.638 42.1499 431.96C35.0199 428.65 88.0199 379.06 89.8499 382.69Z" fill="black"/>
<path opacity="0.1" d="M48.9701 330.17C51.9469 330.17 54.3601 327.757 54.3601 324.78C54.3601 321.803 51.9469 319.39 48.9701 319.39C45.9933 319.39 43.5801 321.803 43.5801 324.78C43.5801 327.757 45.9933 330.17 48.9701 330.17Z" fill="#17688D"/>
<path opacity="0.1" d="M17.5101 333.63C20.4869 333.63 22.9001 331.217 22.9001 328.24C22.9001 325.263 20.4869 322.85 17.5101 322.85C14.5333 322.85 12.1201 325.263 12.1201 328.24C12.1201 331.217 14.5333 333.63 17.5101 333.63Z" fill="#17688D"/>
<path opacity="0.1" d="M5.39 382.02C8.36681 382.02 10.78 379.607 10.78 376.63C10.78 373.653 8.36681 371.24 5.39 371.24C2.41319 371.24 0 373.653 0 376.63C0 379.607 2.41319 382.02 5.39 382.02Z" fill="#17688D"/>
<path opacity="0.1" d="M21.7601 406.19C24.7369 406.19 27.1501 403.777 27.1501 400.8C27.1501 397.823 24.7369 395.41 21.7601 395.41C18.7833 395.41 16.3701 397.823 16.3701 400.8C16.3701 403.777 18.7833 406.19 21.7601 406.19Z" fill="#17688D"/>
<path opacity="0.1" d="M44.12 456.38C47.0968 456.38 49.51 453.967 49.51 450.99C49.51 448.013 47.0968 445.6 44.12 445.6C41.1432 445.6 38.73 448.013 38.73 450.99C38.73 453.967 41.1432 456.38 44.12 456.38Z" fill="#17688D"/>
<path opacity="0.1" d="M44.12 456.38C47.0968 456.38 49.51 453.967 49.51 450.99C49.51 448.013 47.0968 445.6 44.12 445.6C41.1432 445.6 38.73 448.013 38.73 450.99C38.73 453.967 41.1432 456.38 44.12 456.38Z" fill="black"/>
<path opacity="0.1" d="M93.85 399.53C96.8268 399.53 99.24 397.117 99.24 394.14C99.24 391.163 96.8268 388.75 93.85 388.75C90.8731 388.75 88.46 391.163 88.46 394.14C88.46 397.117 90.8731 399.53 93.85 399.53Z" fill="#17688D"/>
<path opacity="0.1" d="M93.85 399.53C96.8268 399.53 99.24 397.117 99.24 394.14C99.24 391.163 96.8268 388.75 93.85 388.75C90.8731 388.75 88.46 391.163 88.46 394.14C88.46 397.117 90.8731 399.53 93.85 399.53Z" fill="black"/>
<path opacity="0.1" d="M99.5999 482.72C103.18 480.91 104.26 475.79 102.17 471.06C102.28 471.26 102.39 471.45 102.49 471.65C104.96 476.54 103.94 482.03 100.2 483.92C96.4599 485.81 91.4399 483.38 88.9699 478.49C88.8699 478.29 88.7699 478.09 88.6799 477.88C91.2499 482.37 96.0199 484.53 99.5999 482.72Z" fill="black"/>
<path opacity="0.1" d="M104.91 493.24C108.49 491.43 109.58 486.3 107.49 481.58C107.6 481.77 107.71 481.97 107.81 482.17C110.28 487.06 109.26 492.55 105.52 494.44C101.78 496.33 96.76 493.9 94.29 489.01C94.18 488.81 94.09 488.6 94 488.4C96.57 492.91 101.35 495.05 104.91 493.24Z" fill="black"/>
<path opacity="0.1" d="M110.23 503.75C113.81 501.94 114.9 496.82 112.8 492.09C112.92 492.29 113.02 492.48 113.13 492.69C115.6 497.57 114.57 503.07 110.84 504.95C107.11 506.83 102.08 504.41 99.6101 499.52C99.5001 499.32 99.4101 499.12 99.3201 498.91C101.88 503.4 106.65 505.56 110.23 503.75Z" fill="black"/>
<path opacity="0.1" d="M115.55 514.27C119.13 512.46 120.22 507.34 118.12 502.61C118.23 502.8 118.34 503 118.44 503.2C120.92 508.09 119.89 513.58 116.16 515.47C112.43 517.36 107.39 514.93 104.92 510.04C104.82 509.84 104.73 509.63 104.64 509.43C107.2 513.91 111.97 516.08 115.55 514.27Z" fill="black"/>
<path opacity="0.1" d="M120.87 524.78C124.45 522.97 125.53 517.85 123.44 513.13C123.55 513.32 123.66 513.52 123.76 513.72C126.23 518.61 125.21 524.1 121.48 525.99C117.75 527.88 112.71 525.44 110.24 520.56C110.14 520.35 110.05 520.15 109.95 519.95C112.52 524.43 117.29 526.59 120.87 524.78Z" fill="black"/>
<path opacity="0.1" d="M126.19 535.3C129.77 533.49 130.85 528.37 128.76 523.64C128.87 523.84 128.98 524.03 129.08 524.23C131.55 529.12 130.53 534.61 126.8 536.5C123.07 538.39 118.03 535.96 115.56 531.07C115.46 530.87 115.36 530.67 115.27 530.46C117.84 534.91 122.61 537.11 126.19 535.3Z" fill="black"/>
<path opacity="0.1" d="M131.51 545.82C135.08 544.01 136.17 538.88 134.08 534.16C134.19 534.35 134.3 534.55 134.4 534.75C136.87 539.64 135.85 545.13 132.11 547.02C128.37 548.91 123.35 546.47 120.88 541.59C120.78 541.38 120.68 541.18 120.59 540.98C123.16 545.46 127.93 547.63 131.51 545.82Z" fill="black"/>
<path opacity="0.1" d="M136.82 556.33C140.4 554.52 141.49 549.4 139.39 544.67C139.51 544.87 139.61 545.06 139.72 545.27C142.19 550.15 141.16 555.65 137.43 557.53C133.7 559.41 128.67 556.99 126.2 552.1C126.09 551.9 126 551.7 125.91 551.49C128.48 555.98 133.24 558.14 136.82 556.33Z" fill="black"/>
<path opacity="0.1" d="M140.35 563.24C143.93 561.43 145.01 556.31 142.92 551.58C143.03 551.78 143.14 551.97 143.24 552.18C145.71 557.06 144.69 562.56 140.96 564.44C137.23 566.32 132.19 563.9 129.72 559.01C129.62 558.81 129.52 558.61 129.43 558.4C131.97 562.91 136.74 565.05 140.35 563.24Z" fill="black"/>
<path opacity="0.1" d="M44.2101 516.44C43.6547 514.85 43.3182 513.191 43.2101 511.51C42.8403 511.509 42.4748 511.431 42.1363 511.282C41.7978 511.133 41.4937 510.916 41.2429 510.645C40.9921 510.373 40.8 510.052 40.6786 509.703C40.5572 509.354 40.5092 508.983 40.5374 508.614C40.5657 508.246 40.6696 507.887 40.8428 507.56C41.016 507.233 41.2547 506.946 41.544 506.716C41.8332 506.485 42.1669 506.317 42.5241 506.221C42.8813 506.126 43.2544 506.105 43.6201 506.16C44.2201 503.434 45.4188 500.876 47.1293 498.671C48.8398 496.466 51.0193 494.669 53.5101 493.41C53.1878 492.772 53.1322 492.032 53.3553 491.354C53.5785 490.675 54.0622 490.112 54.7001 489.79C55.3379 489.468 56.0776 489.412 56.7565 489.635C57.4354 489.858 57.9978 490.342 58.3201 490.98C58.4371 491.206 58.5181 491.449 58.5601 491.7C61.5191 491.157 64.5649 491.327 67.4449 492.197C70.325 493.066 72.9561 494.61 75.1201 496.7C76.7729 496.429 78.4547 496.382 80.1201 496.56L82.3001 506.48L82.3501 496.91C84.8295 497.483 87.1672 498.552 89.2223 500.053C91.2774 501.554 93.0073 503.456 94.3077 505.643C95.6081 507.831 96.4521 510.259 96.7888 512.781C97.1255 515.304 96.948 517.868 96.2669 520.32C95.5858 522.772 94.4153 525.061 92.8259 527.049C91.2365 529.036 89.2611 530.681 87.0188 531.885C84.7765 533.088 82.3138 533.825 79.779 534.051C77.2442 534.277 74.6899 533.988 72.2701 533.2C72.0069 533.665 71.6143 534.044 71.1401 534.29C70.6458 534.539 70.0868 534.631 69.5388 534.552C68.9908 534.473 68.4803 534.228 68.0764 533.849C67.6726 533.47 67.395 532.977 67.2811 532.435C67.1673 531.893 67.2228 531.329 67.4401 530.82C66.5826 530.221 65.7765 529.552 65.0301 528.82C61.0966 529.457 57.0624 528.833 53.5056 527.036C49.9487 525.24 47.0518 522.364 45.2301 518.82L55.3801 517.11L44.2101 516.44Z" fill="#17688D"/>
<g opacity="0.1">
<path opacity="0.1" d="M59.89 521.26C63.64 516.26 65.94 510.46 68.58 504.84C69.6372 502.527 70.8258 500.277 72.14 498.1L74.14 495.79C74.48 496.08 74.81 496.37 75.14 496.67C76.7928 496.399 78.4746 496.352 80.14 496.53L82.32 506.45L82.35 496.91C84.8294 497.483 87.1672 498.553 89.2222 500.053C91.2773 501.554 93.0072 503.456 94.3076 505.643C95.608 507.831 96.452 510.259 96.7887 512.782C97.1254 515.304 96.9479 517.869 96.2668 520.321C95.5858 522.773 94.4152 525.061 92.8258 527.049C91.2364 529.036 89.261 530.681 87.0187 531.885C84.7765 533.088 82.3137 533.825 79.7789 534.051C77.2442 534.277 74.6898 533.988 72.27 533.2C72.0068 533.665 71.6142 534.044 71.14 534.29C70.6457 534.54 70.0867 534.631 69.5387 534.552C68.9907 534.473 68.4802 534.228 68.0764 533.849C67.6725 533.47 67.3949 532.977 67.281 532.435C67.1672 531.893 67.2227 531.329 67.44 530.82C66.5825 530.221 65.7764 529.552 65.03 528.82C61.1779 529.438 57.2291 528.855 53.72 527.15C56.0802 525.532 58.1637 523.543 59.89 521.26Z" fill="black"/>
</g>
<path opacity="0.1" d="M126.26 500C126.1 499.685 126.004 499.341 125.977 498.989C125.951 498.637 125.994 498.283 126.104 497.947C126.215 497.612 126.391 497.302 126.622 497.034C126.853 496.767 127.134 496.548 127.45 496.39C127.828 496.197 128.246 496.097 128.67 496.1C129.433 492.05 131.502 488.362 134.56 485.6C134.066 483.678 133.88 481.69 134.01 479.71L143.9 478.05L134.29 477.44C134.464 476.537 134.705 475.648 135.01 474.78C134.633 474.529 134.326 474.184 134.12 473.78C133.88 473.298 133.789 472.756 133.859 472.222C133.929 471.688 134.157 471.187 134.514 470.784C134.871 470.381 135.341 470.094 135.862 469.959C136.383 469.825 136.933 469.85 137.44 470.03C139.206 467.517 141.566 465.48 144.31 464.1C147.542 462.46 151.178 461.787 154.783 462.161C158.387 462.536 161.807 463.942 164.633 466.211C167.459 468.481 169.57 471.517 170.713 474.956C171.857 478.395 171.984 482.09 171.08 485.6C171.55 485.801 171.953 486.133 172.242 486.555C172.53 486.977 172.692 487.473 172.709 487.984C172.726 488.495 172.596 489 172.336 489.441C172.076 489.881 171.696 490.238 171.24 490.47C170.898 490.643 170.524 490.742 170.141 490.759C169.758 490.776 169.376 490.712 169.02 490.57C168.055 492.188 166.852 493.651 165.45 494.91C166.475 498.898 166.17 503.111 164.58 506.91L151.35 503.43L163.18 509.66C161.404 512.494 158.906 514.805 155.943 516.356C152.979 517.906 149.656 518.641 146.315 518.484C142.974 518.328 139.735 517.285 136.929 515.464C134.124 513.643 131.853 511.108 130.35 508.12C129.304 506.04 128.646 503.786 128.41 501.47C127.956 501.429 127.52 501.272 127.144 501.015C126.767 500.758 126.463 500.408 126.26 500V500Z" fill="#17688D"/>
<path opacity="0.1" d="M126.26 500C126.1 499.685 126.004 499.342 125.977 498.989C125.951 498.637 125.994 498.283 126.104 497.948C126.215 497.612 126.391 497.302 126.622 497.035C126.853 496.767 127.134 496.548 127.45 496.39C127.828 496.197 128.246 496.097 128.67 496.1C129.433 492.05 131.502 488.362 134.56 485.6C134.48 485.29 134.41 484.97 134.35 484.66C134.709 484.916 135.044 485.204 135.35 485.52C137.14 487.52 138.06 490.11 139.82 492.09C142.025 494.365 144.99 495.75 148.15 495.98C151.28 496.196 154.425 495.943 157.48 495.23C160 494.581 162.6 494.295 165.2 494.38L165.94 494.48L165.48 494.91C166.505 498.898 166.2 503.112 164.61 506.91L151.35 503.43L163.18 509.66C161.404 512.494 158.906 514.805 155.943 516.356C152.979 517.907 149.656 518.641 146.315 518.485C142.974 518.328 139.735 517.285 136.929 515.464C134.124 513.643 131.853 511.108 130.35 508.12C129.304 506.04 128.646 503.786 128.41 501.47C127.956 501.429 127.52 501.272 127.144 501.015C126.767 500.758 126.463 500.408 126.26 500V500Z" fill="black"/>
</g>
<path opacity="0.1" d="M615.63 776.88C679.143 776.88 730.63 767.926 730.63 756.88C730.63 745.834 679.143 736.88 615.63 736.88C552.117 736.88 500.63 745.834 500.63 756.88C500.63 767.926 552.117 776.88 615.63 776.88Z" fill="#17688D"/>
<path d="M555.44 661.88L377.25 659.59L377.78 655.02L386.39 579.63H542.88L554.39 655.02L555.27 660.74L555.44 661.88Z" fill="#D0D2D5"/>
<path opacity="0.1" d="M555.27 660.74H466.35L377.25 659.59L377.78 655.02H554.39L555.27 660.74Z" fill="black"/>
<path d="M584 656.17H347.55V661.88H584V656.17Z" fill="#D0D2D5"/>
<path d="M809.59 126.83C809.603 122.89 808.052 119.105 805.277 116.308C802.502 113.51 798.73 111.929 794.79 111.91H134.47C132.517 111.919 130.585 112.313 128.785 113.069C126.984 113.825 125.35 114.928 123.976 116.315C122.602 117.702 121.514 119.347 120.775 121.154C120.036 122.962 119.661 124.897 119.67 126.85V527.1H809.59V126.83Z" fill="#3F3D56"/>
<path d="M119.67 523.1V569.98C119.67 573.905 121.229 577.67 124.005 580.445C126.78 583.221 130.545 584.78 134.47 584.78H794.79C798.715 584.78 802.48 583.221 805.255 580.445C808.031 577.67 809.59 573.905 809.59 569.98V523.1H119.67Z" fill="#D0D2D5"/>
<path d="M784.46 137.01H148.23V496.82H784.46V137.01Z" fill="white"/>
<path d="M468.06 566.99C470.396 566.993 472.702 566.464 474.804 565.443C476.906 564.423 478.747 562.938 480.19 561.1C480.629 560.541 481.029 559.953 481.39 559.34L472.92 557.91L482.07 557.97C482.947 556.062 483.426 553.995 483.475 551.895C483.525 549.795 483.146 547.708 482.36 545.76L470.09 552.12L481.41 543.8C480.347 541.973 478.919 540.383 477.216 539.131C475.513 537.879 473.57 536.99 471.509 536.52C469.448 536.05 467.312 536.009 465.234 536.399C463.157 536.79 461.181 537.603 459.431 538.789C457.681 539.975 456.194 541.508 455.061 543.294C453.928 545.079 453.175 547.078 452.848 549.166C452.52 551.255 452.626 553.388 453.158 555.435C453.69 557.481 454.637 559.395 455.94 561.06V561.06C457.378 562.904 459.216 564.396 461.316 565.423C463.416 566.451 465.722 566.986 468.06 566.99V566.99Z" fill="#17688D"/>
<path opacity="0.1" d="M483.48 584.77L554.57 656.17L543.66 584.77H483.48Z" fill="black"/>
<path opacity="0.1" d="M784.65 137.05H147.73V158.07H784.65V137.05Z" fill="#444053"/>
<path opacity="0.3" d="M560.19 140.71H369.45C369.13 140.71 368.87 140.97 368.87 141.29V152.92C368.87 153.24 369.13 153.5 369.45 153.5H560.19C560.51 153.5 560.77 153.24 560.77 152.92V141.29C560.77 140.97 560.51 140.71 560.19 140.71Z" fill="#17688D"/>
<path d="M555.07 148.43H554.6L554.43 148.28C555.012 147.581 555.33 146.7 555.33 145.79C555.324 145.043 555.097 144.315 554.678 143.697C554.258 143.079 553.665 142.599 552.973 142.318C552.282 142.037 551.522 141.967 550.791 142.117C550.059 142.267 549.388 142.631 548.863 143.161C548.338 143.692 547.982 144.367 547.839 145.1C547.697 145.833 547.775 146.592 548.063 147.28C548.352 147.969 548.838 148.557 549.46 148.97C550.083 149.383 550.813 149.602 551.56 149.6C552.471 149.597 553.352 149.275 554.05 148.69L554.22 148.84V149.31L557.15 152.24L558.02 151.36L555.07 148.43ZM551.56 148.43C551.037 148.432 550.526 148.279 550.091 147.99C549.655 147.701 549.315 147.289 549.114 146.807C548.912 146.325 548.859 145.794 548.959 145.281C549.06 144.768 549.311 144.297 549.68 143.927C550.048 143.557 550.519 143.304 551.031 143.202C551.544 143.099 552.075 143.151 552.558 143.35C553.041 143.55 553.454 143.888 553.744 144.322C554.035 144.757 554.19 145.267 554.19 145.79C554.193 146.137 554.126 146.48 553.995 146.801C553.864 147.122 553.671 147.414 553.426 147.659C553.182 147.905 552.891 148.099 552.57 148.232C552.25 148.364 551.907 148.431 551.56 148.43V148.43Z" fill="#3F3D56"/>
<path opacity="0.8" d="M159.18 151.41C161.306 151.41 163.03 149.686 163.03 147.56C163.03 145.434 161.306 143.71 159.18 143.71C157.054 143.71 155.33 145.434 155.33 147.56C155.33 149.686 157.054 151.41 159.18 151.41Z" fill="#FA5959"/>
<path opacity="0.8" d="M169.77 151.41C171.896 151.41 173.62 149.686 173.62 147.56C173.62 145.434 171.896 143.71 169.77 143.71C167.644 143.71 165.92 145.434 165.92 147.56C165.92 149.686 167.644 151.41 169.77 151.41Z" fill="#FED253"/>
<path opacity="0.8" d="M180.37 151.41C182.496 151.41 184.22 149.686 184.22 147.56C184.22 145.434 182.496 143.71 180.37 143.71C178.244 143.71 176.52 145.434 176.52 147.56C176.52 149.686 178.244 151.41 180.37 151.41Z" fill="#8CCF4D"/>
<path d="M500.05 291.4C491.32 279.8 478.67 272.48 464.59 272.48C450.51 272.48 437.86 279.8 429.13 291.4C431.06 296.134 433.916 300.435 437.53 304.05C441.996 308.514 447.498 311.804 453.544 313.627C459.59 315.449 465.994 315.748 472.183 314.495C478.373 313.243 484.156 310.479 489.018 306.449C493.881 302.419 497.67 297.249 500.05 291.4V291.4Z" fill="#17688D"/>
<path d="M422.76 297.19C423.308 297.587 423.898 297.923 424.52 298.19C431.22 311.74 445.1 322.11 461.03 322.98V387.23C448.98 386.51 439.33 380.44 431.22 370.97C430.52 371.5 430 371.98 429.52 372.43C428.847 373.068 428.376 373.89 428.168 374.793C427.96 375.697 428.023 376.642 428.35 377.51C428.79 378.705 428.904 379.996 428.681 381.25C428.458 382.504 427.905 383.676 427.079 384.645C426.253 385.615 425.185 386.348 423.982 386.768C422.78 387.188 421.488 387.282 420.238 387.038C418.988 386.794 417.825 386.222 416.869 385.381C415.913 384.539 415.198 383.459 414.797 382.25C414.396 381.041 414.324 379.747 414.588 378.501C414.852 377.256 415.443 376.102 416.3 375.16C416.558 374.877 416.839 374.616 417.14 374.38C417.313 374.222 417.505 374.084 417.71 373.97C418.81 369.99 421.42 366.4 425.66 363.11C420.888 354.955 417.969 345.85 417.11 336.44C416.492 336.446 415.874 336.486 415.26 336.56C414.426 336.672 413.639 337.011 412.985 337.54C412.33 338.069 411.834 338.768 411.55 339.56C411.088 340.788 410.299 341.867 409.269 342.679C408.238 343.49 407.004 344.005 405.702 344.166C404.4 344.327 403.078 344.128 401.881 343.592C400.683 343.056 399.655 342.202 398.909 341.123C398.162 340.044 397.724 338.782 397.643 337.472C397.563 336.162 397.842 334.855 398.451 333.693C399.06 332.531 399.975 331.557 401.098 330.878C402.221 330.199 403.508 329.84 404.82 329.84C405.111 329.845 405.401 329.865 405.69 329.9C406.764 329.127 407.956 328.533 409.22 328.14C411.688 327.368 414.254 326.954 416.84 326.91C417.095 320.239 418.356 313.645 420.58 307.35C418.964 306.432 417.441 305.36 416.03 304.15C414.655 302.922 413.528 301.442 412.71 299.79C412.277 298.955 411.614 298.261 410.8 297.79C410.173 297.413 409.601 296.952 409.1 296.42C408.211 295.462 407.601 294.279 407.335 292.999C407.069 291.719 407.157 290.391 407.59 289.158C408.023 287.925 408.785 286.833 409.793 286.001C410.801 285.169 412.017 284.627 413.31 284.435C414.603 284.243 415.924 284.408 417.13 284.911C418.336 285.415 419.382 286.238 420.155 287.292C420.928 288.347 421.398 289.592 421.515 290.894C421.633 292.196 421.392 293.505 420.82 294.68C421.268 295.653 421.931 296.511 422.76 297.19Z" fill="#17688D"/>
<path d="M504.59 296.833C504.042 297.23 503.452 297.565 502.83 297.833C496.13 311.383 482.25 321.753 466.32 322.623V386.873C478.37 386.153 488.02 380.083 496.13 370.613C496.83 371.143 497.35 371.623 497.83 372.073C498.504 372.71 498.974 373.532 499.182 374.436C499.39 375.34 499.327 376.285 499 377.153C498.56 378.348 498.446 379.638 498.669 380.892C498.893 382.146 499.445 383.318 500.271 384.288C501.097 385.258 502.165 385.99 503.368 386.411C504.57 386.831 505.862 386.924 507.112 386.68C508.362 386.437 509.525 385.865 510.481 385.023C511.437 384.182 512.152 383.101 512.553 381.893C512.954 380.684 513.026 379.39 512.762 378.144C512.498 376.898 511.907 375.745 511.05 374.803C510.792 374.519 510.511 374.259 510.21 374.023C510.037 373.864 509.845 373.726 509.64 373.613C508.54 369.633 505.93 366.043 501.69 362.753C506.462 354.597 509.381 345.492 510.24 336.083C510.858 336.088 511.476 336.128 512.09 336.203C512.924 336.315 513.711 336.654 514.365 337.183C515.02 337.712 515.516 338.411 515.8 339.203C516.262 340.431 517.051 341.509 518.082 342.321C519.112 343.133 520.346 343.647 521.648 343.808C522.95 343.969 524.272 343.771 525.469 343.234C526.667 342.698 527.695 341.844 528.442 340.766C529.189 339.687 529.626 338.424 529.707 337.114C529.787 335.805 529.508 334.498 528.899 333.336C528.29 332.174 527.375 331.2 526.252 330.521C525.129 329.842 523.842 329.483 522.53 329.483C522.239 329.488 521.949 329.508 521.66 329.543C520.586 328.77 519.394 328.175 518.13 327.783C515.662 327.01 513.096 326.596 510.51 326.553C510.255 319.882 508.994 313.287 506.77 306.993C508.386 306.074 509.909 305.003 511.32 303.793C512.695 302.565 513.822 301.085 514.64 299.433C515.073 298.598 515.736 297.904 516.55 297.433C517.177 297.056 517.749 296.595 518.25 296.063C519.139 295.104 519.749 293.921 520.015 292.642C520.282 291.362 520.193 290.034 519.76 288.8C519.327 287.567 518.565 286.476 517.557 285.643C516.549 284.811 515.333 284.27 514.04 284.078C512.747 283.886 511.426 284.051 510.22 284.554C509.014 285.058 507.968 285.881 507.195 286.935C506.422 287.989 505.952 289.234 505.835 290.536C505.718 291.838 505.958 293.147 506.53 294.323C506.082 295.296 505.419 296.154 504.59 296.833Z" fill="#17688D"/>
<path d="M681 745.22C680.419 744.299 679.685 743.484 678.83 742.81C674.46 738.68 672.43 732.62 671.35 726.68C670.27 720.74 669.96 714.68 668.23 708.87C667.289 705.891 666.112 702.992 664.71 700.2C663.71 698.06 662.45 693.87 660.62 692.37C660.261 692.06 659.826 691.849 659.36 691.76C658.495 689.923 657.263 688.282 655.74 686.94C652.88 684.35 649.39 682.29 647.48 678.94C646.955 677.778 646.308 676.675 645.55 675.65C644.26 674.23 642.22 673.65 641.03 672.15C639.48 670.21 639.83 667.43 640.03 664.96C640.23 662.49 640.03 659.53 637.89 658.23C636.61 657.44 634.96 657.52 633.63 656.82C631.63 655.82 630.84 653.3 630.88 651.05C630.92 648.8 631.62 646.61 631.8 644.36C632.36 637.2 627.64 630.08 629.46 623.14C630.15 620.51 631.73 618.23 632.9 615.78C633.308 614.965 633.642 614.115 633.9 613.24C637.02 614.477 640.299 615.268 643.64 615.59C638.13 603.23 639.53 588.87 636.96 575.59L637.29 575.14C639.885 571.716 641.359 567.574 641.51 563.28C641.51 558.34 639.2 553.72 638.16 548.88C637.27 544.77 637.31 540.47 636.16 536.43C635.362 533.92 634.303 531.5 633 529.21C631.753 526.897 630.443 524.62 629.07 522.38C627.79 518.14 626.506 513.9 625.22 509.66C623.42 503.71 621.57 497.66 618.07 492.52C616.79 490.64 616.4 486.82 614.43 485.68C612.83 484.852 611.015 484.535 609.23 484.77C606.45 483.21 604.01 480.96 603.66 477.88C603.625 477.207 603.693 476.533 603.86 475.88H604.2C608.6 475.48 610.83 471.6 613.12 468.2C616.82 462.7 615.41 455.26 613.12 449C612.552 447.024 611.524 445.211 610.12 443.71C606.91 440.71 601.83 441.37 597.69 439.92C596.3 439.44 595 438.71 593.58 438.37C590.83 437.73 587.95 438.63 585.43 439.9C582.91 441.17 580.56 442.81 577.92 443.81C575.28 444.81 572.02 445.6 571.37 448.31C571.188 449.223 571.264 450.168 571.59 451.04C572.197 452.779 573.265 454.32 574.68 455.5C573.556 457.818 572.948 460.352 572.898 462.927C572.848 465.502 573.357 468.058 574.39 470.417C575.424 472.777 576.957 474.884 578.883 476.594C580.81 478.303 583.084 479.575 585.55 480.32C586.31 481.54 587.02 482.78 587.67 484.05C588.83 486.29 589.81 488.93 589.41 491.33C588.686 492.099 588.018 492.917 587.41 493.78C584.54 497.78 582.91 502.47 581.41 507.15C579.395 513.126 577.781 519.229 576.58 525.42C574.14 530.61 571.16 535.57 569.39 541.02C566.221 541.024 563.065 540.6 560.01 539.76L551.57 537.85C548.63 537.18 545.57 536.46 543.27 534.52C542.05 533.52 541.1 532.19 539.86 531.2C538.62 530.21 536.13 529.05 534.77 529.87C534.521 530.021 534.29 530.199 534.08 530.4C532.84 527.89 531.66 525.4 530.22 522.97C528.15 519.57 525.07 516.46 521.17 515.81C518.787 515.427 516.349 515.994 514.38 517.39C512.1 519.01 510.67 522.39 512.38 524.67C512.807 525.178 513.272 525.652 513.77 526.09C514.927 527.424 515.962 528.86 516.86 530.38C520.083 534.905 524.905 538.036 530.35 539.14L530 540.14C529.29 542.22 527.78 544.73 528.16 546.89L565.7 559.74C568.108 560.718 570.664 561.282 573.26 561.41C574.272 561.402 575.28 561.267 576.26 561.01V562.93V563.01C576.36 576.2 574.26 589.3 573.87 602.48C573.8 604.89 573.87 607.48 575.39 609.36C577.09 611.42 580.11 611.83 582.74 611.36C583.373 611.254 583.993 611.114 584.6 610.94C585.489 614.258 586.131 617.637 586.52 621.05L589 638.91C589.319 640.739 589.45 642.595 589.39 644.45C589.1 648.64 586.89 652.39 585.29 656.26C583.69 660.13 582.74 664.76 584.84 668.38C585.5 669.5 586.41 670.45 587 671.61C587.75 673.406 588.091 675.346 588 677.29C588.153 682.677 588.3 688.07 588.44 693.47C588.003 693.398 587.556 693.487 587.18 693.72C585.1 695.34 585.33 703.05 585.18 705.44C585.02 709.44 585.18 713.52 584.96 717.56C584.7 723.005 583.824 728.402 582.35 733.65C581.989 735.356 581.201 736.942 580.06 738.26C578.89 739.277 577.495 740.001 575.99 740.37C571.007 741.93 565.798 742.64 560.58 742.47C558.47 742.4 556.27 742.2 554.31 743C552.35 743.8 550.77 746 551.48 748C552.09 749.68 553.94 750.48 555.61 751.11C559.425 752.454 563.107 754.148 566.61 756.17C567.958 757.089 569.379 757.895 570.86 758.58C572.279 759.09 573.747 759.452 575.24 759.66L592.97 762.72C596.6 763.34 600.97 763.72 603.28 760.72C604.53 759.1 604.71 756.9 604.65 754.84C604.55 750.84 603.75 746.77 604.27 742.77C604.665 740.406 605.288 738.085 606.13 735.84C607.896 730.593 609.67 725.35 611.45 720.11C613.23 714.85 615.03 709.54 615.72 704.02C615.97 702.02 615.95 699.74 614.42 698.49C614.033 698.173 613.583 697.941 613.1 697.81C613.04 692.99 612.41 688.16 612.68 683.34C612.75 682.14 612.87 680.94 612.97 679.73C613.897 680.611 614.725 681.59 615.44 682.65C617.15 685.33 617.78 688.87 620.39 690.65C622.61 692.17 625.9 692.09 627.46 694.29C627.961 695.135 628.338 696.048 628.58 697C629.485 699.358 630.844 701.515 632.58 703.35C633.175 705.545 634.003 707.671 635.05 709.69C636.523 712.804 637.99 715.907 639.45 719C640.951 722.339 642.619 725.6 644.45 728.77C645.847 730.766 646.974 732.938 647.8 735.23C649.21 740.17 646.91 745.59 643.27 749.23C639.63 752.87 634.83 754.96 630.1 756.91C629.601 757.079 629.145 757.351 628.76 757.71C628.35 758.196 628.133 758.815 628.15 759.45C628.15 761.76 630.05 763.74 632.23 764.45C634.458 765.049 636.794 765.134 639.06 764.7C651.84 763.15 664.58 760.03 675.88 753.82C677.57 753.019 679.067 751.863 680.27 750.43C680.85 749.709 681.225 748.843 681.354 747.926C681.482 747.009 681.36 746.074 681 745.22V745.22Z" fill="url(#paint0_linear)"/>
<path d="M626.99 520.97C629.123 524.243 631.123 527.596 632.99 531.03C634.298 533.301 635.36 535.704 636.16 538.2C637.32 542.2 637.29 546.47 638.16 550.55C639.16 555.35 641.5 559.93 641.5 564.85C641.347 569.113 639.872 573.223 637.28 576.61C634.695 579.968 631.736 583.021 628.46 585.71C620.909 566.147 616.69 545.457 615.98 524.5C615.88 521.6 615.86 518.61 616.92 515.9C617.57 514.2 620.69 509.54 622.7 511.37C623.43 512.04 623.62 515.06 624.07 516.07C624.913 517.778 625.889 519.416 626.99 520.97V520.97Z" fill="#2F2E41"/>
<path opacity="0.1" d="M626.99 520.97C629.123 524.243 631.123 527.596 632.99 531.03C634.298 533.301 635.36 535.704 636.16 538.2C637.32 542.2 637.29 546.47 638.16 550.55C639.16 555.35 641.5 559.93 641.5 564.85C641.347 569.113 639.872 573.223 637.28 576.61C634.695 579.968 631.736 583.021 628.46 585.71C620.909 566.147 616.69 545.457 615.98 524.5C615.88 521.6 615.86 518.61 616.92 515.9C617.57 514.2 620.69 509.54 622.7 511.37C623.43 512.04 623.62 515.06 624.07 516.07C624.913 517.778 625.889 519.416 626.99 520.97V520.97Z" fill="black"/>
<path d="M363.35 384.54C355.44 392.44 354.49 395.92 349.74 397.49C344.99 399.06 327.9 407.91 333.27 417.72L347.71 427.26L348.13 427.54L350.34 434.18L328.5 473.06C328.5 473.06 292.5 456.6 288.97 480.95C285.44 505.3 287.68 511.95 286.73 524.95C285.78 537.95 287.04 541.71 283.87 541.71C280.7 541.71 279.45 533.17 279.45 533.17C279.45 533.17 279.25 532.78 278.9 532.05C274.19 522.26 242.22 450.39 293.43 400.99C293.43 400.99 317.15 399.43 322.86 372.23C326.8 353.43 340.58 355.05 349.74 358.88C352.717 360.047 355.491 361.677 357.96 363.71C360.181 365.813 362.157 368.162 363.85 370.71C366.46 374.83 367.88 380 363.35 384.54Z" fill="#D0D2D5"/>
<path opacity="0.1" d="M348.13 427.54L350.34 434.18L328.5 473.06C328.5 473.06 292.5 456.6 288.97 480.95C285.44 505.3 287.68 511.95 286.73 524.95C285.78 537.95 287.04 541.71 283.87 541.71C280.7 541.71 279.45 533.17 279.45 533.17C279.45 533.17 279.25 532.78 278.9 532.05C277.31 519.89 269.25 448.76 298.47 452.54C298.47 452.54 322.18 463.62 325.97 459.2C328.97 455.7 342.29 435.57 347.71 427.31L348.13 427.54Z" fill="black"/>
<path opacity="0.1" d="M363.85 370.65L349.41 387.06C349.41 387.06 332.64 409.5 329.16 408.55C328.118 408.323 327.056 408.199 325.99 408.18C324.829 408.091 323.717 407.675 322.783 406.98C321.849 406.285 321.131 405.339 320.712 404.253C320.294 403.167 320.191 401.984 320.418 400.842C320.644 399.7 321.189 398.645 321.99 397.8C327.71 391.8 338.25 380.41 338.94 377.88C339.63 375.35 346.34 364.26 349.7 358.83C352.677 359.997 355.451 361.627 357.92 363.66C360.155 365.758 362.144 368.103 363.85 370.65V370.65Z" fill="black"/>
<path d="M772.41 606.74C769.96 611.64 757.41 630.02 751.92 638.05L749.35 641.83C749.35 641.83 748.35 648.47 731.96 640.24C715.57 632.01 330.48 469.52 330.48 469.52L327.87 461.68L346.87 433.23L768.94 596.3C768.94 596.3 775.58 600.41 772.41 606.74Z" fill="#454B69"/>
<path opacity="0.1" d="M751.92 638.05L749.35 641.83C749.35 641.83 748.35 648.47 731.96 640.24C715.57 632.01 330.48 469.52 330.48 469.52L327.87 461.68L751.92 638.05Z" fill="black"/>
<path d="M519.64 531.91C515.73 531.27 511.39 531.58 508.35 534.12C506.512 535.676 505.351 537.885 505.11 540.28C504.85 543.05 506.46 546.34 509.24 546.55C509.909 546.558 510.577 546.514 511.24 546.42C512.996 546.413 514.75 546.56 516.48 546.86C519.886 547.18 523.319 546.679 526.491 545.399C529.663 544.118 532.481 542.095 534.71 539.5C537.1 536.5 533.95 535.2 531.13 534.6C527.27 533.78 523.5 532.53 519.64 531.91Z" fill="#FBBEBE"/>
<path d="M586.52 622.22L589 639.84C589.316 641.659 589.443 643.505 589.38 645.35C589.09 649.5 586.88 653.22 585.29 657.06C583.7 660.9 582.73 665.5 584.84 669.06C585.49 670.17 586.4 671.12 586.99 672.27C587.739 674.049 588.081 675.972 587.99 677.9L588.67 702.9C596.389 703.427 604.137 703.383 611.85 702.77C612.152 702.784 612.449 702.692 612.69 702.51C612.893 702.252 612.996 701.929 612.98 701.6C613.32 695.75 612.3 689.89 612.63 684.04C612.75 681.9 613.05 679.77 613.09 677.62C613.21 668.91 608.91 660.38 610.21 651.77C610.618 649.598 611.152 647.451 611.81 645.34C615.92 630.34 615.05 614.58 614.14 599.09C614.155 598.841 614.085 598.594 613.94 598.39C613.792 598.242 613.604 598.141 613.4 598.1C609.025 596.787 604.398 596.547 599.911 597.4C595.424 598.253 591.208 600.174 587.62 603C586.53 603.88 583.78 604.73 583.06 605.78C582.06 607.24 583.37 608.7 583.95 610.25C585.235 614.136 586.096 618.149 586.52 622.22V622.22Z" fill="#3F3D56"/>
<path opacity="0.1" d="M586.52 622.22L589 639.84C589.316 641.659 589.443 643.505 589.38 645.35C589.09 649.5 586.88 653.22 585.29 657.06C583.7 660.9 582.73 665.5 584.84 669.06C585.49 670.17 586.4 671.12 586.99 672.27C587.739 674.049 588.081 675.972 587.99 677.9L588.67 702.9C596.389 703.427 604.137 703.383 611.85 702.77C612.152 702.784 612.449 702.692 612.69 702.51C612.893 702.252 612.996 701.929 612.98 701.6C613.32 695.75 612.3 689.89 612.63 684.04C612.75 681.9 613.05 679.77 613.09 677.62C613.21 668.91 608.91 660.38 610.21 651.77C610.618 649.598 611.152 647.451 611.81 645.34C615.92 630.34 615.05 614.58 614.14 599.09C614.155 598.841 614.085 598.594 613.94 598.39C613.792 598.242 613.604 598.141 613.4 598.1C609.025 596.787 604.398 596.547 599.911 597.4C595.424 598.253 591.208 600.174 587.62 603C586.53 603.88 583.78 604.73 583.06 605.78C582.06 607.24 583.37 608.7 583.95 610.25C585.235 614.136 586.096 618.149 586.52 622.22V622.22Z" fill="black"/>
<path d="M632.89 616.91C631.72 619.34 630.15 621.6 629.45 624.21C627.63 631.1 632.34 638.21 631.78 645.27C631.6 647.5 630.91 649.67 630.86 651.9C630.81 654.13 631.63 656.61 633.61 657.64C634.94 658.32 636.61 658.25 637.86 659.03C639.97 660.32 640.21 663.25 640 665.71C639.79 668.17 639.44 670.92 641 672.84C642.19 674.33 644.23 674.91 645.51 676.32C646.271 677.332 646.919 678.426 647.44 679.58C649.35 682.92 652.84 684.96 655.7 687.58C658.56 690.2 660.98 694.04 659.7 697.67C658.76 700.33 656.12 701.97 653.58 703.22C648.946 705.511 644.054 707.24 639.01 708.37C638.468 708.534 637.896 708.565 637.34 708.46C636.777 708.255 636.275 707.911 635.88 707.46C632.93 704.57 629.88 701.54 628.52 697.65C628.278 696.707 627.901 695.805 627.4 694.97C625.84 692.78 622.55 692.86 620.33 691.35C617.73 689.58 617.1 686.07 615.4 683.42C613.7 680.77 611.21 679.19 609.4 676.86C606.34 672.98 605.59 667.8 603.4 663.37C602.47 661.49 601.28 659.73 600.54 657.77C599.793 655.421 599.333 652.99 599.17 650.53C597.76 638.85 594.17 627.09 596.43 615.53C596.93 612.99 597.7 610.53 598.02 607.91C598.57 603.38 597.7 598.74 598.37 594.22C598.386 593.653 598.531 593.096 598.792 592.592C599.053 592.089 599.425 591.65 599.88 591.31C600.42 591.068 601.008 590.948 601.6 590.96C607.528 590.643 613.472 590.777 619.38 591.36C622.38 591.65 625.74 592.26 627.54 594.71C629.07 596.81 628.99 599.62 629.48 602.17C630.09 605.31 631.68 607.02 633.35 609.48C635.02 611.94 634.12 614.37 632.89 616.91Z" fill="#3F3D56"/>
<path d="M609.82 698.17C611.4 698.17 613.15 698.07 614.37 699.07C615.89 700.32 615.91 702.61 615.67 704.56C614.97 710.04 613.18 715.31 611.39 720.56L606.07 736.17C605.228 738.398 604.605 740.702 604.21 743.05C603.69 747.05 604.49 751.05 604.59 755.05C604.59 757.05 604.46 759.27 603.21 760.88C600.95 763.79 596.54 763.45 592.91 762.88L575.2 759.88C573.706 759.681 572.237 759.322 570.82 758.81C569.342 758.128 567.921 757.328 566.57 756.42C563.065 754.418 559.383 752.744 555.57 751.42C553.91 750.8 552.05 750.01 551.45 748.34C550.74 746.34 552.32 744.14 554.28 743.34C556.24 742.54 558.43 742.74 560.55 742.8C565.763 742.966 570.968 742.263 575.95 740.72C577.451 740.352 578.842 739.632 580.01 738.62C581.196 737.287 582.004 735.661 582.35 733.91C583.859 728.698 584.758 723.329 585.03 717.91C585.24 713.91 585.1 709.91 585.26 705.91C585.36 703.54 585.13 695.91 587.21 694.28C588.8 693.06 595.34 696.43 597.49 696.92C601.532 697.846 605.674 698.266 609.82 698.17V698.17Z" fill="#2F2E41"/>
<path d="M668.16 709.29C669.89 715.02 670.16 721.08 671.28 726.97C672.4 732.86 674.38 738.87 678.75 742.97C679.601 743.645 680.334 744.456 680.92 745.37C681.289 746.226 681.414 747.168 681.282 748.091C681.15 749.014 680.765 749.882 680.17 750.6C678.963 752.023 677.466 753.171 675.78 753.97C664.49 760.13 651.78 763.24 638.97 764.78C636.706 765.204 634.377 765.119 632.15 764.53C629.97 763.79 628.04 761.83 628.08 759.53C628.059 758.899 628.273 758.283 628.68 757.8C629.069 757.444 629.529 757.175 630.03 757.01C634.75 755.07 639.54 752.96 643.19 749.38C646.84 745.8 649.13 740.38 647.72 735.52C646.885 733.244 645.752 731.088 644.35 729.11C642.522 725.966 640.853 722.732 639.35 719.42L634.95 710.19C633.66 707.49 632.36 704.71 632.14 701.73C637.667 701.978 643.187 701.093 648.36 699.13C650.775 698.145 653.024 696.796 655.03 695.13C656.73 693.71 658.28 691.06 660.57 692.91C662.41 694.39 663.57 698.56 664.65 700.67C666.053 703.443 667.227 706.326 668.16 709.29Z" fill="#2F2E41"/>
<path d="M603.68 480.1C604.12 483.94 607.84 486.47 611.39 487.99L588.92 495.16C590.37 492.38 589.2 488.98 587.76 486.16C586.587 483.927 585.25 481.785 583.76 479.75C583.54 479.44 583.29 479.05 583.45 478.69C583.593 478.455 583.817 478.281 584.08 478.2C588.7 476.14 593.46 474.01 598.51 473.26C599.97 473.05 602.73 472.47 603.82 473.95C604.91 475.43 603.47 478.33 603.68 480.1Z" fill="#FBBEBE"/>
<path opacity="0.1" d="M603.68 480.1C604.12 483.94 607.84 486.47 611.39 487.99L588.92 495.16C590.37 492.38 589.2 488.98 587.76 486.16C586.587 483.927 585.25 481.785 583.76 479.75C583.54 479.44 583.29 479.05 583.45 478.69C583.593 478.455 583.817 478.281 584.08 478.2C588.7 476.14 593.46 474.01 598.51 473.26C599.97 473.05 602.73 472.47 603.82 473.95C604.91 475.43 603.47 478.33 603.68 480.1Z" fill="black"/>
<path d="M590.62 483.21C600.351 483.21 608.24 475.321 608.24 465.59C608.24 455.859 600.351 447.97 590.62 447.97C580.889 447.97 573 455.859 573 465.59C573 475.321 580.889 483.21 590.62 483.21Z" fill="#FBBEBE"/>
<path d="M575.35 610.59C577.06 612.64 580.07 613.04 582.7 612.59C588.85 611.59 593.88 607.06 599.9 605.43C607.28 603.43 615.09 606 622.06 609.15C629.03 612.3 635.96 616.15 643.58 616.69C636.69 601.33 640.63 582.85 634.04 567.36C632.43 563.57 630.18 559.92 629.82 555.82C629.37 550.73 631.91 545.82 632.3 540.76C632.66 536.25 631.3 531.76 630 527.46C628.393 522.18 626.787 516.9 625.18 511.62C623.38 505.71 621.53 499.7 618.04 494.62C616.75 492.75 616.36 488.96 614.4 487.83C610.12 485.36 603.63 488.47 598.99 488.64C594.35 488.81 590.12 492.11 587.41 495.84C584.54 499.78 582.91 504.47 581.41 509.11C579.022 516.019 577.238 523.122 576.08 530.34C575.93 531.42 575.8 532.5 575.7 533.59C574.7 543.86 576.16 554.19 576.24 564.51V564.58C576.34 577.67 574.24 590.68 573.85 603.76C573.81 606.15 573.87 608.76 575.35 610.59Z" fill="#2F2E41"/>
<path opacity="0.1" d="M576.27 564.52C579.72 563.65 582.84 561.42 585.52 558.98C587.841 556.903 589.903 554.552 591.66 551.98C593.872 548.522 595.649 544.804 596.95 540.91C600.652 530.497 603.005 519.652 603.95 508.64C604.21 505.64 604.29 502.42 602.5 500.04C601.495 498.751 600.083 497.839 598.495 497.455C596.906 497.07 595.234 497.234 593.75 497.92C591.39 499.07 589.86 501.4 588.44 503.63C585.63 508.05 582.8 512.53 580.99 517.45C580.19 519.63 579.6 521.87 578.82 524.06C578.027 526.22 577.112 528.333 576.08 530.39C575.93 531.47 575.8 532.55 575.7 533.64C574.77 543.91 576.19 554.2 576.27 564.52Z" fill="black"/>
<path d="M602.45 498.11C604.24 500.49 604.16 503.74 603.91 506.7C602.967 517.712 600.614 528.557 596.91 538.97C595.62 542.896 593.843 546.646 591.62 550.13C589.86 552.7 587.798 555.05 585.48 557.13C582.08 560.23 577.94 563 573.33 563.04C570.735 562.918 568.18 562.36 565.77 561.39L528.22 548.61C527.84 546.47 529.35 543.97 530.06 541.91L532.06 535.98C532.63 534.34 533.29 532.57 534.78 531.68C536.27 530.79 538.63 532.01 539.87 533C541.11 533.99 542.05 535.29 543.27 536.3C545.58 538.22 548.63 538.94 551.57 539.6L560 541.49C563.056 542.327 566.211 542.747 569.38 542.74C571.73 535.56 576.2 529.24 578.73 522.12C579.51 519.94 580.1 517.69 580.91 515.51C582.71 510.59 585.55 506.12 588.36 501.69C589.77 499.47 591.3 497.14 593.67 495.98C595.158 495.285 596.838 495.117 598.434 495.505C600.03 495.892 601.446 496.811 602.45 498.11V498.11Z" fill="#2F2E41"/>
<path d="M596.24 469.57C596.107 468.411 595.747 467.29 595.18 466.27C594.886 465.759 594.436 465.356 593.896 465.119C593.357 464.881 592.756 464.822 592.18 464.95C590.42 465.5 589.83 468.22 587.99 468.31C586.75 468.37 585.86 467.11 585.47 465.93C585.08 464.75 584.87 463.4 583.94 462.57C583.293 462.086 582.549 461.745 581.76 461.57C577.49 460.22 573.08 457.73 571.66 453.48C571.326 452.617 571.246 451.677 571.43 450.77C572.08 448.08 575.43 447.27 577.98 446.3C580.53 445.33 582.98 443.67 585.48 442.41C587.98 441.15 590.88 440.26 593.63 440.9C595.026 441.339 596.397 441.849 597.74 442.43C601.88 443.87 606.95 443.2 610.16 446.19C611.563 447.673 612.591 449.469 613.16 451.43C615.4 457.65 616.82 465.03 613.11 470.49C610.82 473.86 608.6 477.71 604.2 478.12C599.08 478.55 597.05 473.91 596.24 469.57Z" fill="#2F2E41"/>
<g opacity="0.1">
<path opacity="0.1" d="M588.42 463.81C588.03 462.63 587.82 461.28 586.9 460.45C586.253 459.966 585.51 459.625 584.72 459.45C580.44 458.1 576.04 455.61 574.61 451.36C574.284 450.495 574.208 449.556 574.39 448.65C574.488 448.223 574.668 447.819 574.92 447.46C573.29 448.17 571.87 449.11 571.47 450.77C571.286 451.677 571.366 452.617 571.7 453.48C573.12 457.73 577.53 460.22 581.8 461.57C582.59 461.745 583.333 462.086 583.98 462.57C584.91 463.4 585.11 464.74 585.51 465.93C585.91 467.12 586.79 468.37 588.03 468.31C589.27 468.25 589.87 467.12 590.66 466.17C589.57 466.03 588.78 464.91 588.42 463.81Z" fill="black"/>
<path opacity="0.1" d="M607.14 475.97C602 476.44 599.97 471.76 599.14 467.45C599.03 466.294 598.69 465.172 598.14 464.15C597.844 463.641 597.395 463.238 596.855 463.001C596.316 462.764 595.716 462.704 595.14 462.83C594.228 463.273 593.461 463.967 592.93 464.83C593.389 464.874 593.832 465.023 594.224 465.266C594.616 465.509 594.946 465.839 595.19 466.23C595.757 467.25 596.117 468.371 596.25 469.53C597.06 473.84 599.09 478.53 604.25 478.05C606.29 477.825 608.172 476.848 609.53 475.31C608.776 475.662 607.968 475.885 607.14 475.97V475.97Z" fill="black"/>
</g>
<path d="M813.11 661.99C830.943 661.99 845.4 659.21 845.4 655.78C845.4 652.35 830.943 649.57 813.11 649.57C795.277 649.57 780.82 652.35 780.82 655.78C780.82 659.21 795.277 661.99 813.11 661.99Z" fill="#17688D"/>
<path d="M812.57 658.06C814.647 658.06 816.33 655.857 816.33 653.14C816.33 650.423 814.647 648.22 812.57 648.22C810.493 648.22 808.81 650.423 808.81 653.14C808.81 655.857 810.493 658.06 812.57 658.06Z" fill="#3F3D56"/>
<path d="M812.57 652.04C814.647 652.04 816.33 649.837 816.33 647.12C816.33 644.403 814.647 642.2 812.57 642.2C810.493 642.2 808.81 644.403 808.81 647.12C808.81 649.837 810.493 652.04 812.57 652.04Z" fill="#3F3D56"/>
<path d="M812.57 646.03C814.647 646.03 816.33 643.827 816.33 641.11C816.33 638.393 814.647 636.19 812.57 636.19C810.493 636.19 808.81 638.393 808.81 641.11C808.81 643.827 810.493 646.03 812.57 646.03Z" fill="#3F3D56"/>
<path d="M812.57 640.01C814.647 640.01 816.33 637.807 816.33 635.09C816.33 632.373 814.647 630.17 812.57 630.17C810.493 630.17 808.81 632.373 808.81 635.09C808.81 637.807 810.493 640.01 812.57 640.01Z" fill="#3F3D56"/>
<path d="M812.57 633.99C814.647 633.99 816.33 631.787 816.33 629.07C816.33 626.353 814.647 624.15 812.57 624.15C810.493 624.15 808.81 626.353 808.81 629.07C808.81 631.787 810.493 633.99 812.57 633.99Z" fill="#3F3D56"/>
<path d="M812.57 627.98C814.647 627.98 816.33 625.777 816.33 623.06C816.33 620.343 814.647 618.14 812.57 618.14C810.493 618.14 808.81 620.343 808.81 623.06C808.81 625.777 810.493 627.98 812.57 627.98Z" fill="#3F3D56"/>
<path d="M812.57 621.96C814.647 621.96 816.33 619.757 816.33 617.04C816.33 614.323 814.647 612.12 812.57 612.12C810.493 612.12 808.81 614.323 808.81 617.04C808.81 619.757 810.493 621.96 812.57 621.96Z" fill="#3F3D56"/>
<path d="M826.64 575.91C827.153 575.256 827.621 574.568 828.04 573.85L818.16 572.23L828.85 572.3C829.87 570.068 830.427 567.653 830.485 565.2C830.543 562.747 830.103 560.307 829.19 558.03L814.85 565.47L828.07 555.75C826.829 553.614 825.163 551.757 823.174 550.294C821.185 548.83 818.916 547.791 816.508 547.242C814.1 546.693 811.606 546.645 809.179 547.102C806.752 547.558 804.445 548.509 802.401 549.895C800.357 551.282 798.621 553.074 797.299 555.16C795.978 557.246 795.1 559.582 794.72 562.022C794.34 564.462 794.466 566.954 795.091 569.343C795.715 571.733 796.824 573.968 798.35 575.91C797.547 576.925 796.856 578.025 796.29 579.19L809.12 585.86L795.44 581.27C794.484 584.104 794.25 587.131 794.758 590.078C795.266 593.025 796.501 595.799 798.35 598.15C796.264 600.805 794.967 603.994 794.607 607.352C794.248 610.71 794.84 614.101 796.316 617.138C797.793 620.176 800.094 622.736 802.956 624.528C805.819 626.319 809.128 627.269 812.505 627.269C815.882 627.269 819.191 626.319 822.053 624.528C824.916 622.736 827.217 620.176 828.693 617.138C830.17 614.101 830.762 610.71 830.402 607.352C830.043 603.994 828.746 600.805 826.66 598.15C829.159 594.976 830.517 591.054 830.517 587.015C830.517 582.975 829.159 579.053 826.66 575.88L826.64 575.91Z" fill="#17688D"/>
<path opacity="0.1" d="M794.47 587.01C794.468 591.055 795.836 594.982 798.35 598.15C796.264 600.806 794.967 603.995 794.607 607.353C794.247 610.71 794.84 614.102 796.316 617.139C797.792 620.176 800.093 622.737 802.956 624.528C805.819 626.319 809.128 627.269 812.505 627.269C815.882 627.269 819.191 626.319 822.053 624.528C824.916 622.737 827.217 620.176 828.693 617.139C830.17 614.102 830.762 610.71 830.402 607.353C830.043 603.995 828.746 600.806 826.66 598.15C829.05 595.08 794.47 584.99 794.47 587.01Z" fill="black"/>
<path d="M148.42 785.81C174.096 785.81 194.91 781.808 194.91 776.87C194.91 771.933 174.096 767.93 148.42 767.93C122.744 767.93 101.93 771.933 101.93 776.87C101.93 781.808 122.744 785.81 148.42 785.81Z" fill="#17688D"/>
<path d="M147.64 780.16C150.628 780.16 153.05 776.986 153.05 773.07C153.05 769.154 150.628 765.98 147.64 765.98C144.652 765.98 142.23 769.154 142.23 773.07C142.23 776.986 144.652 780.16 147.64 780.16Z" fill="#3F3D56"/>
<path d="M147.64 771.5C150.628 771.5 153.05 768.325 153.05 764.41C153.05 760.494 150.628 757.32 147.64 757.32C144.652 757.32 142.23 760.494 142.23 764.41C142.23 768.325 144.652 771.5 147.64 771.5Z" fill="#3F3D56"/>
<path d="M147.64 762.84C150.628 762.84 153.05 759.666 153.05 755.75C153.05 751.834 150.628 748.66 147.64 748.66C144.652 748.66 142.23 751.834 142.23 755.75C142.23 759.666 144.652 762.84 147.64 762.84Z" fill="#3F3D56"/>
<path d="M147.64 754.18C150.628 754.18 153.05 751.006 153.05 747.09C153.05 743.174 150.628 740 147.64 740C144.652 740 142.23 743.174 142.23 747.09C142.23 751.006 144.652 754.18 147.64 754.18Z" fill="#3F3D56"/>
<path d="M147.64 745.52C150.628 745.52 153.05 742.346 153.05 738.43C153.05 734.514 150.628 731.34 147.64 731.34C144.652 731.34 142.23 734.514 142.23 738.43C142.23 742.346 144.652 745.52 147.64 745.52Z" fill="#3F3D56"/>
<path d="M147.64 736.85C150.628 736.85 153.05 733.676 153.05 729.76C153.05 725.844 150.628 722.67 147.64 722.67C144.652 722.67 142.23 725.844 142.23 729.76C142.23 733.676 144.652 736.85 147.64 736.85Z" fill="#3F3D56"/>
<path d="M147.64 728.19C150.628 728.19 153.05 725.015 153.05 721.1C153.05 717.184 150.628 714.01 147.64 714.01C144.652 714.01 142.23 717.184 142.23 721.1C142.23 725.015 144.652 728.19 147.64 728.19Z" fill="#3F3D56"/>
<path d="M167.9 661.84C168.632 660.885 169.301 659.883 169.9 658.84L155.68 656.5L171.06 656.62C172.534 653.408 173.338 649.929 173.422 646.396C173.507 642.862 172.87 639.349 171.55 636.07L150.93 646.81L169.93 632.81C168.151 629.723 165.755 627.036 162.891 624.916C160.027 622.796 156.757 621.289 153.284 620.49C149.812 619.69 146.213 619.614 142.71 620.268C139.207 620.921 135.877 622.289 132.926 624.287C129.976 626.285 127.469 628.869 125.562 631.879C123.655 634.888 122.388 638.259 121.841 641.78C121.295 645.301 121.48 648.896 122.384 652.343C123.289 655.789 124.894 659.012 127.1 661.81C125.932 663.27 124.926 664.853 124.1 666.53L142.57 676.13L122.88 669.52C121.5 673.618 121.167 677.997 121.911 682.256C122.655 686.516 124.453 690.522 127.14 693.91C124.132 697.735 122.26 702.329 121.739 707.167C121.218 712.006 122.07 716.893 124.196 721.27C126.322 725.648 129.636 729.338 133.761 731.92C137.886 734.503 142.654 735.872 147.52 735.872C152.386 735.872 157.155 734.503 161.279 731.92C165.404 729.338 168.719 725.648 170.845 721.27C172.971 716.893 173.822 712.006 173.301 707.167C172.781 702.329 170.909 697.735 167.9 693.91C171.496 689.341 173.451 683.695 173.451 677.88C173.451 672.065 171.496 666.419 167.9 661.85V661.84Z" fill="#17688D"/>
<path opacity="0.1" d="M121.59 677.91C121.591 683.715 123.546 689.351 127.14 693.91C124.131 697.735 122.259 702.329 121.739 707.167C121.218 712.005 122.069 716.893 124.195 721.27C126.321 725.647 129.636 729.338 133.761 731.92C137.886 734.502 142.654 735.872 147.52 735.872C152.386 735.872 157.154 734.502 161.279 731.92C165.404 729.338 168.718 725.647 170.844 721.27C172.97 716.893 173.822 712.005 173.301 707.167C172.78 702.329 170.909 697.735 167.9 693.91C171.35 689.49 121.59 674.96 121.59 677.91Z" fill="black"/>
</g>
<defs>
<linearGradient id="paint0_linear" x1="601.882" y1="766.347" x2="588.646" y2="438.224" gradientUnits="userSpaceOnUse">
<stop stop-color="#808080" stop-opacity="0.25"/>
<stop offset="0.54" stop-color="#808080" stop-opacity="0.12"/>
<stop offset="1" stop-color="#808080" stop-opacity="0.1"/>
</linearGradient>
<clipPath id="clip0">
<rect width="1022.7" height="785.81" fill="white"/>
</clipPath>
</defs>
</svg>
